<?xml version="1.0" encoding="UTF-8"?> <!-- Generator: Adobe Illustrator 24.3.0, SVG Export Plug-In . SVG Version: 6.00 Build 0) --> <svg xmlns="http://www.w3.org/2000/svg" xmlns:xlink="http://www.w3.org/1999/xlink" version="1.1" id="Layer_1" x="0px" y="0px" viewBox="0 0 215.45 248.07" style="enable-background:new 0 0 215.45 248.07;" xml:space="preserve"> <style type="text/css"> .st0{fill:#1A7CB5;} .st1{fill:#555555;} .st2{fill-rule:evenodd;clip-rule:evenodd;fill:#CBCCCB;} .st3{clip-path:url(#SVGID_2_);} .st4{fill:#1979B1;} .st5{fill:#1A79B2;} .st6{fill:#1A7AB2;} .st7{fill:#1B7BB2;} .st8{fill:#1B7BB3;} .st9{fill:#1C7CB3;} .st10{fill:#1D7DB4;} .st11{fill:#1D7EB5;} .st12{fill:#1E7FB5;} .st13{fill:#1F80B6;} .st14{fill:#1F81B6;} .st15{clip-path:url(#SVGID_4_);} .st16{fill:#1B7AB2;} .st17{fill:#1C7BB3;} .st18{fill:#1D7CB3;} .st19{fill:#1E7DB4;} .st20{fill:#1F7EB4;} .st21{clip-path:url(#SVGID_6_);} .st22{clip-path:url(#SVGID_8_);} .st23{fill:#FFFFFF;} .st24{fill:#16232C;} .st25{fill:#23B573;} .st26{fill-rule:evenodd;clip-rule:evenodd;fill:#16232C;} .st27{fill:#20B574;} .st28{fill:#162C53;} .st29{fill:#F26424;} .st30{fill:none;stroke:#262727;stroke-width:5.2588;stroke-miterlimit:21.0353;} .st31{fill:#262727;} </style> <g id="C"> </g> <g> <g> <g> <g> <path class="st24" d="M23.48,174.53l2.41,0.31c-0.26,1.66-0.94,2.96-2.02,3.9c-1.08,0.94-2.41,1.41-3.99,1.41 c-1.98,0-3.57-0.65-4.77-1.94c-1.2-1.29-1.8-3.14-1.8-5.56c0-1.56,0.26-2.92,0.78-4.09c0.52-1.17,1.3-2.05,2.36-2.63 c1.06-0.58,2.21-0.88,3.45-0.88c1.57,0,2.85,0.4,3.85,1.19c1,0.79,1.64,1.92,1.92,3.38l-2.38,0.37c-0.23-0.97-0.63-1.7-1.2-2.19 c-0.58-0.49-1.27-0.73-2.09-0.73c-1.23,0-2.23,0.44-3.01,1.33c-0.77,0.88-1.16,2.28-1.16,4.2c0,1.94,0.37,3.35,1.12,4.23 c0.74,0.88,1.71,1.32,2.91,1.32c0.96,0,1.76-0.29,2.41-0.88C22.9,176.66,23.31,175.76,23.48,174.53z"></path> </g> </g> <g> <g> <path class="st24" d="M37.87,175.17l2.53,0.31c-0.4,1.48-1.14,2.62-2.22,3.44c-1.08,0.82-2.46,1.22-4.13,1.22 c-2.11,0-3.79-0.65-5.03-1.95c-1.24-1.3-1.86-3.12-1.86-5.47c0-2.43,0.63-4.31,1.88-5.66c1.25-1.34,2.87-2.01,4.87-2.01 c1.93,0,3.51,0.66,4.73,1.97c1.22,1.31,1.84,3.16,1.84,5.55c0,0.15,0,0.36-0.01,0.65H29.69c0.09,1.59,0.54,2.8,1.35,3.64 c0.81,0.84,1.81,1.27,3.02,1.27c0.9,0,1.66-0.24,2.3-0.71C36.99,176.96,37.49,176.21,37.87,175.17z M29.83,171.21h8.06 c-0.11-1.21-0.42-2.13-0.92-2.73c-0.78-0.94-1.79-1.41-3.03-1.41c-1.12,0-2.07,0.38-2.84,1.13 C30.33,168.95,29.91,169.96,29.83,171.21z"></path> </g> </g> <g> <g> <path class="st24" d="M43.44,179.82v-14.44h2.2v2.19c0.56-1.02,1.08-1.7,1.56-2.03s1-0.49,1.57-0.49c0.82,0,1.66,0.26,2.52,0.79 l-0.84,2.27c-0.6-0.35-1.2-0.53-1.79-0.53c-0.54,0-1.02,0.16-1.44,0.48c-0.43,0.32-0.73,0.77-0.91,1.34 c-0.27,0.87-0.41,1.82-0.41,2.86v7.56H43.44z"></path> </g> </g> <g> <g> <path class="st24" d="M58.09,177.63l0.35,2.16c-0.69,0.14-1.31,0.22-1.85,0.22c-0.89,0-1.58-0.14-2.07-0.42 c-0.49-0.28-0.83-0.65-1.03-1.11c-0.2-0.46-0.3-1.42-0.3-2.89v-8.31H51.4v-1.9h1.79v-3.58l2.43-1.47v5.05h2.46v1.9h-2.46v8.45 c0,0.7,0.04,1.15,0.13,1.35c0.09,0.2,0.23,0.36,0.42,0.48c0.19,0.12,0.47,0.18,0.84,0.18C57.28,177.73,57.64,177.7,58.09,177.63 z"></path> </g> </g> <g> <g> <path class="st24" d="M60.49,162.7v-2.81h2.45v2.81H60.49z M60.49,179.82v-14.44h2.45v14.44H60.49z"></path> </g> </g> <g> <g> <path class="st24" d="M67.25,179.82v-12.54h-2.16v-1.9h2.16v-1.54c0-0.97,0.09-1.69,0.26-2.16c0.24-0.63,0.65-1.15,1.24-1.54 c0.59-0.39,1.43-0.59,2.5-0.59c0.69,0,1.45,0.08,2.28,0.25l-0.37,2.14c-0.51-0.09-0.99-0.14-1.44-0.14 c-0.74,0-1.27,0.16-1.58,0.48c-0.31,0.32-0.46,0.91-0.46,1.78v1.33h2.81v1.9h-2.81v12.54H67.25z"></path> </g> </g> <g> <g> <path class="st24" d="M74.42,162.7v-2.81h2.45v2.81H74.42z M74.42,179.82v-14.44h2.45v14.44H74.42z"></path> </g> </g> <g> <g> <path class="st24" d="M90.48,175.17l2.53,0.31c-0.4,1.48-1.14,2.62-2.22,3.44c-1.08,0.82-2.46,1.22-4.13,1.22 c-2.11,0-3.79-0.65-5.03-1.95c-1.24-1.3-1.86-3.12-1.86-5.47c0-2.43,0.63-4.31,1.88-5.66c1.25-1.34,2.87-2.01,4.87-2.01 c1.93,0,3.51,0.66,4.73,1.97c1.22,1.31,1.84,3.16,1.84,5.55c0,0.15,0,0.36-0.01,0.65H82.31c0.09,1.59,0.54,2.8,1.35,3.64 c0.81,0.84,1.81,1.27,3.02,1.27c0.9,0,1.66-0.24,2.3-0.71C89.61,176.96,90.11,176.21,90.48,175.17z M82.44,171.21h8.06 c-0.11-1.21-0.42-2.13-0.92-2.73c-0.78-0.94-1.79-1.41-3.03-1.41c-1.12,0-2.07,0.38-2.84,1.13 C82.95,168.95,82.53,169.96,82.44,171.21z"></path> </g> </g> <g> <g> <path class="st24" d="M105.45,179.82V178c-0.92,1.43-2.26,2.15-4.04,2.15c-1.15,0-2.21-0.32-3.18-0.95 c-0.97-0.63-1.71-1.52-2.24-2.66c-0.53-1.14-0.8-2.45-0.8-3.92c0-1.44,0.24-2.75,0.72-3.92c0.48-1.17,1.2-2.07,2.16-2.7 c0.96-0.63,2.04-0.94,3.22-0.94c0.87,0,1.65,0.18,2.33,0.55c0.68,0.37,1.23,0.85,1.66,1.43v-7.15h2.43v19.94H105.45z M97.72,172.62c0,1.85,0.39,3.23,1.17,4.15c0.78,0.92,1.7,1.37,2.76,1.37c1.07,0,1.98-0.44,2.73-1.31 c0.75-0.87,1.12-2.21,1.12-4.01c0-1.98-0.38-3.43-1.14-4.35c-0.76-0.92-1.7-1.39-2.81-1.39c-1.09,0-2,0.44-2.73,1.33 C98.08,169.3,97.72,170.7,97.72,172.62z"></path> </g> </g> <g> <g> <path class="st24" d="M119.31,185.36v-19.98h2.23v1.88c0.53-0.73,1.12-1.29,1.78-1.65c0.66-0.37,1.46-0.55,2.41-0.55 c1.23,0,2.32,0.32,3.26,0.95c0.94,0.64,1.65,1.53,2.14,2.69c0.48,1.16,0.72,2.42,0.72,3.8c0,1.48-0.27,2.81-0.8,3.99 c-0.53,1.18-1.3,2.09-2.31,2.72c-1.01,0.63-2.07,0.94-3.19,0.94c-0.82,0-1.55-0.17-2.2-0.52c-0.65-0.35-1.18-0.78-1.6-1.31v7.03 H119.31z M121.53,172.68c0,1.86,0.38,3.23,1.13,4.12c0.75,0.89,1.66,1.33,2.73,1.33c1.09,0,2.02-0.46,2.79-1.38 c0.78-0.92,1.16-2.35,1.16-4.28c0-1.84-0.38-3.22-1.14-4.13c-0.76-0.92-1.66-1.37-2.71-1.37c-1.04,0-1.96,0.49-2.77,1.46 C121.93,169.41,121.53,170.83,121.53,172.68z"></path> </g> </g> <g> <g> <path class="st24" d="M144.22,178.04c-0.91,0.77-1.78,1.31-2.62,1.63c-0.84,0.32-1.74,0.48-2.7,0.48 c-1.59,0-2.81-0.39-3.66-1.16c-0.85-0.78-1.28-1.77-1.28-2.97c0-0.71,0.16-1.35,0.48-1.94s0.74-1.05,1.26-1.41 c0.52-0.35,1.11-0.62,1.76-0.8c0.48-0.13,1.21-0.25,2.18-0.37c1.98-0.24,3.43-0.52,4.37-0.84c0.01-0.34,0.01-0.55,0.01-0.64 c0-1-0.23-1.7-0.69-2.11c-0.63-0.55-1.55-0.83-2.79-0.83c-1.15,0-2,0.2-2.55,0.61c-0.55,0.4-0.95,1.12-1.22,2.14l-2.39-0.33 c0.22-1.02,0.58-1.85,1.07-2.48c0.5-0.63,1.22-1.12,2.16-1.46c0.94-0.34,2.04-0.51,3.28-0.51c1.23,0,2.23,0.15,3.01,0.44 c0.77,0.29,1.34,0.65,1.7,1.09c0.36,0.44,0.62,1,0.76,1.67c0.08,0.42,0.12,1.17,0.12,2.26v3.26c0,2.28,0.05,3.71,0.16,4.32 c0.1,0.6,0.31,1.18,0.62,1.73h-2.56C144.46,179.32,144.3,178.72,144.22,178.04z M144.02,172.58c-0.89,0.36-2.22,0.67-4,0.92 c-1.01,0.14-1.72,0.31-2.14,0.49c-0.42,0.18-0.74,0.45-0.97,0.8c-0.23,0.35-0.34,0.74-0.34,1.16c0,0.65,0.25,1.2,0.74,1.63 c0.49,0.44,1.22,0.65,2.17,0.65c0.94,0,1.78-0.21,2.52-0.62c0.73-0.41,1.27-0.98,1.62-1.69c0.26-0.55,0.39-1.37,0.39-2.45 V172.58z"></path> </g> </g> <g> <g> <path class="st24" d="M150.26,179.82v-14.44h2.2v2.19c0.56-1.02,1.08-1.7,1.56-2.03c0.48-0.33,1-0.49,1.57-0.49 c0.83,0,1.66,0.26,2.52,0.79l-0.84,2.27c-0.6-0.35-1.2-0.53-1.8-0.53c-0.53,0-1.02,0.16-1.44,0.48 c-0.43,0.32-0.73,0.77-0.91,1.34c-0.27,0.87-0.41,1.82-0.41,2.86v7.56H150.26z"></path> </g> </g> <g> <g> <path class="st24" d="M164.91,177.63l0.35,2.16c-0.69,0.14-1.31,0.22-1.85,0.22c-0.89,0-1.58-0.14-2.07-0.42 c-0.49-0.28-0.83-0.65-1.03-1.11c-0.2-0.46-0.3-1.42-0.3-2.89v-8.31h-1.79v-1.9h1.79v-3.58l2.43-1.47v5.05h2.46v1.9h-2.46v8.45 c0,0.7,0.04,1.15,0.13,1.35c0.09,0.2,0.23,0.36,0.42,0.48c0.19,0.12,0.47,0.18,0.84,0.18 C164.11,177.73,164.46,177.7,164.91,177.63z"></path> </g> </g> <g> <g> <path class="st24" d="M167.3,179.82v-14.44h2.2v2.05c1.06-1.59,2.59-2.38,4.6-2.38c0.87,0,1.67,0.16,2.4,0.47 c0.73,0.31,1.28,0.72,1.64,1.23c0.36,0.51,0.62,1.11,0.76,1.81c0.09,0.45,0.14,1.25,0.14,2.38v8.88h-2.45v-8.78 c0-1-0.1-1.74-0.29-2.24c-0.19-0.49-0.53-0.89-1.01-1.18c-0.49-0.29-1.05-0.44-1.71-0.44c-1.04,0-1.94,0.33-2.7,0.99 s-1.14,1.92-1.14,3.77v7.89H167.3z"></path> </g> </g> <g> <g> <path class="st24" d="M192.68,175.17l2.53,0.31c-0.4,1.48-1.14,2.62-2.22,3.44c-1.08,0.82-2.46,1.22-4.13,1.22 c-2.11,0-3.79-0.65-5.03-1.95c-1.24-1.3-1.86-3.12-1.86-5.47c0-2.43,0.63-4.31,1.88-5.66c1.25-1.34,2.87-2.01,4.87-2.01 c1.93,0,3.51,0.66,4.73,1.97c1.22,1.31,1.84,3.16,1.84,5.55c0,0.15,0,0.36-0.01,0.65h-10.77c0.09,1.59,0.54,2.8,1.35,3.64 c0.81,0.84,1.81,1.27,3.02,1.27c0.9,0,1.66-0.24,2.3-0.71C191.8,176.96,192.31,176.21,192.68,175.17z M184.64,171.21h8.06 c-0.11-1.21-0.42-2.13-0.92-2.73c-0.78-0.94-1.79-1.41-3.03-1.41c-1.12,0-2.07,0.38-2.84,1.13 C185.15,168.95,184.72,169.96,184.64,171.21z"></path> </g> </g> <g> <g> <path class="st24" d="M198.25,179.82v-14.44h2.2v2.19c0.56-1.02,1.08-1.7,1.56-2.03c0.48-0.33,1-0.49,1.57-0.49 c0.83,0,1.66,0.26,2.52,0.79l-0.84,2.27c-0.6-0.35-1.2-0.53-1.8-0.53c-0.53,0-1.02,0.16-1.44,0.48 c-0.43,0.32-0.73,0.77-0.91,1.34c-0.27,0.87-0.41,1.82-0.41,2.86v7.56H198.25z"></path> </g> </g> </g> <g> <path class="st25" d="M108.16,245.92l-1.16-0.67L2.41,184.87V62.77l1.16-0.67L108.15,1.72l0.8,0.46L213.9,62.77v122.1 L108.16,245.92z M4.41,183.71l103.74,59.9l103.74-59.9V63.92L108.16,4.03L4.41,63.92V183.71z"></path> </g> <g> <g> <path class="st25" d="M165.49,202.09H53.92c-1.58,0-2.86-1.28-2.86-2.86v-1.13c0-1.58,1.28-2.86,2.86-2.86h111.57 c1.58,0,2.86,1.28,2.86,2.86v1.13C168.34,200.81,167.07,202.09,165.49,202.09z"></path> </g> </g> <g> <path class="st26" d="M23.05,126.14H19.5v-3.03h3.54v-2.68c0-2.08,0.61-3.71,1.84-4.91c1.22-1.2,2.92-1.8,5.08-1.8 c0.91,0,1.77,0.14,2.58,0.43c0.81,0.29,1.47,0.69,1.99,1.21l-1.54,2.6c-0.71-0.63-1.59-0.95-2.65-0.95 c-0.94,0-1.69,0.32-2.24,0.97c-0.56,0.65-0.83,1.54-0.83,2.66v2.47h6.06v3.03h-6.06v18.6h-4.23V126.14z M43.41,145.17 c-3.27,0-5.85-1-7.73-3.01c-1.88-2-2.82-4.75-2.82-8.24c0-3.49,0.94-6.24,2.82-8.24c1.88-2,4.46-3.01,7.73-3.01 c3.27,0,5.86,1,7.75,3.01s2.84,4.75,2.84,8.24c0,3.49-0.95,6.24-2.84,8.24S46.68,145.17,43.41,145.17z M43.41,141.92 c1.96,0,3.52-0.71,4.66-2.14c1.14-1.43,1.71-3.38,1.71-5.86c0-2.48-0.57-4.43-1.71-5.86c-1.14-1.43-2.69-2.14-4.66-2.14 c-1.99,0-3.54,0.71-4.66,2.14c-1.11,1.43-1.67,3.38-1.67,5.86c0,2.48,0.56,4.43,1.67,5.86C39.86,141.21,41.42,141.92,43.41,141.92 z M57.32,128.38c0-2.45-0.04-4.21-0.13-5.28h3.97c0.11,1.15,0.17,2.42,0.17,3.81v0.43h0.13c0.57-1.47,1.47-2.62,2.71-3.44 c1.24-0.82,2.7-1.23,4.38-1.23c0.46,0,0.87,0.04,1.24,0.13v3.46c-0.2-0.06-0.64-0.09-1.32-0.09c-1.25,0-2.41,0.37-3.48,1.1 c-1.07,0.74-1.91,1.73-2.52,2.98s-0.92,2.63-0.92,4.13v10.34h-4.23V128.38z M71.87,128.64c0-2.19-0.07-4.04-0.21-5.54h3.76 c0.11,1.07,0.17,2.34,0.17,3.81h0.13c0.54-1.3,1.42-2.33,2.63-3.09c1.21-0.76,2.58-1.15,4.12-1.15c1.51,0,2.8,0.37,3.89,1.1 c1.08,0.74,1.81,1.77,2.18,3.09c0.6-1.3,1.5-2.32,2.71-3.07c1.21-0.75,2.57-1.12,4.08-1.12c2.36,0,4.21,0.77,5.53,2.31 c1.32,1.54,1.99,3.67,1.99,6.38v13.37h-4.23v-12.98c0-1.79-0.38-3.17-1.13-4.15c-0.75-0.98-1.83-1.47-3.22-1.47 c-1.42,0-2.58,0.53-3.48,1.58c-0.9,1.05-1.35,2.42-1.35,4.09v12.93h-4.19v-12.8c0-3.86-1.4-5.8-4.19-5.8 c-0.91,0-1.74,0.26-2.5,0.78c-0.75,0.52-1.36,1.23-1.82,2.12c-0.46,0.89-0.68,1.86-0.68,2.9v12.8h-4.19V128.64z M113.25,145.17 c-1.68,0-3.19-0.35-4.53-1.04s-2.28-1.61-2.82-2.77l2.69-1.86c0.48,0.75,1.14,1.34,1.96,1.77c0.83,0.43,1.72,0.65,2.69,0.65 c1.11,0,2.03-0.32,2.75-0.95c0.73-0.63,1.09-1.44,1.09-2.42c0-0.78-0.28-1.42-0.85-1.92c-0.57-0.5-1.62-1.05-3.16-1.62 c-2.48-0.95-4.22-1.92-5.23-2.92c-1.01-0.99-1.52-2.23-1.52-3.7c0-1.73,0.68-3.11,2.03-4.15c1.35-1.04,3.15-1.56,5.4-1.56 c1.45,0,2.78,0.3,3.97,0.91c1.2,0.61,2.14,1.46,2.82,2.55l-2.52,1.9c-0.48-0.69-1.09-1.22-1.82-1.58 c-0.73-0.36-1.53-0.54-2.41-0.54c-0.97,0-1.76,0.22-2.37,0.65c-0.61,0.43-0.92,0.99-0.92,1.69c0,0.72,0.31,1.32,0.94,1.8 c0.63,0.48,1.85,1.07,3.67,1.8c2.28,0.89,3.88,1.82,4.8,2.79c0.93,0.97,1.39,2.21,1.39,3.74c0,2.05-0.74,3.69-2.22,4.93 C117.62,144.55,115.67,145.17,113.25,145.17z M132.5,145.17c-1.99,0-3.55-0.61-4.68-1.84c-1.12-1.23-1.69-2.92-1.69-5.08v-11.85 h-3.84v-3.29h3.84v-5.51h4.23v5.51h6.11v3.29h-6.11v11.33c0,1.41,0.28,2.45,0.83,3.11c0.56,0.66,1.4,0.99,2.54,0.99 c1.14,0,2.15-0.17,3.03-0.52l0.26,3.07C135.97,144.91,134.46,145.17,132.5,145.17z M146.5,145.17c-1.4,0-2.64-0.29-3.74-0.87 c-1.1-0.58-1.95-1.38-2.56-2.4c-0.61-1.02-0.92-2.18-0.92-3.48c0-2.19,0.83-3.87,2.48-5.04s4-1.75,7.05-1.75h4.01v-1.08 c0-1.44-0.38-2.55-1.15-3.33c-0.77-0.78-1.89-1.17-3.37-1.17c-1.28,0-2.48,0.25-3.59,0.76c-1.11,0.5-2.02,1.23-2.73,2.18 l-2.01-2.55c1.02-1.21,2.27-2.14,3.74-2.79c1.47-0.65,3.05-0.97,4.76-0.97c2.73,0,4.85,0.67,6.36,2.01 c1.51,1.34,2.26,3.24,2.26,5.69v10.04c0,1.3,0.17,2.74,0.51,4.33h-3.72c-0.28-0.69-0.48-1.66-0.6-2.9h-0.09 C151.58,144.06,149.34,145.17,146.5,145.17z M147.31,141.84c1.54,0,2.84-0.43,3.91-1.28c1.07-0.85,1.6-1.88,1.6-3.09v-2.85h-4.19 c-1.68,0-2.97,0.32-3.86,0.97c-0.9,0.65-1.35,1.59-1.35,2.83c0,1.07,0.35,1.9,1.05,2.51 C145.17,141.53,146.11,141.84,147.31,141.84z M170.62,145.17c-3.22,0-5.72-0.99-7.52-2.98c-1.79-1.99-2.69-4.74-2.69-8.26 c0-3.55,0.9-6.31,2.69-8.28c1.79-1.98,4.3-2.96,7.52-2.96c1.85,0,3.48,0.36,4.89,1.08s2.51,1.76,3.31,3.11l-2.52,2.29 c-0.6-0.98-1.38-1.74-2.35-2.29c-0.97-0.55-2.02-0.82-3.16-0.82c-1.94,0-3.45,0.69-4.53,2.08c-1.08,1.38-1.62,3.32-1.62,5.8 c0,2.45,0.54,4.38,1.62,5.77c1.08,1.4,2.59,2.1,4.53,2.1c1.14,0,2.19-0.27,3.16-0.82c0.97-0.55,1.75-1.31,2.35-2.29l2.52,2.29 c-0.8,1.36-1.9,2.39-3.31,3.11S172.47,145.17,170.62,145.17z M195.12,144.73l-6.79-10.6l-2.95,2.94v7.66h-4.27v-31.08h4.27v18.28 l8.71-8.82h5.17l-8.07,8.13l8.71,13.5H195.12z"></path> </g> <g id="Rectangle"> <g> <path class="st27" d="M130.65,45.1h4.19c0.99,0,1.8,0.8,1.8,1.8v44.29c0,0.99-0.8,1.8-1.8,1.8h-4.19l0,0V45.1z"></path> </g> </g> <g id="Rectangle_1_"> <g> <path class="st27" d="M139.63,51.09h4.19c0.99,0,1.8,0.8,1.8,1.8V85.2c0,0.99-0.8,1.8-1.8,1.8h-4.19l0,0V51.09z"></path> </g> </g> <g id="Rectangle_2_"> <g> <path class="st27" d="M75.59,39.12h50.27c0.99,0,1.8,0.8,1.8,1.8v56.26c0,0.99-0.8,1.8-1.8,1.8H75.59c-0.99,0-1.8-0.8-1.8-1.8 V40.91C73.79,39.92,74.6,39.12,75.59,39.12z"></path> </g> </g> <g id="F-Shape" transform="translate(20.000000, 16.000000)"> <g id="Triangle"> <g> <path class="st23" d="M66.36,32.69h27.62c0.33,0,0.6,0.27,0.6,0.6c0,0.18-0.08,0.35-0.22,0.47l-27.62,22.1 c-0.26,0.21-0.63,0.16-0.84-0.09c-0.08-0.11-0.13-0.24-0.13-0.37v-22.1C65.76,32.96,66.03,32.69,66.36,32.69z"></path> </g> </g> <g id="Path-3"> <g> <path class="st23" d="M65.76,68.63v-9.27c0-0.18,0.08-0.36,0.23-0.47l8.05-6.32c0.11-0.08,0.24-0.13,0.37-0.13h14.63 c0.33,0,0.6,0.27,0.6,0.6c0,0.2-0.1,0.38-0.26,0.49L66.7,69.12c-0.27,0.19-0.65,0.12-0.83-0.15 C65.8,68.87,65.76,68.75,65.76,68.63z"></path> </g> </g> <g id="Path-2"> <g> <path class="st23" d="M66.02,72.11l8.38-5.84c0.27-0.19,0.64-0.12,0.83,0.15c0.07,0.1,0.11,0.22,0.11,0.34v6.08 c0,0.33-0.27,0.6-0.6,0.6h-8.4c-0.32,0-0.58-0.26-0.58-0.58V72.6C65.76,72.4,65.86,72.22,66.02,72.11z"></path> </g> </g> </g> </g> </svg> 