<?xml version="1.0" encoding="UTF-8"?> <svg xmlns="http://www.w3.org/2000/svg" xmlns:xlink="http://www.w3.org/1999/xlink" viewBox="0 0 288.95 291.89"><defs><style>.cls-1,.cls-43{fill:#adc5e5;}.cls-1{fill-opacity:0;}.cls-2{fill:#abc4e4;opacity:0.02;}.cls-10,.cls-11,.cls-12,.cls-13,.cls-14,.cls-15,.cls-16,.cls-17,.cls-18,.cls-19,.cls-2,.cls-20,.cls-21,.cls-22,.cls-23,.cls-24,.cls-25,.cls-26,.cls-27,.cls-28,.cls-29,.cls-3,.cls-30,.cls-31,.cls-32,.cls-33,.cls-34,.cls-35,.cls-36,.cls-37,.cls-38,.cls-39,.cls-4,.cls-40,.cls-41,.cls-5,.cls-50,.cls-55,.cls-58,.cls-59,.cls-6,.cls-7,.cls-8,.cls-9{isolation:isolate;}.cls-3{fill:#a9c2e3;opacity:0.05;}.cls-4{fill:#a7c1e3;opacity:0.07;}.cls-5{fill:#a5bfe2;opacity:0.1;}.cls-6{fill:#a3bee1;opacity:0.12;}.cls-7{fill:#a1bde1;opacity:0.15;}.cls-8{fill:#9fbbe0;opacity:0.17;}.cls-9{fill:#9dbadf;opacity:0.2;}.cls-10{fill:#9bb8df;opacity:0.22;}.cls-11{fill:#99b7de;opacity:0.24;}.cls-12{fill:#97b5de;opacity:0.27;}.cls-13{fill:#95b4dd;opacity:0.29;}.cls-14{fill:#93b3dc;opacity:0.32;}.cls-15{fill:#91b1dc;opacity:0.34;}.cls-16{fill:#8fb0db;opacity:0.37;}.cls-17{fill:#8daeda;opacity:0.39;}.cls-18{fill:#8badda;opacity:0.41;}.cls-19{fill:#89acd9;opacity:0.44;}.cls-20{fill:#87aad8;opacity:0.46;}.cls-21{fill:#85a9d8;opacity:0.49;}.cls-22{fill:#83a7d7;opacity:0.51;}.cls-23{fill:#81a6d6;opacity:0.54;}.cls-24{fill:#7fa4d6;opacity:0.56;}.cls-25{fill:#7da3d5;opacity:0.59;}.cls-26{fill:#7ba2d4;opacity:0.61;}.cls-27{fill:#79a0d4;opacity:0.63;}.cls-28{fill:#779fd3;opacity:0.66;}.cls-29{fill:#759dd3;opacity:0.68;}.cls-30{fill:#739cd2;opacity:0.71;}.cls-31{fill:#719bd1;opacity:0.73;}.cls-32{fill:#6f99d1;opacity:0.76;}.cls-33{fill:#6d98d0;opacity:0.78;}.cls-34{fill:#6b96cf;opacity:0.8;}.cls-35{fill:#6995cf;opacity:0.83;}.cls-36{fill:#6793ce;opacity:0.85;}.cls-37{fill:#6592cd;opacity:0.88;}.cls-38{fill:#6391cd;opacity:0.9;}.cls-39{fill:#618fcc;opacity:0.93;}.cls-40{fill:#5f8ecb;opacity:0.95;}.cls-41{fill:#5d8ccb;opacity:0.98;}.cls-42{fill:#5b8bca;}.cls-44{fill:#f0f4fc;}.cls-45{fill:url(#linear-gradient);}.cls-46{fill:url(#linear-gradient-2);}.cls-47{fill:#48486a;}.cls-48{fill:#fff;}.cls-49{fill:#326ebd;}.cls-50{fill:#26538e;}.cls-50,.cls-55{opacity:0.3;}.cls-51{opacity:0.6;}.cls-52,.cls-58{fill:#feb423;}.cls-53{fill:#e7ad99;}.cls-54{fill:#fc7318;}.cls-55{fill:#231f20;}.cls-56{fill:#e9eefb;}.cls-57{fill:#f8f9fe;}.cls-58,.cls-59{opacity:0.85;}.cls-59{fill:#fed27b;}</style><linearGradient id="linear-gradient" x1="115.99" y1="361.15" x2="92.71" y2="321.14" gradientTransform="matrix(1, 0, 0, -1, 0, 532.48)" gradientUnits="userSpaceOnUse"><stop offset="0" stop-color="#d6e2f2"></stop><stop offset="1" stop-color="#fff"></stop></linearGradient><linearGradient id="linear-gradient-2" x1="100.28" y1="397.2" x2="77.15" y2="357.46" xlink:href="#linear-gradient"></linearGradient></defs><g id="Layer_2" data-name="Layer 2"><g id="Layer_1-2" data-name="Layer 1"><path class="cls-1" d="M131.77,126.43,8.06,197.85a12.11,12.11,0,0,0,.12,21.05L132,288.62a25.39,25.39,0,0,0,24.93,0L280.78,218.9a12.11,12.11,0,0,0,.11-21.05L157.18,126.43A25.41,25.41,0,0,0,131.77,126.43Z"></path><path class="cls-2" d="M131.92,126.39,9.7,197a12,12,0,0,0,.11,20.81l122.35,68.88a25.07,25.07,0,0,0,24.63,0l122.36-68.88a12,12,0,0,0,.11-20.81L157,126.39A25.09,25.09,0,0,0,131.92,126.39Z"></path><path class="cls-3" d="M132.07,126.34,11.33,196.06a11.82,11.82,0,0,0,.11,20.55l120.87,68.05a24.81,24.81,0,0,0,24.33,0l120.87-68.05a11.82,11.82,0,0,0,.11-20.55L156.88,126.34A24.82,24.82,0,0,0,132.07,126.34Z"></path><path class="cls-4" d="M132.23,126.3,13,195.16a11.68,11.68,0,0,0,.11,20.3l119.39,67.22a24.51,24.51,0,0,0,24,0l119.38-67.22a11.68,11.68,0,0,0,.11-20.3L156.73,126.3A24.53,24.53,0,0,0,132.23,126.3Z"></path><path class="cls-5" d="M132.38,126.26l-117.79,68a11.53,11.53,0,0,0,.11,20L132.61,280.7a24.24,24.24,0,0,0,23.74,0l117.9-66.39a11.53,11.53,0,0,0,.11-20l-117.79-68A24.2,24.2,0,0,0,132.38,126.26Z"></path><path class="cls-6" d="M132.53,126.22,16.23,193.37a11.4,11.4,0,0,0,.1,19.8l116.43,65.54a23.87,23.87,0,0,0,23.44,0l116.42-65.54a11.4,11.4,0,0,0,.11-19.8L156.42,126.22A23.93,23.93,0,0,0,132.53,126.22Z"></path><path class="cls-7" d="M132.68,126.18,17.86,192.48A11.25,11.25,0,0,0,18,212l115,64.71a23.55,23.55,0,0,0,23.14,0L271,212a11.25,11.25,0,0,0,.11-19.54l-114.83-66.3A23.61,23.61,0,0,0,132.68,126.18Z"></path><path class="cls-8" d="M132.84,126.14,19.49,191.58a11.1,11.1,0,0,0,.1,19.29l113.46,63.88a23.31,23.31,0,0,0,22.85,0l113.46-63.88a11.1,11.1,0,0,0,.1-19.29L156.12,126.14A23.27,23.27,0,0,0,132.84,126.14Z"></path><path class="cls-9" d="M133,126.1,21.12,190.69a11,11,0,0,0,.11,19l112,63a23,23,0,0,0,22.55,0l112-63a11,11,0,0,0,.1-19L156,126.1A23,23,0,0,0,133,126.1Z"></path><path class="cls-10" d="M133.14,126.06,22.76,189.79a10.81,10.81,0,0,0,.1,18.79l110.49,62.21a22.67,22.67,0,0,0,22.25,0l110.5-62.21a10.82,10.82,0,0,0,.1-18.79L155.81,126.06A22.67,22.67,0,0,0,133.14,126.06Z"></path><path class="cls-11" d="M133.29,126,24.39,188.89a10.67,10.67,0,0,0,.1,18.54l109,61.38a22.4,22.4,0,0,0,21.95,0l109-61.38a10.68,10.68,0,0,0,.1-18.54L155.66,126A22.35,22.35,0,0,0,133.29,126Z"></path><path class="cls-12" d="M133.44,126,26,188a10.52,10.52,0,0,0,.1,18.28l107.53,60.54a22,22,0,0,0,21.65,0l107.53-60.54a10.52,10.52,0,0,0,.1-18.28L155.51,126A22.08,22.08,0,0,0,133.44,126Z"></path><path class="cls-13" d="M133.6,125.94,27.65,187.1a10.38,10.38,0,0,0,.1,18l106.05,59.7a21.77,21.77,0,0,0,21.35,0l106-59.7a10.38,10.38,0,0,0,.1-18L155.36,125.94A21.75,21.75,0,0,0,133.6,125.94Z"></path><path class="cls-14" d="M133.75,125.9,29.28,186.21a10.23,10.23,0,0,0,.1,17.78L134,262.86a21.45,21.45,0,0,0,21.05,0L259.57,204a10.23,10.23,0,0,0,.1-17.78L155.21,125.9A21.43,21.43,0,0,0,133.75,125.9Z"></path><path class="cls-15" d="M133.9,125.86l-103,59.45A10.09,10.09,0,0,0,31,202.84l103.09,58a21.13,21.13,0,0,0,20.75,0l103.09-58a10.09,10.09,0,0,0,.1-17.53l-103-59.45A21.14,21.14,0,0,0,133.9,125.86Z"></path><path class="cls-16" d="M134.05,125.81,32.55,184.42a9.94,9.94,0,0,0,.09,17.27L134.25,258.9a20.88,20.88,0,0,0,20.46,0l101.6-57.21a9.94,9.94,0,0,0,.09-17.27L154.9,125.81A20.87,20.87,0,0,0,134.05,125.81Z"></path><path class="cls-17" d="M134.2,125.77l-100,57.75a9.81,9.81,0,0,0,.09,17L134.4,256.92a20.56,20.56,0,0,0,20.16,0l100.12-56.37a9.8,9.8,0,0,0,.09-17l-100-57.75A20.55,20.55,0,0,0,134.2,125.77Z"></path><path class="cls-18" d="M134.36,125.73l-98.55,56.9a9.66,9.66,0,0,0,.09,16.77l98.65,55.53a20.25,20.25,0,0,0,19.86,0l98.64-55.53a9.66,9.66,0,0,0,.09-16.77l-98.54-56.9A20.27,20.27,0,0,0,134.36,125.73Z"></path><path class="cls-19" d="M134.51,125.69l-97.06,56a9.51,9.51,0,0,0,.09,16.52L134.69,253a20,20,0,0,0,19.57,0l97.16-54.7a9.51,9.51,0,0,0,.09-16.52l-97.07-56A19.93,19.93,0,0,0,134.51,125.69Z"></path><path class="cls-20" d="M134.66,125.65,39.08,180.84a9.36,9.36,0,0,0,.09,16.26L134.84,251a19.63,19.63,0,0,0,19.27,0l95.68-53.87a9.35,9.35,0,0,0,.08-16.26l-95.58-55.19A19.61,19.61,0,0,0,134.66,125.65Z"></path><path class="cls-21" d="M134.81,125.61l-94.1,54.33a9.22,9.22,0,0,0,.09,16L135,249a19.36,19.36,0,0,0,19,0l94.2-53a9.22,9.22,0,0,0,.08-16l-94.1-54.33A19.34,19.34,0,0,0,134.81,125.61Z"></path><path class="cls-22" d="M135,125.57,42.34,179.05a9.07,9.07,0,0,0,.09,15.76L135.14,247a19,19,0,0,0,18.67,0l92.71-52.2a9.07,9.07,0,0,0,.09-15.76L154,125.57A19,19,0,0,0,135,125.57Z"></path><path class="cls-23" d="M135.12,125.53,44,178.15a8.92,8.92,0,0,0,.08,15.51L135.29,245a18.72,18.72,0,0,0,18.37,0l91.23-51.37a8.93,8.93,0,0,0,.09-15.51l-91.14-52.62A18.74,18.74,0,0,0,135.12,125.53Z"></path><path class="cls-24" d="M135.27,125.49,45.61,177.25a8.79,8.79,0,0,0,.08,15.27L135.44,243a18.41,18.41,0,0,0,18.07,0l89.75-50.52a8.79,8.79,0,0,0,.08-15.27l-89.66-51.76A18.4,18.4,0,0,0,135.27,125.49Z"></path><path class="cls-25" d="M135.42,125.45,47.24,176.36a8.64,8.64,0,0,0,.08,15l88.27,49.69a18.09,18.09,0,0,0,17.77,0l88.27-49.69a8.64,8.64,0,0,0,.08-15l-88.18-50.91A18.09,18.09,0,0,0,135.42,125.45Z"></path><path class="cls-26" d="M135.57,125.41l-86.7,50.05A8.5,8.5,0,0,0,49,190.22l86.79,48.86a17.77,17.77,0,0,0,17.47,0L240,190.22a8.5,8.5,0,0,0,.08-14.76l-86.7-50.05A17.82,17.82,0,0,0,135.57,125.41Z"></path><path class="cls-27" d="M135.72,125.37l-85.21,49.2a8.34,8.34,0,0,0,.07,14.5l85.31,48a17.5,17.5,0,0,0,17.17,0l85.31-48a8.35,8.35,0,0,0,.08-14.5l-85.22-49.2A17.5,17.5,0,0,0,135.72,125.37Z"></path><path class="cls-28" d="M135.88,125.33,52.14,173.67a8.21,8.21,0,0,0,.07,14.26L136,235.12a17.19,17.19,0,0,0,16.87,0l83.83-47.19a8.21,8.21,0,0,0,.08-14.26l-83.74-48.34A17.16,17.16,0,0,0,135.88,125.33Z"></path><path class="cls-29" d="M136,125.29,53.77,172.78a8.06,8.06,0,0,0,.08,14l82.34,46.36a16.94,16.94,0,0,0,16.58,0l82.34-46.36a8.06,8.06,0,0,0,.07-14l-82.25-47.49A16.89,16.89,0,0,0,136,125.29Z"></path><path class="cls-30" d="M136.18,125.24,55.4,171.88a7.91,7.91,0,0,0,.08,13.75l80.86,45.52a16.57,16.57,0,0,0,16.28,0l80.86-45.52a7.91,7.91,0,0,0,.07-13.75l-80.78-46.64A16.61,16.61,0,0,0,136.18,125.24Z"></path><path class="cls-31" d="M136.33,125.2,57,171a7.76,7.76,0,0,0,.07,13.49l79.38,44.69a16.25,16.25,0,0,0,16,0l79.37-44.69a7.76,7.76,0,0,0,.08-13.49l-79.3-45.79A16.29,16.29,0,0,0,136.33,125.2Z"></path><path class="cls-32" d="M136.48,125.16,58.67,170.09a7.62,7.62,0,0,0,.07,13.25l77.9,43.85a16,16,0,0,0,15.68,0l77.9-43.85a7.63,7.63,0,0,0,.07-13.25l-77.82-44.93A16,16,0,0,0,136.48,125.16Z"></path><path class="cls-33" d="M136.64,125.12,60.3,169.2a7.47,7.47,0,0,0,.07,13l76.41,43a15.68,15.68,0,0,0,15.39,0l76.41-43a7.47,7.47,0,0,0,.07-13l-76.33-44.08A15.68,15.68,0,0,0,136.64,125.12Z"></path><path class="cls-34" d="M136.79,125.08,61.93,168.3A7.33,7.33,0,0,0,62,181l74.93,42.19a15.37,15.37,0,0,0,15.09,0L227,181A7.33,7.33,0,0,0,227,168.3l-74.85-43.22A15.37,15.37,0,0,0,136.79,125.08Z"></path><path class="cls-35" d="M136.94,125,63.56,167.4a7.19,7.19,0,0,0,.07,12.49l73.45,41.36a15.1,15.1,0,0,0,14.79,0l73.45-41.36a7.19,7.19,0,0,0,.07-12.49L152,125A15.08,15.08,0,0,0,136.94,125Z"></path><path class="cls-36" d="M137.09,125,65.2,166.51a7,7,0,0,0,.06,12.24l72,40.52a14.78,14.78,0,0,0,14.49,0l72-40.52a7,7,0,0,0,.07-12.24L151.86,125A14.76,14.76,0,0,0,137.09,125Z"></path><path class="cls-37" d="M137.24,125,66.83,165.61a6.9,6.9,0,0,0,.06,12l70.49,39.68a14.46,14.46,0,0,0,14.19,0l70.49-39.68a6.9,6.9,0,0,0,.06-12L151.71,125A14.49,14.49,0,0,0,137.24,125Z"></path><path class="cls-38" d="M137.4,124.92l-68.94,39.8a6.75,6.75,0,0,0,.07,11.73l69,38.85a14.14,14.14,0,0,0,13.89,0l69-38.85a6.75,6.75,0,0,0,.06-11.73l-68.93-39.8A14.16,14.16,0,0,0,137.4,124.92Z"></path><path class="cls-39" d="M137.55,124.88,70.09,163.82a6.6,6.6,0,0,0,.07,11.48l67.52,38a13.83,13.83,0,0,0,13.59,0l67.53-38a6.61,6.61,0,0,0,.06-11.48L151.4,124.88A13.82,13.82,0,0,0,137.55,124.88Z"></path><path class="cls-40" d="M137.7,124.84l-66,38.09a6.46,6.46,0,0,0,.06,11.23l66,37.18a13.58,13.58,0,0,0,13.3,0l66-37.18a6.47,6.47,0,0,0,.06-11.23l-66-38.09A13.55,13.55,0,0,0,137.7,124.84Z"></path><path class="cls-41" d="M137.85,124.8,73.36,162a6.32,6.32,0,0,0,.06,11L138,209.36a13.26,13.26,0,0,0,13,0L215.54,173a6.33,6.33,0,0,0,.06-11L151.1,124.8A13.23,13.23,0,0,0,137.85,124.8Z"></path><path class="cls-42" d="M138,124.76,75,161.14a6.17,6.17,0,0,0,.06,10.72l63.08,35.52a12.94,12.94,0,0,0,12.7,0l63.07-35.52a6.17,6.17,0,0,0,.06-10.72l-63-36.38A12.92,12.92,0,0,0,138,124.76Z"></path><path class="cls-43" d="M131.59,93.8,0,153.16v12a14.29,14.29,0,0,0,7.22,12.41l124.62,70.89a25.76,25.76,0,0,0,25.28,0l124.25-70A14.27,14.27,0,0,0,288.64,166V155.73L157.36,93.8A25.79,25.79,0,0,0,131.59,93.8Z"></path><path class="cls-44" d="M131.59,70,6.15,142.39a12.29,12.29,0,0,0,.11,21.35l125.58,70.7a25.76,25.76,0,0,0,25.28,0l125.57-70.7a12.29,12.29,0,0,0,.12-21.35L157.36,70A25.76,25.76,0,0,0,131.59,70Z"></path><polygon class="cls-45" points="57.29 192.47 104.23 164.86 150.75 191.35 103.53 218.51 57.29 192.47"></polygon><polygon class="cls-46" points="58.27 165.54 105.21 137.93 118.37 146.11 71.16 173.27 58.27 165.54"></polygon><path class="cls-47" d="M116,142.53s.81,7.51,2.16,8.55a5.51,5.51,0,0,0,6,1.75,1.78,1.78,0,0,0,1.27-1.88,5,5,0,0,0-.44-1.43s-3.33-5.72-3.12-8.42Z"></path><path class="cls-48" d="M125.38,150.74a1.77,1.77,0,0,1-1.23,1.27,5.49,5.49,0,0,1-6-1.75c-1.08-.83-1.82-5.8-2.07-7.75l-.09,0s.81,7.5,2.16,8.54a5.49,5.49,0,0,0,6,1.75,1.76,1.76,0,0,0,1.27-1.87A1.55,1.55,0,0,0,125.38,150.74Z"></path><path class="cls-47" d="M134.81,134.13v2a2,2,0,0,0,1,1.72,8.47,8.47,0,0,0,3.88,1.17,3.42,3.42,0,0,1,1.72.54c1,.6,3,1.41,6.86,1.35a1.43,1.43,0,0,0,1.42-1.35,3,3,0,0,0-.26-1.38,1.93,1.93,0,0,0-1.08-1l-7.4-2.83Z"></path><path class="cls-48" d="M148.26,140.15c-3.85.06-5.89-.76-6.86-1.36a3.41,3.41,0,0,0-1.72-.53,8.47,8.47,0,0,1-3.88-1.17,2,2,0,0,1-1-1.72v.72a2,2,0,0,0,1,1.72,8.47,8.47,0,0,0,3.88,1.17,3.42,3.42,0,0,1,1.72.54c1,.59,3,1.41,6.86,1.35a1.43,1.43,0,0,0,1.42-1.35,3.17,3.17,0,0,0,0-.53A1.45,1.45,0,0,1,148.26,140.15Z"></path><path class="cls-49" d="M138.08,134.81H138c-2.16,0-3.25.68-3.21-1.47l-.2-23.56-3.39-23.7c.14-2.15,6.93-5.75,9.08-5.63s5-1.48,4.85.67l-2.75,29.05L141,133.47C141,135.6,140.2,134.81,138.08,134.81Z"></path><path class="cls-49" d="M118.87,143.56a3.53,3.53,0,0,1-.85-.1c-2.1-.47-3-1.31-2.48-3.41l5-22.75,1.4-18.21,1.61-9.41c.21-2.14,1.35-3.49,3.5-3.29s13.24-1.9,13,.24l-3.52,11.61-8.63,20.6-5.85,22.92C121.64,143.57,120.66,143.56,118.87,143.56Z"></path><path class="cls-50" d="M139.56,113.67,137.4,96.41l-3.54,8.2.74,5.17.2,23.56c0,1.93-.51,1.68,1.22,1.61Z"></path><g class="cls-51"><path class="cls-52" d="M143.51,86.12a20.25,20.25,0,0,1-1,7.25,29.06,29.06,0,0,0-1.12,3.5,16.42,16.42,0,0,0-.18,3.57q.13,7.09.34,14.19c.21-.43.42-.87.62-1.3l.19-3.16,2.26-23.8Z"></path></g><path class="cls-53" d="M160.76,84.55a2.81,2.81,0,0,1-.94-.16l-3-1.7-13.72-3.94L138.8,54.87a2.81,2.81,0,1,1,5.53-1L148,74.56l10.38,4.62,3.3.16a2.54,2.54,0,0,1,1.69,3.34A2.81,2.81,0,0,1,160.76,84.55Z"></path><path class="cls-48" d="M143.56,68.48A3,3,0,0,1,140.64,66l-2-11.14a3,3,0,1,1,5.83-1l2,11.14a3,3,0,0,1-2.4,3.44A3.05,3.05,0,0,1,143.56,68.48Z"></path><path class="cls-48" d="M126.34,55.91l9.52-5.55a6.13,6.13,0,0,1,9.22,5.28l.06,30.94c-2.55,6-17,9.74-22.66,6.5l2-7.62a29.82,29.82,0,0,0,.07-12.23l-2.11-10.39A8,8,0,0,1,126.34,55.91Z"></path><polygon class="cls-53" points="138.87 56.26 137.98 58.02 131.22 56.7 131.22 47.65 138.49 47.65 138.87 56.26"></polygon><path class="cls-54" d="M131.22,53.07l-2.71,1.47s1.83,6,7.05,6.44c0,0,.7-3.19,2.42-3C138,58,132.2,57,131.22,53.07Z"></path><path class="cls-54" d="M138,58s2.65-.62,3.58.86a27.47,27.47,0,0,0-2.64-6.08Z"></path><path class="cls-53" d="M142,42.52l-.78,9.85a2.66,2.66,0,0,1-1.08,1.92h0a2.72,2.72,0,0,1-2.76.26l-4-1.94a3.7,3.7,0,0,1-2.11-3.34V40.48h8.88A1.89,1.89,0,0,1,142,42.52Z"></path><path class="cls-47" d="M142.13,37.32c-2.3-.85-4.81.84-7.24.53a25.77,25.77,0,0,1-2.58-.68,3,3,0,0,0-2.55.36,3.92,3.92,0,0,0-1,1.55c-.31.72-.63,1.43-1,2.15a4.28,4.28,0,0,0-.52,2.94c.31,1,1.31,1.66,1.72,2.63a11,11,0,0,1,.38,2.24A2.54,2.54,0,0,0,131,50.87a.54.54,0,0,0,.57-.27,1.51,1.51,0,0,0,.14-.66c.05-1.31-.54-2.61.36-3.7a1,1,0,0,1,1.07-.45,1,1,0,0,1,.51.84c.14,1-.28,2.22.31,3.08.11.16.29.31.47.27a.5.5,0,0,0,.31-.34c.43-1.06-.08-2.24-.13-3.38s.5-3.28,2-2.85c.61.17,1.22,1,1.87,1.22a4.93,4.93,0,0,0,2.4.3,4.39,4.39,0,0,0,3.65-3.35A3.85,3.85,0,0,0,142.13,37.32Z"></path><polygon class="cls-55" points="138.55 54.81 135.96 53.96 138.18 56.88 138.55 54.81"></polygon><path class="cls-53" d="M143.21,93.41a3,3,0,0,1-.83-.12l-4.47-2.16-14.82-3.61A3,3,0,0,1,121,84.46l1.61-23.19a2.81,2.81,0,0,1,5.6.39l-1.46,21.11,13.91,5.36,3.44.14a2.43,2.43,0,0,1,1.81,3.16A2.8,2.8,0,0,1,143.21,93.41Z"></path><path class="cls-48" d="M124.71,74.31h-.21a3,3,0,0,1-2.75-3.16l.68-9.88a3,3,0,1,1,5.91.41l-.68,9.88A3,3,0,0,1,124.71,74.31Z"></path><path class="cls-53" d="M143.32,87.61l-4.26,1.1a.65.65,0,0,1-.79-.47h0a.64.64,0,0,1,.47-.78l4.25-1.1a.65.65,0,0,1,.79.46h0A.65.65,0,0,1,143.32,87.61Z"></path><path class="cls-53" d="M156.34,81.57l2.83,3.37a.64.64,0,0,1-.08.91h0a.65.65,0,0,1-.91-.08l-2.83-3.37a.65.65,0,0,1,.08-.91h0A.65.65,0,0,1,156.34,81.57Z"></path><path class="cls-53" d="M148,90.12l-4.36-.54a.64.64,0,0,1-.56-.72h0a.63.63,0,0,1,.72-.56l4.36.54a.64.64,0,0,1,.56.72h0A.63.63,0,0,1,148,90.12Z"></path><path class="cls-53" d="M161.76,85.41,158.07,83a.66.66,0,0,1-.19-.9h0a.65.65,0,0,1,.89-.19l3.69,2.4a.64.64,0,0,1,.19.89h0A.64.64,0,0,1,161.76,85.41Z"></path><path class="cls-53" d="M162.42,87.19l-.78-2a.64.64,0,0,1,.36-.84h0a.65.65,0,0,1,.84.36l.78,2a.65.65,0,0,1-.37.84h0A.64.64,0,0,1,162.42,87.19Z"></path><path class="cls-53" d="M163.53,84.72l-3.45-2.53a.64.64,0,0,1-.14-.9h0a.63.63,0,0,1,.9-.14l3.46,2.53a.64.64,0,0,1,.13.9h0A.64.64,0,0,1,163.53,84.72Z"></path><path class="cls-53" d="M164,86.5l-.66-2a.65.65,0,0,1,.41-.82h0a.65.65,0,0,1,.82.41l.66,2a.65.65,0,0,1-.41.82h0A.65.65,0,0,1,164,86.5Z"></path><path class="cls-53" d="M164.61,83.42,160.92,81a.64.64,0,0,1-.19-.89h0a.64.64,0,0,1,.89-.19l3.69,2.39a.65.65,0,0,1,.19.9h0A.64.64,0,0,1,164.61,83.42Z"></path><path class="cls-53" d="M164.08,81.9l-2.71-1.32a.65.65,0,0,1-.29-.87h0a.63.63,0,0,1,.86-.29l2.7,1.32a.63.63,0,0,1,.3.86h0A.65.65,0,0,1,164.08,81.9Z"></path><path class="cls-53" d="M165.26,85.2l-.78-2a.65.65,0,0,1,.37-.84h0a.65.65,0,0,1,.84.36l.78,2a.65.65,0,0,1-.37.84h0A.65.65,0,0,1,165.26,85.2Z"></path><path class="cls-53" d="M148.76,91.84l-4.36-.54a.64.64,0,0,1-.56-.72h0a.63.63,0,0,1,.72-.56l4.36.54a.64.64,0,0,1,.56.72h0A.64.64,0,0,1,148.76,91.84Z"></path><path class="cls-53" d="M148,93.66l-4.24-1.16a.64.64,0,0,1-.46-.79h0a.65.65,0,0,1,.8-.45l4.24,1.15a.65.65,0,0,1,.45.8h0A.64.64,0,0,1,148,93.66Z"></path><path class="cls-53" d="M145.34,94.78l-4-1.93a.65.65,0,0,1-.3-.86h0a.66.66,0,0,1,.87-.3l3.95,1.93a.66.66,0,0,1,.3.87h0A.65.65,0,0,1,145.34,94.78Z"></path><g class="cls-51"><path class="cls-52" d="M165,81.23a.63.63,0,0,0-.36-.49l-2.7-1.32a.64.64,0,0,0-.18-.06l0,0-3.31-.16L148,74.56,146.49,66a3.1,3.1,0,0,0,0-1l-1.4-7.76V55.65a6,6,0,0,0-2-4.51,23.65,23.65,0,0,1,.69,5.13q.18,2.74.59,5.46c.56,3.72,2.32,8.28,1.45,12-.08.33-.12.78.19.91a1.26,1.26,0,0,0,.27,0,2.68,2.68,0,0,1,1.09.49,43.08,43.08,0,0,0,16.7,6.05A1.82,1.82,0,0,0,165,81.23Z"></path></g><g class="cls-51"><path class="cls-52" d="M145.11,79.1a63.59,63.59,0,0,1-1.3,6.25,2.89,2.89,0,0,0-.13,1.33,1.4,1.4,0,0,0,.86,1,5.7,5.7,0,0,0,.6-1.07V79.34l.15,0Z"></path></g><g class="cls-51"><path class="cls-52" d="M141.25,51.55a12.45,12.45,0,0,1,.09-1.25c.11-.7.12-1.43.18-2.14.09-1.17.19-2.34.28-3.51a4.3,4.3,0,0,0,2.64-3.07,3.85,3.85,0,0,0-2.31-4.26,5.91,5.91,0,0,0-3.36,0,6.32,6.32,0,0,1,.43,5.79c-.17.38-.38.81-.2,1.17s.36.38.53.58a2,2,0,0,1,.39,1,29.16,29.16,0,0,1,.37,5.83,3.12,3.12,0,0,1-1.07,2.35,3.25,3.25,0,0,1-1.13.44.6.6,0,0,0,.52.28,1.85,1.85,0,0,0,.6-.13,2.83,2.83,0,0,0,1.64-1.29A4.18,4.18,0,0,0,141.25,51.55Z"></path></g><g class="cls-51"><path class="cls-52" d="M142.64,86.79a2.52,2.52,0,0,0,.57-.45.86.86,0,0,0-.22,0l-4.16,1.07-12.1-4.66.71-10.29a2.88,2.88,0,0,0,.22-.93l.5-7.2c-.09.21-.18.41-.26.62-2.27,5.84-.89,12.59-3,18.47,1.56.83,3.43.83,5.1,1.39,2,.67,3.74,2.14,5.78,2.81A8.16,8.16,0,0,0,142.64,86.79Z"></path></g><polygon class="cls-56" points="104.23 164.86 104.36 129.71 134.95 112.44 149.86 121.05 150.61 191.35 104.23 164.86"></polygon><polygon class="cls-48" points="134.95 112.44 199.19 75.16 214.26 83.92 149.86 121.05 134.95 112.44"></polygon><path class="cls-52" d="M154,106.93l41.53-24.26a2.84,2.84,0,0,1,2.86,0h0a2.85,2.85,0,0,1,0,4.92l-41.56,24.2a2.77,2.77,0,0,1-2.81,0h0A2.8,2.8,0,0,1,154,106.93Z"></path><path class="cls-54" d="M153.68,108.28,195.2,84a2.84,2.84,0,0,1,2.86,0h0a2.85,2.85,0,0,1,1.42,2.46,2.86,2.86,0,0,0-1.08-3.81h0a2.84,2.84,0,0,0-2.86,0L154,106.93a2.78,2.78,0,0,0-1.39,2.43A2.81,2.81,0,0,1,153.68,108.28Z"></path><polygon class="cls-57" points="150.61 191.35 214.26 153.78 214.26 83.92 149.86 121.05 150.61 191.35"></polygon><path class="cls-58" d="M158.61,22.42,196.13.34a2.44,2.44,0,0,1,3.68,2.11v70a8.57,8.57,0,0,1-4.28,7.43L158,101.48a2.44,2.44,0,0,1-3.66-2.12V29.8A8.57,8.57,0,0,1,158.61,22.42Z"></path><path class="cls-59" d="M157.08,101.39V31.83a8.57,8.57,0,0,1,4.23-7.39L198.83,2.37a2.51,2.51,0,0,1,.95-.33,2.45,2.45,0,0,0-3.65-1.7L158.61,22.41a8.58,8.58,0,0,0-4.23,7.39V99.36a2.44,2.44,0,0,0,2.74,2.43A2.58,2.58,0,0,1,157.08,101.39Z"></path><polygon class="cls-59" points="160.26 32.84 182.26 20.14 182.26 28.59 160.26 41.31 160.26 32.84"></polygon><polygon class="cls-59" points="160.26 45.49 197.06 24.43 197.06 29.5 160.26 50.58 160.26 45.49"></polygon><polygon class="cls-59" points="160.26 55.62 197.06 34.56 197.06 39.63 160.26 60.71 160.26 55.62"></polygon><polygon class="cls-59" points="160.26 65.75 197.06 44.69 197.06 49.76 160.26 70.84 160.26 65.75"></polygon><polygon class="cls-59" points="160.26 75.88 197.06 54.82 197.06 59.89 160.26 80.97 160.26 75.88"></polygon><polygon class="cls-59" points="160.26 86.01 179.74 75.03 179.74 80.1 160.26 91.1 160.26 86.01"></polygon></g></g></svg> 