<?xml version="1.0" encoding="UTF-8"?> <svg xmlns="http://www.w3.org/2000/svg" viewBox="0 0 349.94 351.34"><defs><style>.cls-1,.cls-5{fill:#1a1c51;}.cls-1,.cls-2,.cls-3,.cls-4{fill-rule:evenodd;}.cls-2,.cls-3,.cls-4{fill:none;}.cls-2,.cls-4{stroke:#1a1c51;}.cls-2{stroke-linecap:round;stroke-linejoin:round;stroke-width:2px;}.cls-4,.cls-5{stroke-miterlimit:2.61;}.cls-4{stroke-width:8px;}.cls-5{stroke:#231f20;stroke-width:0.5px;}</style></defs><g id="Layer_2" data-name="Layer 2"><g id="Layer_1-2" data-name="Layer 1"><path class="cls-1" d="M326.17,161.73a50.36,50.36,0,0,0,6,.64v32.49c-7.07,1.65-15.65,2.63-23.46,3.77-28.62,4.17-15.09.35-27.18,27.27C267.45,257.28,267.71,236.25,297,280l-22.62,23c-3.05-1-6-4-8.64-5.84-35.3-24.3-19.39-21.06-46-9.33-20.92,9.21-24.09,3.52-25.74,14.67l-5,36.29H156.53L151,304c-1.81-11-2-7.52-15.25-12-5.59-1.88-14.45-5-19.28-7.94-16.66-10-8.9-4.59-45.15,19.68l-23-22.61c1-3.05,4-6,5.83-8.65,2.35-3.4,18.09-23.85,18.09-25.82,0-6.77-4.69-9.48-8.91-20.06-1.19-3-2.51-5.94-3.73-9.45-6.6-18.93,1.34-14.92-23-18.29-7.93-1.1-16.76-2.52-24.09-3.13V163.25l36.67-5.49c11.08-1.66,5.3-8,15.13-27.9,5.12-10.39,10.67-15.92,7.2-21.18-.71-1.06-1.41-1.63-2.42-2.9L47.63,78.06,70.25,55,96.19,74.3c11.3,8.44,6.51,7.31,27.83-3.28a84.93,84.93,0,0,1,10.09-4c16.86-5.64,15.39.91,18.1-23.17l3.44-24.66h45.54l2.64-12.29H153c-9.78,0-9.16,6.69-10.54,19.32-1,8.85-2.8,18.65-3.51,27.22-9.78.82-23.71,8.52-32.5,13.18-6-3.17-32.67-25.47-35.12-25.47-6.33,0-5.85,1.89-12.08,8.12-4.11,4.12-25.69,23.84-25.69,27.88S42.76,91.53,45.6,95c21.16,26.07,13,10.23,1.94,45.3C45.8,145.86,47,146,40.15,147L5.68,152c-7.33,1.56-5.47,11.7-5.47,21.75,0,11.38.88,19.45.88,30.74,5.73,3.83,12.19,3.64,21,4.47,7.7.73,15.34,2.56,23.79,2.56.18,8.13,9.85,27.08,13.17,33.37-3,4.43-24.59,32.94-24.59,35.12,0,6.33,1.89,5.84,8.13,12.08C74.8,324.34,66.31,322.68,89,305.64l17.43-13.3c9.55,5.05,20.74,10.43,32.5,13.17,2.41,10.37,4.2,27.46,6.08,38.7,1.48,8.82,8.18,7,20.26,7s20.63-.88,32.49-.88c2.69-4,2.27-3.06,3.15-9.15l4.3-32.58c1.36-6.43,3.52-2.73,16.25-8.34,2.76-1.22,5.57-2.32,8.52-3.78,11.84-5.89,4.33-6.84,25.74,8.19,20.73,14.56,16.93,16.88,29.64,4.16L303,291.24c15.69-15.69,7-10-17.35-46.32.63-2.35,9.58-17.08,13.17-32.5l33.38-5.26c6.7-1.12,11-.35,12.13-7.2l-.69-38.5c.1-9.37-.73-9.77-9.29-10.91-5.23-.7-3.71-.41-7.49-.83Z"></path><path class="cls-2" d="M314.09,51.5c0,1.66,2.89,5.37,4.33,8.72,2.26,5.24,2,5,3.39,10.07,1,3.44,3.52,2.74,9.46,3.59,3.55.51,8.27,1.31,11.86,1.61V91.06c-3.39.79-7.5,1.26-11.24,1.81-13.72,2-7.23.17-13,13.07-6.74,15-6.62,5,7.43,25.95l-10.83,11c-1.47-.47-2.87-1.92-4.15-2.8C294.4,128.49,302,130,289.25,135.66c-10,4.42-11.54,1.68-12.33,7l-2.39,17.39H259l-2.64-16.72c-.87-5.27-.94-3.6-7.3-5.74a55,55,0,0,1-9.24-3.81c-8-4.8-4.27-2.2-21.64,9.44l-11-10.84c.47-1.46,1.92-2.87,2.8-4.14,1.12-1.63,8.67-11.43,8.67-12.38,0-3.24-2.26-4.54-4.28-9.61-.57-1.43-1.2-2.85-1.78-4.53-3.17-9.07.64-7.15-11-8.77-3.79-.52-8-1.2-11.54-1.5V75.91l17.57-2.62c5.31-.8,2.54-3.83,7.25-13.38,2.46-5,5.12-7.63,3.45-10.15-.34-.5-.67-.78-1.16-1.39L206.77,35.09,217.61,24,230,33.28c5.42,4,3.12,3.51,13.34-1.56a41.56,41.56,0,0,1,4.83-1.91c8.08-2.7,7.38.44,8.68-11.1l1.65-11.82h15.57c.62,2.65.9,5.79,1.38,8.72.46,2.71.78,5.75,1.25,8.85.65,4.29,1.62,3.43,5.52,4.58,9.72,2.87,9.39,4.19,14.33,6.34,2.47,1.08,3.67-.65,6.56-2.82,3.9-2.92,7.72-6.11,11.78-8.83L326,34.57c-1.65,3-11.89,15.17-11.89,16.93ZM250.54,23.31c-4.68.38-11.36,4.08-15.57,6.31-2.87-1.52-15.66-12.21-16.83-12.21-3,0-2.8.91-5.79,3.9-2,2-12.31,11.42-12.31,13.36s4.4,6.87,5.76,8.55c10.14,12.49,6.22,4.9.93,21.71-.84,2.65-.28,2.74-3.54,3.19l-16.52,2.42c-3.52.74-2.62,5.6-2.62,10.42,0,5.45.42,9.32.42,14.73,2.74,1.84,5.84,1.75,10.06,2.14,3.69.35,7.35,1.23,11.4,1.23.09,3.9,4.72,13,6.31,16-1.42,2.13-11.78,15.79-11.78,16.84,0,3,.9,2.79,3.89,5.78,15.44,15.44,11.37,14.65,22.26,6.48l8.36-6.37a66.34,66.34,0,0,0,15.57,6.31c1.16,5,2,13.16,2.92,18.55.71,4.22,3.91,3.33,9.71,3.33s9.88-.42,15.57-.42c1.29-1.92,1.09-1.46,1.51-4.38l2.06-15.61c.65-3.09,1.69-1.31,7.78-4,1.33-.58,2.67-1.11,4.09-1.81,5.67-2.83,2.07-3.28,12.33,3.92,9.94,7,8.12,8.09,14.21,2l8.42-8.42c7.52-7.52,3.35-4.78-8.32-22.2.3-1.12,4.59-8.18,6.32-15.57l16-2.52c3.21-.54,5.29-.17,5.81-3.45l-.33-18.45c.05-4.49-.35-4.69-4.45-5.23-17.89-2.38-16.56-.59-18.34-6.07a59.29,59.29,0,0,0-5.42-11.84c14.44-21.56,17.87-13.06-.1-31-5.77-5.77-4.34-5.23-13.78,2-1.9,1.46-7.32,5.08-8.42,6.73a67.91,67.91,0,0,0-13.22-5.73c-2.94-.9-2.59-.37-3-3.7-.53-4-1-7.14-1.55-11.07-.2-1.38-.43-3.89-.81-5.5-.44-1.84-1.7-2.62-4.12-2.62h-18.1c-4.68,0-4.38,3.21-5,9.26C251.76,14.5,250.88,19.19,250.54,23.31Z"></path><path class="cls-3" d="M314.09,51.5c0,1.66,2.89,5.37,4.33,8.72,2.26,5.24,2,5,3.39,10.07,1,3.44,3.52,2.74,9.46,3.59,3.55.51,8.27,1.31,11.86,1.61V91.06c-3.39.79-7.5,1.26-11.24,1.81-13.72,2-7.23.17-13,13.07-6.74,15-6.62,5,7.43,25.95l-10.83,11c-1.47-.47-2.87-1.92-4.15-2.8C294.4,128.49,302,130,289.25,135.66c-10,4.42-11.54,1.68-12.33,7l-2.39,17.39h-8v5.85c4.14-.11,7.69-.38,12.21-.38,1.29-1.92,1.09-1.46,1.51-4.38l2.06-15.61c.65-3.09,1.69-1.31,7.78-4,1.33-.58,2.67-1.11,4.09-1.81,5.67-2.83,2.07-3.28,12.33,3.92,9.94,7,8.12,8.09,14.21,2l8.42-8.42c7.52-7.52,3.35-4.78-8.32-22.2.3-1.12,4.59-8.18,6.32-15.57l16-2.52c3.21-.54,5.29-.17,5.81-3.45l-.33-18.45c.05-4.49-.35-4.69-4.45-5.23-17.89-2.38-16.56-.59-18.34-6.07a59.29,59.29,0,0,0-5.42-11.84c14.44-21.56,17.87-13.06-.1-31-5.77-5.77-4.34-5.23-13.78,2-1.9,1.46-7.32,5.08-8.42,6.73a67.91,67.91,0,0,0-13.22-5.73c-2.94-.9-2.59-.37-3-3.7-.53-4-1-7.14-1.55-11.07-.2-1.38-.43-3.89-.81-5.5-.44-1.84-1.7-2.62-4.12-2.62h-8.84V6.89h7.58c.62,2.65.9,5.79,1.38,8.72.46,2.71.78,5.75,1.25,8.85.65,4.29,1.62,3.43,5.52,4.58,9.72,2.87,9.39,4.19,14.33,6.34,2.47,1.08,3.67-.65,6.56-2.82,3.9-2.92,7.72-6.11,11.78-8.83L326,34.57C324.33,37.58,314.09,49.74,314.09,51.5ZM266.53,160.08H259l-2.64-16.72c-.87-5.27-.94-3.6-7.3-5.74a55,55,0,0,1-9.24-3.81c-8-4.8-4.27-2.2-21.64,9.44l-11-10.84c.47-1.46,1.92-2.87,2.8-4.14,1.12-1.63,8.67-11.43,8.67-12.38,0-3.24-2.26-4.54-4.28-9.61-.57-1.43-1.2-2.85-1.78-4.53-3.17-9.07.64-7.15-11-8.77-3.79-.52-8-1.2-11.54-1.5V75.91l17.57-2.62c5.31-.8,2.54-3.83,7.25-13.38,2.46-5,5.12-7.63,3.45-10.15-.34-.5-.67-.78-1.16-1.39L206.77,35.09,217.61,24,230,33.28c5.42,4,3.12,3.51,13.34-1.56a41.56,41.56,0,0,1,4.83-1.91c8.08-2.7,7.38.44,8.68-11.1l1.65-11.82h8V1h-9.26c-4.68,0-4.38,3.21-5,9.26-.46,4.24-1.34,8.93-1.68,13.05-4.68.38-11.36,4.08-15.57,6.31-2.87-1.52-15.66-12.21-16.83-12.21-3,0-2.8.91-5.79,3.9-2,2-12.31,11.42-12.31,13.36s4.4,6.87,5.76,8.55c10.14,12.49,6.22,4.9.93,21.71-.84,2.65-.28,2.74-3.54,3.19l-16.52,2.42c-3.52.74-2.62,5.6-2.62,10.42,0,5.45.42,9.32.42,14.73,2.74,1.84,5.84,1.75,10.06,2.14,3.69.35,7.35,1.23,11.4,1.23.09,3.9,4.72,13,6.31,16-1.42,2.13-11.78,15.79-11.78,16.84,0,3,.9,2.79,3.89,5.78,15.44,15.44,11.37,14.65,22.26,6.48l8.36-6.37a66.34,66.34,0,0,0,15.57,6.31c1.16,5,2,13.16,2.92,18.55.71,4.22,3.91,3.33,9.71,3.33,1.18,0,2.29,0,3.36,0Z"></path><path class="cls-2" d="M265.69,56.13c26.55,0,37.2,32,18,48.28-20.66,17.52-53.74-3.57-42.46-31.93,3.59-9,13.74-16.35,24.48-16.35ZM233.29,81.8c0,10.68,2.89,18.29,9.36,24.73a36.15,36.15,0,0,0,9,6.57c26.82,13.1,57-14,44.89-42.79a30.08,30.08,0,0,0-4.66-7.54,31.38,31.38,0,0,0-11.45-9.17c-11.95-5.89-27.53-3.52-36.73,5.79a29.21,29.21,0,0,0-3.86,4.14,41.69,41.69,0,0,0-3.19,5.22A29,29,0,0,0,233.29,81.8Z"></path><path class="cls-3" d="M266.2,56.14c26.17.41,36.56,32.06,17.47,48.27a26.19,26.19,0,0,1-17.47,6.38v5.7c21.78-.11,40.32-22.58,30.34-46.18a30.08,30.08,0,0,0-4.66-7.54,31.38,31.38,0,0,0-11.45-9.17,31.92,31.92,0,0,0-14.23-3.21Zm-.51,0h.51V50.39a31.87,31.87,0,0,0-22.5,9,29.21,29.21,0,0,0-3.86,4.14,41.69,41.69,0,0,0-3.19,5.22,29,29,0,0,0-3.36,13c0,10.68,2.89,18.29,9.36,24.73a36.15,36.15,0,0,0,9,6.57,32.66,32.66,0,0,0,14.55,3.39v-5.7c-17.29-.22-33.36-17.26-25-38.31C244.8,63.47,255,56.13,265.69,56.13Z"></path><path class="cls-4" d="M273.55,176.55A100.38,100.38,0,1,1,176.73,72.74"></path><path class="cls-4" d="M240.46,175.4a67.28,67.28,0,1,1-64.89-69.59"></path><circle class="cls-5" cx="173.94" cy="173.37" r="33.92" transform="translate(-32.11 39.74) rotate(-11.94)"></circle></g></g></svg> 