<?xml version="1.0" encoding="UTF-8"?> <svg xmlns="http://www.w3.org/2000/svg" viewBox="0 0 258.95 198.87"><defs><style>.cls-1{fill:none;stroke:#1a1c51;stroke-linecap:round;stroke-linejoin:round;stroke-width:8.22px;}.cls-2,.cls-3{fill:#1a1c51;}.cls-3{fill-rule:evenodd;}</style></defs><g id="Layer_2" data-name="Layer 2"><g id="Layer_1-2" data-name="Layer 1"><rect class="cls-1" x="4.11" y="4.11" width="250.73" height="190.65" rx="9.14"></rect><rect class="cls-2" x="21.74" y="164.73" width="8.49" height="18.94"></rect><rect class="cls-2" x="42.88" y="164.73" width="8.49" height="18.94"></rect><rect class="cls-2" x="64.02" y="164.73" width="8.49" height="18.94"></rect><rect class="cls-2" x="85.15" y="164.73" width="8.49" height="18.94"></rect><rect class="cls-2" x="106.29" y="164.73" width="8.49" height="18.94"></rect><rect class="cls-2" x="127.43" y="164.73" width="8.49" height="18.94"></rect><rect class="cls-2" x="148.57" y="164.73" width="8.49" height="18.94"></rect><rect class="cls-2" x="169.71" y="164.73" width="8.49" height="18.94"></rect><rect class="cls-2" x="190.85" y="164.73" width="8.49" height="18.94"></rect><rect class="cls-2" x="211.99" y="164.73" width="8.49" height="18.94"></rect><rect class="cls-2" x="233.13" y="164.73" width="8.49" height="18.94"></rect><path class="cls-3" d="M49.93,113.65,43.34,132H35.43l28.8-82.93H76.84L106.2,132H97.54L91,113.65Zm1.31-4.74H89.63L70.25,55.32l-19,53.59Zm95.42-59.74q15.24,0,21.74,5.5a18.22,18.22,0,0,1,6.49,14.61v9q0,9.95-7.34,14.79T144.4,97.91H128V132h-8.66V49.17ZM144.4,92.94q11.47,0,16.66-3.37t5.17-10.94v-9.7q0-6.75-4.23-10.77t-15.34-4H128v38.8Zm52.51-43.77V132h-8.66V49.17Z"></path><rect class="cls-2" x="177.72" y="48.56" width="30.36" height="7.23"></rect><rect class="cls-2" x="177.72" y="124.6" width="30.36" height="7.45"></rect></g></g></svg> 