<?xml version="1.0" encoding="UTF-8"?> <svg xmlns="http://www.w3.org/2000/svg" viewBox="0 0 200.98 190.53"><defs><style>.cls-1,.cls-2{fill:none;stroke:#1a1c51;stroke-linecap:round;stroke-linejoin:round;}.cls-1{stroke-width:8.22px;}.cls-2{stroke-width:8.22px;}.cls-3{fill:#1a1c51;fill-rule:evenodd;}</style></defs><g id="Layer_2" data-name="Layer 2"><g id="Layer_1-2" data-name="Layer 1"><path class="cls-1" d="M4.28,53.72v95.39C4,159.42,8.75,161.16,17,161.5H80.14"></path><path class="cls-1" d="M163.46,36.4H4.28L4.11,13c1-8.54,5.9-9.12,17.18-8.83H165.62c9.7-.26,13.94,3.77,14.24,10.53V95.84"></path><path class="cls-1" d="M115.35,140h81.53V120.76c0-7.35-3.31-9.37-9.39-9.29H104.82c-6.93.15-7.44,3.6-7.43,9.29v55.75c.22,6.3,2.69,9.66,10.53,9.91h77.43c6.66-.66,10-3.34,10.53-9.91v-22.3"></path><rect class="cls-2" x="24.53" y="58.27" width="57.3" height="71.54" rx="3.72"></rect><rect class="cls-1" x="109.09" y="57.97" width="50.17" height="28.8" rx="3.72"></rect><path class="cls-3" d="M30.27,23.59a3.88,3.88,0,1,0-3.88-3.87A3.88,3.88,0,0,0,30.27,23.59Z"></path><path class="cls-3" d="M51.17,23.59a3.88,3.88,0,1,0-3.87-3.87A3.88,3.88,0,0,0,51.17,23.59Z"></path><path class="cls-3" d="M72.08,23.59a3.88,3.88,0,1,0-3.88-3.87A3.88,3.88,0,0,0,72.08,23.59Z"></path></g></g></svg> 