<?xml version="1.0" encoding="UTF-8"?> <svg xmlns="http://www.w3.org/2000/svg" viewBox="0 0 505.93 505.89"><defs><style>.cls-1{fill:#fe4a00;}.cls-2{fill:#fefefe;}.cls-3{fill:#201515;}.cls-4{fill:#fe4a01;}.cls-5{fill:#010101;}.cls-6{fill:#010202;}.cls-7{fill:#020202;}.cls-8{fill:#fafbfb;}.cls-9{fill:#170a0a;}.cls-10{fill:#030403;}.cls-11{fill:#020302;}.cls-12{fill:#150808;}.cls-13{fill:#120404;}.cls-14{fill:#0a0404;}.cls-15{fill:#160909;}.cls-16{fill:#090000;}.cls-17{fill:#070000;}.cls-18{fill:#110707;}.cls-19{fill:#1a1212;}.cls-20{fill:#110304;}.cls-21{fill:#0a0202;}.cls-22{fill:#7c8382;}.cls-23{fill:#1b0f0f;}.cls-24{fill:#1d1515;}.cls-25{fill:#0d0000;}.cls-26{fill:#191010;}.cls-27{fill:#170d0d;}.cls-28{fill:#160d0d;}.cls-29{fill:#0c0101;}.cls-30{fill:#110404;}.cls-31{fill:#fe4000;}.cls-32{fill:#fe3f00;}.cls-33{fill:#100606;}.cls-34{fill:#140a0a;}.cls-35{fill:#0e0505;}.cls-36{fill:#0f0202;}.cls-37{fill:#1a1313;}.cls-38{fill:#0e0000;}.cls-39{fill:#0b0101;}.cls-40{fill:#0d0202;}.cls-41{fill:#0c0102;}.cls-42{fill:#0e0101;}.cls-43{fill:#0d0101;}.cls-44{fill:#0a0101;}.cls-45{fill:#0b0000;}.cls-46{fill:#0c0202;}.cls-47{fill:#0b0001;}.cls-48{fill:#0e0202;}.cls-49{fill:#0d0303;}.cls-50{fill:#f9f9f9;}.cls-51{fill:#1f1514;}.cls-52{fill:#f9fafa;}.cls-53{fill:#0f0001;}.cls-54{fill:#190c0d;}.cls-55{fill:#060000;}.cls-56{fill:#fef9f8;}.cls-57{fill:#fbfcfc;}.cls-58{fill:#f6f9f9;}.cls-59{fill:#f5f8f8;}</style></defs><g id="Layer_2" data-name="Layer 2"><g id="Layer_1-2" data-name="Layer 1"><path class="cls-1" d="M252.91,505.83c-31.82,0-63.65-.07-95.47.06a20.63,20.63,0,0,1-15.61-6.39Q74.24,431.75,6.48,364.15A20.67,20.67,0,0,1,0,348.58q.14-95.7,0-191.41A20.14,20.14,0,0,1,6.22,142Q74.14,74.22,141.93,6.3A20.18,20.18,0,0,1,157.08,0Q253,.12,349,0a19.72,19.72,0,0,1,14.75,6q68,68.09,136.06,136.06a19.65,19.65,0,0,1,6.12,14.71q-.1,96.2,0,192.4a19.13,19.13,0,0,1-5.86,14.32q-68.24,68.16-136.41,136.4a19.62,19.62,0,0,1-14.78,5.95C316.88,505.78,284.89,505.83,252.91,505.83Z"></path><path class="cls-2" d="M253.24,10c31.49,0,63,.07,94.46-.07a13.11,13.11,0,0,1,10.12,4.24q66.87,67,133.94,133.93a13.11,13.11,0,0,1,4.2,10.12q-.15,94.71,0,189.41a13.14,13.14,0,0,1-4.23,10.11q-67.07,66.87-134,133.93a13.15,13.15,0,0,1-10.13,4.2q-94.71-.15-189.42,0a13.13,13.13,0,0,1-10.11-4.24Q81.25,424.62,14.18,357.74A13.13,13.13,0,0,1,10,347.62q.15-94.69,0-189.41a13.12,13.12,0,0,1,4.23-10.1Q81.28,81.24,148.15,14.17A13.18,13.18,0,0,1,158.28,10C189.93,10.1,221.59,10,253.24,10Z"></path><path class="cls-3" d="M273.11,292a11.53,11.53,0,0,1-7.18,3.79c-.64-.46-1.41-.31-2.12-.43.35.4,1.09,0,1.32.65-14.94,4.36-26.57-2.35-31.22-18-1-.56-1.42,0-1.79.8-.34,10.34,0,20.67-.15,31-.06,5.68-.39,6-5.88,6.1-2.66,0-5.33,0-8,0-5.77-.06-6.1-.36-6.1-6.36q0-41.71,0-83.44c0-5.6.05-5.6,5.45-5.63,2.5,0,5,.16,7.49,0,2.75-.22,4,1,4.31,3.56.52,2.27.68,4.6,1,6.9.49,1.93,0,3.91.37,6,0,.51.71-.15.07,0-.1,0-.17-.13-.14-.47.09-1.26-.49-2.62.56-3.74.43,2.16.86,4.33,1.45,7.25,2.3-4.84,2.71-9.85,6.31-13.24,2.47-.77,3.66-2.91,5.12-4.76,3.06-3,6.89-3.89,11-4,1.59,1,3.43.1,5.09.65,2.56,1.17,5.45.62,8.06,1.52a10.36,10.36,0,0,1,4.95,3.74c7.53,3.65,9.73,10.53,10.93,18-.22.63-.07-.25-.34.35a11.58,11.58,0,0,0-.3,2.24c.27-.63-.07-1.5.76-1.91a60.43,60.43,0,0,1,0,28.67c-1.14-.64-.35-1.84-.84-2.84.35,1.58-.24,3.1.53,4.48a25.94,25.94,0,0,1-5.94,14C276.09,288.4,274,289.65,273.11,292Z"></path><path class="cls-3" d="M134.12,270A16.4,16.4,0,0,1,138,260a13.64,13.64,0,0,0,4.91-5.23A11.55,11.55,0,0,1,150,252c.64.19-.25.07.38.29a20.73,20.73,0,0,0,2.21.24c-.62-.26-1.47.07-1.89-.73l3.26-1a3.09,3.09,0,0,1,2.55-.49c4.08,2.16,8.48.92,12.74,1.17,3,.17,6.11,0,8.32,0,1.5-.14.46-1,.85-.5-6.42.91-12.86.41-19.3.25-.12-3.16,2.47-2.47,4.1-2.62,3.59-.34,7.22-.1,10.84-.14,2.16,0,4.3-.12,5.84-1.95,3.05-1.79,2.34.43,2.63,1.74-.26-3.07-2-5.54-4.31-7.76a13.57,13.57,0,0,0-10.15-3.17c-4.45.42-7.75,2.17-9.58,6.63-2.3,5.6-2.66,5.57-8.52,3.14l-4.25-1c1-1.17,2.33-.35,4.12-.83-2.05.38-3.58-.32-4.87.73-10.09-.85-11.14,1-6.62-10.84,4.12-10.8,13.21-15.48,24.12-16.81a56.88,56.88,0,0,1,18.85.6q17.49,3.72,20.61,21.4a79.17,79.17,0,0,1,.76,13.92c0,12.3-.07,24.61,0,36.91,0,2.67-.46,3.94-3.5,3.74a93.59,93.59,0,0,0-12,0c-2.63.17-3.45-.9-3.75-3.28-.61-4.82-1.43-9.62-2.28-15.19-4.44,9.8-8.89,18.33-20.28,19.46a60,60,0,0,0-9,.05c-10.36-1.09-16.92-7.33-17.91-17A20,20,0,0,0,134.12,270Z"></path><path class="cls-3" d="M372.92,220c10.53,3.68,16.66,11.15,18.88,22-.16.65-.05-.24-.24.4s0,1.51-.24,2.24c.33-.57,0-1.4.68-1.83,1.12,1.93,1,4.05.93,6.15-1.64,4,.77,8.45-1.37,12.4-15.83.21-31.67,0-46.3.11-1.85.42-1,1.34-1.22.72-.09-.27.27-.7.52-.7,8,0,15.94-.13,23.91,0s16.22-.61,24.3.44c-1.1,2-3,.89-4.41.9-14.33.1-28.65.16-43,0-3.46-.05-3.71.9-2.93,4,1.43,5.6,4.43,9.42,10.14,10.71,6.15,1.39,12.33,1.63,17.46-2.71,1.75-1.47,2.52-4.11,3.74-6.22,1.14,2.59,2.77,0,4.13.39,4.16,1.05,8.31,2.2,12.5,3.13,2.51.56,2.07,1.89,1.39,3.61-3.32,8.44-8.48,15.29-17.21,18.56-15.88,5.95-40.14,3.82-50.26-16.9a7.29,7.29,0,0,1-.35-1.43c-1.75-7.35-3.51-14.64-3.15-22.36.21-4.66,2.26-8.95,2.14-13.61,4.28-11.79,12.71-18.65,24.94-21,1.3,1,2.77.42,4.89.58-1.88-.29-3.2.46-4.18-.72,2-1,4.15-.89,6.3-.83,2.18,1.13,4.54.16,6.77.58C365.49,218.72,369.13,219.94,372.92,220Z"></path><path class="cls-3" d="M69,268.86l18-16.92c4-1.57,6.51-4.8,9-8.08.69-2.55,4.58-2.51,4.75-5.94H63a.89.89,0,0,1,.62-1.39c12-.14,24,0,36-.07-12.21-.23-24.44.39-36.65-.37a56.79,56.79,0,0,1-.12-14.27c1-1.45,2.54-1.36,4-1.35,20,.08,39.9-.17,59.85.12,1.91,6.46,2.5,12.87-.73,19.14-4.81,6.53-11.84,10.7-17.48,16.42s-11.46,11.63-18.3,16.2c-1.37.92-3.27,2.09-2,4.43,11.12.37,22.24,0,33.36.18,1.94,0,4-.5,5.76.91.88,5.12,1.32,10.24-.21,15.33-1.17.82-2.53.7-3.85.71q-29,0-57.94,0a7.34,7.34,0,0,1-2.94-.41c-2.6-2.75-1-6.14-1.34-9.22a37.44,37.44,0,0,1,0-5.8C62.54,274.29,67.07,272.64,69,268.86Z"></path><path class="cls-3" d="M420.08,234.65c.39,1.56.79,3.12,1.35,5.32,3-10.14,6.42-19.2,18.49-20,3.86.1,5.49,1.88,5.05,5.9a58.32,58.32,0,0,0,0,9.89c.25,3.75-1.3,5.12-4.93,4.69a38.92,38.92,0,0,0-4.95,0c-.66,0,0-.39-.43,0s.64.22.58.69c-5.77,1-11.41,2.16-13.24,9-1.8,1.38-1,3.37-1,5.07-.1,11.13-.17,22.26,0,33.39.06,4.15-1.52,5.84-5.57,5.4-4.89-.52-9.92,1.09-14.71-1-.58-19.88-.27-39.76-.2-59.64.06-15.12-3-12.54,13.78-12.85,2.57,0,3.64,1.08,3.64,3.49a7.56,7.56,0,0,0,.25,1.57,8.82,8.82,0,0,1,.24,2.3,10.18,10.18,0,0,0,0,1.46c0-.63,0-1.25.65-1.63,1,1.68.76,3.52.77,5.33-.94,1.33-.16,2.87-.55,4.27.36.21.48.21.39,0A2,2,0,0,1,420.08,234.65Z"></path><path class="cls-4" d="M321.78,191c1.19,4.36-.75,5.62-4.82,5.09a60.93,60.93,0,0,0-6.82,0c2.65,2.65,4.44,4.66,6.45,6.41s1.32,2.91-.19,4.46-2.8,2-4.42.07-3.51-3.8-6.32-6.78c0,4.1-.13,6.53,0,8.94s-.72,3.7-3.31,3.7-3.57-1-3.37-3.63a18.55,18.55,0,0,0-1.11-8.16c-1.69,1.95-3.43,3.86-5.08,5.84-1.44,1.74-2.63,2-4.37.16s-2.2-3.11-.08-4.84a19.11,19.11,0,0,0,5.21-6.17c-2.36,0-4.73-.14-7.08,0-4.1.29-5.09-1.46-3.63-5.06,3.54-1.54,7.52.76,11-1.26-.95-2.84-3.48-4.35-5.47-6.26s-1.62-3,.1-4.84,2.92-1.7,4.36.13,3.12,3.83,4.69,5.73l1.5-.69c0-2.54.11-5.08,0-7.6-.14-2.35.69-3.25,3.11-3.25s3.76.58,3.56,3.34c-.18,2.43,0,4.88,0,7.32l1.41,1.05c1.51-1.87,3-3.74,4.53-5.63s2.73-2.46,4.74-.36c1.8,1.89,1.81,3,0,4.83s-4.63,3.3-5.31,6.3C314.43,191.62,318.3,189.5,321.78,191Z"></path><path class="cls-5" d="M401.78,116.65c-.56,6.13-4.61,10.33-10,13.33a12,12,0,0,1-14.39-1.42c-3.65-3.1-6.76-6.82-10.21-10.17-1.37-1.33-.88-2.08.28-3.16,6.21-5.74,12.36-11.56,18.55-17.32.64-.61,1.42-2,2.38-.89,4.92,5.68,11.69,10,13.33,18.12C401.73,115.47,401.72,115.8,401.78,116.65Z"></path><path class="cls-5" d="M208.23,78.48c-4.61,3.19-8.77,4.18-12.76-.49A19.6,19.6,0,0,0,192,75.21c-1.51-1.1-2.9-.24-4.17.47-1.63.92-.19,2,.07,3A16.3,16.3,0,0,0,189,81.94c1.23,2.46,1.38,4-1.95,5.08-2.75.86-4,.81-5-2.2-2.47-7.4-5.23-14.7-8-22-.82-2.11-.85-3.14,1.64-3.88,4.29-1.29,8.4-3.15,12.69-4.44,3.79-1.13,7.35-.43,9.77,3s3.74,7.4,1,11.1c-1.88,2.55-.65,3.24,1.2,4.41C203,74.75,205.51,76.61,208.23,78.48Z"></path><path class="cls-5" d="M335.74,450.15c-4.6,3.7-8.87,4.49-13.12,0a26.48,26.48,0,0,0-3.22-2.33c-1.56-1.2-2.84-.14-4.1.51-2,1-.25,2.25.05,3.31a13.17,13.17,0,0,0,1.39,3.17c1.42,2.45,1.36,3.91-1.78,5.1-2.73,1-3.87,1-5-2-2.83-7.25-6-14.36-9.28-21.42-1-2.21-.81-3.13,1.51-4,3.72-1.39,7.26-3.26,11-4.68,3.93-1.52,7.9-1.85,11,1.76s4.46,7.52,1.72,11.83c-1.16,1.81-.66,2.47.91,3.36C329.75,446.45,332.68,448.31,335.74,450.15Z"></path><path class="cls-5" d="M157,74.51c-.2,1.5-1.33,1.71-2.11,2.25-2.46,1.7-5,3.35-7.45,5-1.69,1.1-3.27,1.75-1.42,4.45s2.92,1.56,4.63.28c2-1.49,4.16-2.74,6.18-4.19,1.63-1.18,2.78-1.86,4.29.47,1.36,2.1,1.06,3.09-.93,4.24-2.15,1.24-4.13,2.77-6.26,4.06-1.92,1.17-3.38,1.81-1.55,4.73,2,3.22,3.33,1.3,5,.27A55.06,55.06,0,0,0,164,91.65c2.18-1.84,3.28-1.67,5,.76,1.84,2.62.41,3.33-1.41,4.5-4.6,3-9.19,6-13.66,9.16-1.78,1.27-2.71,1.12-3.9-.72q-6.73-10.47-13.76-20.74c-1.12-1.64-1-2.46.61-3.5,5-3.25,10-6.61,15-9.88.73-.48,1.56-1.7,2.53-.57A38,38,0,0,1,157,74.51Z"></path><path class="cls-6" d="M283.35,437.6c3-1.07,2.5,1.57,3,3.36.75,2.45-.59,2.79-2.51,3-3.15.33-6.26.94-9.41,1.24-2.23.22-3,.9-2.79,3.41.28,3,2,2.49,3.76,2.27a76.75,76.75,0,0,0,7.91-1.08c2.68-.61,3,.83,3.4,2.87.5,2.6-1.18,2.64-2.86,2.87-2.64.36-5.27.81-7.92,1-2,.18-3.45.28-2.87,3.12.49,2.39,1,3.52,3.77,2.8s5.62-.68,8.38-1.28,3.74.07,4.25,2.95c.56,3.07-1,3.27-3.14,3.53-5.29.63-10.58,1.25-15.83,2.11-2.49.4-3.5,0-3.8-2.79-.88-8.1-2-16.18-3.24-24.24-.31-2,.29-2.61,2.19-2.84C271.48,439.25,277.24,438.42,283.35,437.6Z"></path><path class="cls-5" d="M345.33,93.84c3.23,2.17,6.57,4.63,10.12,6.71,2.15,1.26,2.24,2.32.77,4.12-1.12,1.36-1.58,3.26-4.07,1.44-4.71-3.41-9.63-6.54-14.54-9.65-1.84-1.16-2-2-.73-3.86Q344,82.37,350.66,71.86c1.08-1.69,1.85-1.87,3.46-.75,4.78,3.31,9.64,6.51,14.51,9.68,1.53,1,2.79,1.88,1,3.73-1.21,1.27-1.7,3.93-4.44,1.7a80.55,80.55,0,0,0-7.43-5c-1.57-1-3-2.65-4.82.14-1.66,2.52-.5,3.42,1.38,4.57,2.12,1.3,4.1,2.85,6.25,4.09,1.83,1,2.79,1.8,1.3,4.13-1.63,2.55-2.84,2-4.65.47-1.4-1.15-3.2-1.85-4.53-3.07C349.17,88.28,346.79,88.9,345.33,93.84Z"></path><path class="cls-5" d="M162.8,412c-4.31,2.81-3.55,5.23.22,7.62,1.54,1,2.83,2.31,4.32,3.36,1.79,1.26,2.73,2.17.88,4.51-2.08,2.63-3.19,1-4.7-.21-1.79-1.49-3.73-2.81-5.37-4.44-1.88-1.87-3.1-2.11-5,.22-2.08,2.58-.24,3.33,1.32,4.55,2.09,1.63,4,3.45,6.2,5s2.91,2.5.88,5-3.29,1.41-5-.07q-6.07-5.16-12.32-10.11c-1.63-1.29-2.5-2.08-.67-4.18,5.24-6,10.27-12.18,15.16-18.46,1.79-2.3,2.93-2.18,5-.36q6.13,5.46,12.72,10.39c2.15,1.61,1.51,2.69.19,4.31s-2.26,2.53-4.27.67C169.29,417,165.94,414.54,162.8,412Z"></path><path class="cls-5" d="M136,117.43c-.11,10.32-12.17,17.73-21.17,12.83-5.8-3.16-10.3-7.73-10.42-14.75-.1-6,3.47-10.24,8.35-13.33a10.06,10.06,0,0,1,10-.88c1.33.62,4.38.72,3,3.29-1,1.82-1.22,5.69-5.44,3.53-2.83-1.44-5.47-.17-7.43,2.33s-2,5.17-.46,7.88a14.66,14.66,0,0,0,6.5,6,6.23,6.23,0,0,0,7.74-1.21c2.24-2.15,3.29-4.54,1.76-7.58-.69-1.36-2.13-2.93.33-4,1.43-.62,2.45-3.24,4-2.09C135.18,111.26,136,114.3,136,117.43Z"></path><path class="cls-5" d="M237.25,460.23a11,11,0,0,1-1.79-.24c-3.71-1-5.78.17-5.48,4.19.27,3.71-1.67,3.81-4.6,3.55-3.21-.3-3.1-1.8-2.7-4.31,1.21-7.56,2.22-15.14,3.12-22.74.29-2.38.68-3.61,3.57-3,3.56.79,7.28.81,10.86,1.53,6.78,1.38,9.68,5.62,8.67,12.23C248.05,457.05,243.53,460.51,237.25,460.23Z"></path><path class="cls-6" d="M213.81,434.79c-3.73,2.69-7.56,5.55-11.51,8.24a4.21,4.21,0,0,0-2,5c.93,4.36,1.47,8.8,2.2,13.37-10.9-.95-7.1-9.55-8.61-15.53-2.6.12-3.79,2.39-5.46,3.75-5.26,4.3-5.21,4.37-11.92.71,3.88-2.81,7.46-5.62,11.27-8.07,2.24-1.44,3.16-2.83,2.53-5.62-.92-4.17-1.28-8.46-1.9-12.83,10.9.51,6.89,9.45,8.83,15.22C202.68,437.21,205.83,426.87,213.81,434.79Z"></path><path class="cls-6" d="M289.25,46.69c5.36,1.2,10.86,2.49,16.39,3.63,2.29.48,2.63,1.69,1.8,3.56-.63,1.4.07,4.07-3.11,3.13-2.54-.76-5.19-1.14-7.75-1.84-2.72-.75-4.34-.85-5.09,2.86-.67,3.34.23,4.06,3.09,4.38,2,.22,3.87,1,5.83,1.33,2.2.4,3.55.72,2.71,3.78-.74,2.67-1.65,3.27-4,2.43a28.6,28.6,0,0,0-2.9-.73c-6.54-1.52-6.75-1.56-8.15,4.91-.63,2.91-1.85,3-4.13,2.23-1.93-.66-4.25-.19-3.21-3.89,2.15-7.67,3.63-15.53,5.39-23.31C286.44,47.58,286.48,45.54,289.25,46.69Z"></path><path class="cls-7" d="M236.77,43.91c2-.74,3-.06,3.39,2.72s-.31,4.25-3.11,4c-4.75-.34-5.41,1.7-4.46,5.92,1.08,4.84,1.2,9.9,2.07,14.8.5,2.8-.5,3.47-3,3.61-2.23.12-4.2.76-4.48-2.66-.44-5.29-1.58-10.54-1.88-15.84-.19-3.53-1.19-4.64-4.72-3.73-2.23.57-4.85,1.34-5-2.91-.11-2.67.39-3.47,3-3.72C224.46,45.57,230.39,44.71,236.77,43.91Z"></path><path class="cls-5" d="M343.67,416.82a38.37,38.37,0,0,0-4,3.35c-2.05,2.25-3.28,1.54-5-.55s-1.49-3,.57-4.54c4.9-3.72,9.68-7.62,14.26-11.72,2.29-2.05,3.17-.88,4.61.86s2.13,3.18-.45,4.49c-4.68,2.4-3.7,5-.57,8.18s5.35,6.79,8.27,10c2.07,2.26,3,3.57-.07,6.11-3.23,2.68-4.13.4-5.63-1.45Z"></path><path class="cls-8" d="M150,247.1c4.25,1.3,6.36.12,8-4.51,2.75-7.93,14.44-9.11,21.17-2.64,1.59,1.7,2.74,3.53,1.9,6,.68,3.79-1,4.61-4.61,4.51-5.9-.16-11.83-.6-17.72.31-.84,1-1.76.79-2.7.15l-2-.17a3.26,3.26,0,0,0-3.08-1.81C149.37,249,149.55,248.09,150,247.1Z"></path><path class="cls-9" d="M313,220.07c1.7,1.06.76,2.72.76,4,.07,22.11,0,44.21.12,66.31,0,3.29-.47,4.81-4.23,4.52a96.94,96.94,0,0,0-14,0c-3.28.22-3.77-1-3.75-3.95q.18-33.66,0-67.31c0-3.33.89-4.26,4.14-4.06,5.29.34,10.61.24,15.92.32a1.71,1.71,0,0,1-.23,2.49c-3.44,1.77-7.16,1-10.76,1s-5.48,1.22-5.47,5.18c.07,19.25,0,38.5,0,57.75,0,3.61,1.57,5.14,5.12,5,3.31-.14,6.63.16,9.92,0,1.76-1.46,1-3.44,1-5.16q.08-28.69,0-57.38A20.11,20.11,0,0,1,313,220.07Z"></path><path class="cls-10" d="M264.8,58.76c0,4.15-.11,8.31,0,12.46.12,3.35-2.09,2.64-4,2.64-2.13,0-3.83,0-3.58-3.15q.93-11.94,1.2-23.92c.07-3.14,1.48-3.26,4-3.22,2.81,0,3.77.88,3.47,3.73-.39,3.8-.39,7.64-.56,11.46Z"></path><path class="cls-11" d="M320.29,87.81c-3.66-.16-5.35-2.87-3.89-6.33,3-7,6.14-13.93,8.79-21,1.27-3.42,2.94-2,4.91-1.31s3.32,1.38,2,4.2c-3.42,7.34-6.35,14.9-9.54,22.35C322.16,86.6,322.11,88.14,320.29,87.81Z"></path><path class="cls-12" d="M229,225c-.73-3.34-2.77-4.16-6.12-4.09-9.87.2-9.87,0-9.87,10.13,0,26.1.08,52.2-.09,78.3,0,4.19.79,5.82,5.42,5.72C231,314.76,231,315,231,302.16c0-7.48-.06-15,.07-22.44,0-1.1-1.33-3.71,1.92-3-1.09,9.22-.24,18.48-.49,27.71-.09,3.47,0,6.94-.05,10.41-.19.89-.68,1.51-1.64,1.49-6.5-.17-13,.64-19.49-.45a4.88,4.88,0,0,1-.23-.64c0-.11.06-.24.09-.35.65-1.78.33-3.62.33-5.43q0-42.09,0-84.17c0-1.79-.45-3.65.46-5.38,4.31-.08,8.65.13,12.93-.31s5.62,1.44,5.1,5.34C229.67,225.39,229.33,225.42,229,225Z"></path><path class="cls-13" d="M62.06,292.91H127a1.35,1.35,0,0,1,2,0c.5,2.26-1.14,1.9-2.4,1.9H63.25c-1.25,0-3,.42-2.91-1.63.37-5.7-1.08-11.49.79-17.11l.36.69C61.86,282.15,60.85,287.57,62.06,292.91Z"></path><path class="cls-14" d="M401,292.89c4.83,0,9.66-.16,14.48.1,3.49.18,4.61-1,4.55-4.53-.19-11-.05-22-.09-32.95,0-2.3.12-4.54,1.39-6.55a.64.64,0,0,1,.37.16,8,8,0,0,1,.32.94c-1.13,12.85-.25,25.72-.55,38.57,0,1.79-.23,3.58-.35,5.36a101.71,101.71,0,0,1-21.15-.06c0-.34,0-.68-.05-1C400.22,292.43,400.58,292.45,401,292.89Z"></path><path class="cls-15" d="M401,292.89l-1.08,0q-.14-35.35-.28-70.69c0-1.44.05-2.68,2-2.55,5.43.35,10.9-.67,16.29.54a7.56,7.56,0,0,1,0,5.74c-1.93-1.07.1-4.56-2.58-4.79-4.27-.36-8.67-.91-12.82.31-2.37.7-1.56,3.39-1.57,5.28Q400.91,259.82,401,292.89Z"></path><path class="cls-3" d="M212,219.92q0,44.87,0,89.73c0,1.76.6,3.68-.82,5.25q-.08-46.54-.16-93.08C211,221,210.84,220.13,212,219.92Z"></path><path class="cls-16" d="M127,278l-38,0a1,1,0,0,1-.81-.3c-.12-.19,0-.56.09-.85,13.12-.86,26.26-.12,39.38-.37,1,0,1.49.5,1.38,1.52A1.38,1.38,0,0,1,127,278Z"></path><path class="cls-17" d="M313,220.07q0,35.9-.06,71.79a1.61,1.61,0,0,1-.18.92c-.11.16-.52.09-.79.12-1.71-1.92-1.57-4.3-1.57-6.61q-.06-28.86,0-57.72c0-2.31-.12-4.69,1.59-6.61v-2Z"></path><path class="cls-15" d="M127,221l-58.16,0c-2,0-4-.12-5.77,1a1.42,1.42,0,0,1,0-2q32-.62,64,0c.26.24.34.48.24.71S127.07,221,127,221Z"></path><path class="cls-18" d="M435.21,241.1l-4.25-.46,0-.51c.92-.06,1.83-.17,2.75-.19,10.17-.15,10.22-.15,10.14-10.55,0-3.61,1.57-8-3.95-9.41,4.3-1.16,6.44-.16,5.88,4.92a66.49,66.49,0,0,0,0,12.38c.26,3.37-.93,4.44-4.15,4C439.51,241.05,437.35,241.16,435.21,241.1Z"></path><path class="cls-19" d="M323,240a2.64,2.64,0,0,1,.75,3.15,48.59,48.59,0,0,0,.87,30.16,2.09,2.09,0,0,1-.61,2.66c-1.72-3.3-3.46-6.61-3.16-10.52a75.77,75.77,0,0,1,0-17A13,13,0,0,1,323,240Z"></path><path class="cls-20" d="M392.77,261.92H343.11v-1H391.9c.33-.48.66-.48,1,0Z"></path><path class="cls-21" d="M127,221l0-1c.68-.07,1.49,0,1.51.79.09,5.47.16,10.94.07,16.41a2.86,2.86,0,0,1-2.56,2.6C127.9,233.56,126.67,227.23,127,221Z"></path><path class="cls-22" d="M232.17,314.65c0-11.24,0-22.48.12-33.72,0-1.4-.72-3,.67-4.2.64.18,1,.54.95,1.28-1.7,2.39-.66,5.09-.72,7.62-.24,9.79-.25,19.58-.34,29.38C232.39,315.32,232.17,315.2,232.17,314.65Z"></path><path class="cls-23" d="M127,278l2,0v15l-2,0Z"></path><path class="cls-3" d="M232.17,314.65a4,4,0,0,0,.68.36c-.09.66-.23,1.52-1,1.51-6.86-.15-13.76,1-20.57-.63,5.44,0,10.89,0,16.34-.05C229.22,315.82,231,316.31,232.17,314.65Z"></path><path class="cls-15" d="M399.92,293.93l21.15.06A51.1,51.1,0,0,1,399.92,293.93Z"></path><path class="cls-24" d="M273.09,223.91c-3.79-3.19-8.66-3.52-13.12-4.93.09-.58.68-.67,1-1,2.61,1.82,6,0,8.66,2C271.15,221,273.33,221.35,273.09,223.91Z"></path><path class="cls-25" d="M63,219.93c0,.68,0,1.36,0,2q0,7,0,14c.35.23.47.46.35.69s-.23.34-.35.34l0,1c-1.86-.08-1.39-1.51-1.4-2.55-.05-4.3,0-8.6,0-12.9C61.64,221.43,61.17,220,63,219.93Z"></path><path class="cls-26" d="M96,243.86c-1.94,3.85-3.82,7.77-9,8.08Z"></path><path class="cls-3" d="M320.87,248.37l0,17A37.25,37.25,0,0,1,320.87,248.37Z"></path><path class="cls-27" d="M69,268.86c-.93,3.88-4.28,5.69-7,8.08a.93.93,0,0,1-.75-.56l-.18-.29A40.37,40.37,0,0,1,69,268.86Z"></path><path class="cls-28" d="M372.92,220c-3.84,1.56-7.38-.15-11-1-.35-.23-.46-.46-.35-.68s.23-.35.35-.35l1,0c1.92,1.25,4.24-.15,6.19.91C370.48,219,371.85,219,372.92,220Z"></path><path class="cls-29" d="M152,296a9,9,0,0,1,9-.05A16.35,16.35,0,0,1,152,296Z"></path><path class="cls-30" d="M392.88,260.94h-1c.55-4-1.09-8.14,1-12A42.32,42.32,0,0,1,392.88,260.94Z"></path><path class="cls-31" d="M321.78,191c-3.58-.55-7.41,1.23-10.79-1.17C314.57,190.36,318.43,188.38,321.78,191Z"></path><path class="cls-32" d="M293.89,189.72c-3.42,2.58-7.36.66-11,1.26C286.3,188.36,290.25,190.42,293.89,189.72Z"></path><path class="cls-33" d="M273.11,292c.07-3.13,2.27-4.26,4.79-5.08A10.17,10.17,0,0,1,273.11,292Z"></path><path class="cls-34" d="M142.94,254.76c-.53,2.78-1.81,4.86-4.91,5.23C138.93,257.55,140.9,256.12,142.94,254.76Z"></path><path class="cls-35" d="M244,222c-.82,2.54-1.84,4.86-5.12,4.76A9.72,9.72,0,0,1,244,222Z"></path><path class="cls-36" d="M134.12,270a9.87,9.87,0,0,1,0,9A16.89,16.89,0,0,1,134.12,270Z"></path><path class="cls-37" d="M377.93,269c-1.46.71-3.06,2.92-4.13-.39C375.33,267,376.59,268.38,377.93,269Z"></path><path class="cls-38" d="M361.93,217.93v1c-2.32-.39-4.88.91-7-1A17.32,17.32,0,0,1,361.93,217.93Z"></path><path class="cls-39" d="M231.1,232.72c-.14,1.4-.28,2.8-.47,4.74-1.11-2.48-.45-4.53-.64-6.51l.44-.35.44.36Z"></path><path class="cls-40" d="M283.84,272.91c-1.35-1.6-1-3.29-.32-6,.3,2.11.47,3.24.63,4.36C284,271.82,283.94,272.36,283.84,272.91Z"></path><path class="cls-41" d="M420.08,234.65c-.14,1.08-.29,2.16-.55,4.14-.77-2.61-1.08-4.27.33-5.83Z"></path><path class="cls-3" d="M417.92,226l0-5.74c1.38,1.73.84,3.79,1,5.74-.33.43-.65.45-1,0Z"></path><path class="cls-16" d="M348.64,218.79l5.2.5c-2.69.8-4.37,1.18-5.91-.36A.46.46,0,0,1,348.64,218.79Z"></path><path class="cls-3" d="M369.13,218.87c-2.09-.11-4.35.87-6.19-.91C365.05,217.93,367.18,217.81,369.13,218.87Z"></path><path class="cls-42" d="M261,218c-.34.34-.67.69-1,1-1.67-.27-3.57.63-5-1A12,12,0,0,1,261,218Z"></path><path class="cls-43" d="M417.92,226h1c.07.55.14,1.11.2,1.67-.16,1.09-.32,2.18-.54,3.6C417.42,229.34,418.14,227.59,417.92,226Z"></path><path class="cls-29" d="M229,225h1a.41.41,0,0,1,.1.69A7.56,7.56,0,0,1,230,231h0C228.17,229.2,229.29,227,229,225Z"></path><path class="cls-44" d="M145,246c1.39-1.62,3.11-1,4.85-.38l-4.1.48-.4.13Z"></path><path class="cls-45" d="M284.14,242.6c-.14,1.1-.28,2.2-.51,4.07-.81-2.19-1.14-3.55.39-4.75A.42.42,0,0,1,284.14,242.6Z"></path><path class="cls-46" d="M392,242.79c-.12,1.06-.24,2.12-.43,3.73-.9-2-.94-3.32.23-4.54A.59.59,0,0,1,392,242.79Z"></path><path class="cls-39" d="M265.13,296l-3.72-.42c2-.92,3.29-.94,4.52.2l-.35.29Z"></path><path class="cls-47" d="M150.72,251.79l4,.46c-2.15.84-3.49,1.13-4.72-.26A.47.47,0,0,1,150.72,251.79Z"></path><path class="cls-3" d="M230,231c.05-1.77.09-3.55.14-5.32,1,1.67.78,3.51.76,5.32H230Z"></path><path class="cls-2" d="M246.24,277.79c-7-1.64-11.54-5.85-12.71-13-1.33-8.08-1.91-16.16,3.85-23.1,3-3.62,7.31-4.18,11.59-4.71.94-.59,1.86-.84,2.69.18,10.25,3.37,14.35,12.2,12.15,25.75-1.27,7.79-4.84,13.38-13.14,14.89A3.58,3.58,0,0,1,246.24,277.79Z"></path><path class="cls-48" d="M246.24,277.79l4.43,0,2.22.58,0,.39H244.1l-.06-.41Z"></path><path class="cls-49" d="M251.66,237.12l-2.69-.18c1.39-1.7,3.2-.68,5.1-1.09C253.45,237.35,252.31,236.66,251.66,237.12Z"></path><path class="cls-50" d="M169.21,279.73c-3.12-1.7-6.63-.42-10-1.45-3.78-1.16-4.29-3.8-4.4-6.78-.11-3.14,1.09-6.13,4.58-6.35,6.6-.42,13.25-.24,19.87-.32,2.17,0,1.83,1.49,1.62,2.75a12.31,12.31,0,0,1-7.56,9.76c-1.47.67-3.06,1.08-4.13,2.41Z"></path><path class="cls-45" d="M156,250.92l2.7-.15H180l0,1.2C172,251.3,163.93,253.21,156,250.92Z"></path><path class="cls-38" d="M160.27,263.2H180v.47H160.21Z"></path><path class="cls-51" d="M181,246l-1.9-6c4.05,2.2,3.5,6.12,4,10.53C181.42,248.84,182.61,246.75,181,246Z"></path><path class="cls-20" d="M169.23,279.75c-1.92,1.85-4.08,1.19-6.25.4l6.23-.42Z"></path><path class="cls-52" d="M343.14,248.83c-1.88-3.68.74-7,2.56-8.72,5.12-4.79,11.72-5.4,18.54-3.61,6.35,1.67,8.12,6.42,8.61,12.16-2.41,1.55-5.1.75-7.62.7C357.86,249.21,350.47,250.15,343.14,248.83Z"></path><path class="cls-53" d="M343.14,248.83l29.71-.17c-.34.35-.66,1-1,1q-14.4.68-28.8,0c-.05,0-.15-.28-.13-.41A1.55,1.55,0,0,1,343.14,248.83Z"></path><path class="cls-54" d="M63.06,237v-1h37.73v1Z"></path><path class="cls-55" d="M61.31,276.38l.75.56v16C59.91,287.48,61.45,281.89,61.31,276.38Z"></path><path class="cls-56" d="M307.46,192.53c.11,3.5-1.06,5.42-4.85,5.44s-5.47-1.52-5.44-5.28c0-3.56,1.65-4.93,5.21-4.93S307.67,189.11,307.46,192.53Z"></path><path class="cls-57" d="M384.51,124.94c-4.09-.41-6.18-3.6-8.62-6.27-.54-.59-.12-1.25.39-1.72q5.46-5.11,11-10.22c.69-.65,1.33-.86,2.06,0,2.58,2.94,6.25,5.39,5.17,10.11C393.63,120.42,387.86,125,384.51,124.94Z"></path><path class="cls-58" d="M189.23,60.79c3.17,0,4.15,2,4,4.23-.35,4.18-4.43,4.56-7.06,4.88-3.5.43-3.81-4.25-3.49-5.78C183.24,61.26,187.05,61.71,189.23,60.79Z"></path><path class="cls-59" d="M320,437.48c0,1.93-5.27,6.26-7.39,5.63-2.7-.8-3.73-4.27-3.43-5.9.52-2.82,4.15-3.09,6.73-3.63C318.17,433.11,320.06,435.2,320,437.48Z"></path><path class="cls-59" d="M236.11,454c-1.3-.83-5.2,1.42-4.23-2.92.51-2.25-1.51-6.29,3.12-6.27,3,0,6.81.13,6.88,4.57C241.94,452.72,240,454.62,236.11,454Z"></path><path class="cls-3" d="M311.94,222q0,35.47,0,70.94c-4.81,0-9.62-.07-14.43.05-2.5.05-3.57-.8-3.56-3.43q.09-32.1,0-64.18c0-2.65,1.1-3.47,3.58-3.42C302.32,222,307.13,222,311.94,222Z"></path></g></g></svg> 