<?xml version="1.0" encoding="UTF-8"?> <svg xmlns="http://www.w3.org/2000/svg" xmlns:xlink="http://www.w3.org/1999/xlink" viewBox="0 0 308.2 201.54"><defs><style>.cls-1{opacity:0.4;isolation:isolate;fill:url(#linear-gradient);}.cls-2{fill:#adc5e5;}.cls-3{fill:#f6f8fd;}</style><linearGradient id="linear-gradient" x1="10.86" y1="20.11" x2="308.2" y2="20.11" gradientTransform="matrix(1, 0, 0, -1, 0, 127.7)" gradientUnits="userSpaceOnUse"><stop offset="0" stop-color="#326ebd"></stop><stop offset="0.1" stop-color="#3d76c1"></stop><stop offset="0.29" stop-color="#5c8cca"></stop><stop offset="0.53" stop-color="#8dafda"></stop><stop offset="0.82" stop-color="#d1def0"></stop><stop offset="1" stop-color="#fff"></stop></linearGradient></defs><g id="Layer_2" data-name="Layer 2"><g id="Layer_1-2" data-name="Layer 1"><path class="cls-1" d="M264.66,174.1c58-36.58,58-96.44,0-133S111.88,4.5,54.15,41.08s-57.72,96.44,0,133S206.61,210.68,264.66,174.1Z"></path><path class="cls-2" d="M290,104.83V79.11h-9.48c-7.06-10.61-18-20.55-32.81-29.07C191.07,17.51,98.6,17.51,42.26,50,27.51,58.56,16.66,68.5,9.63,79.11H.07V107h0c-1,22.16,13,44.51,42.17,61.33,56.35,32.53,148.81,32.53,205.47,0C278,151,292.07,127.7,290,104.83Z"></path><path class="cls-3" d="M247.73,142.69c56.67-32.53,56.67-85.76,0-118.29S98.6-8.13,42.26,24.4s-56.35,85.76,0,118.29S191.07,175.22,247.73,142.69Z"></path></g></g></svg> 