<?xml version="1.0" encoding="UTF-8"?> <!-- Generator: Adobe Illustrator 24.3.0, SVG Export Plug-In . SVG Version: 6.00 Build 0) --> <svg xmlns="http://www.w3.org/2000/svg" xmlns:xlink="http://www.w3.org/1999/xlink" version="1.1" id="Layer_1" x="0px" y="0px" viewBox="0 0 208 209.3" style="enable-background:new 0 0 208 209.3;" xml:space="preserve"> <style type="text/css"> .st0{fill:#162C53;} .st1{fill:#FFFFFF;} .st2{fill:#F26424;} </style> <g id="C"> </g> <path class="st0" d="M208,209.3H0v-169C11.6,26.9,23.1,13.5,34.7,0h138.5c11.6,13.5,23.1,26.9,34.7,40.4V209.3z"></path> <g> <path class="st1" d="M42.9,46.1c-0.2,0-0.3-0.1-0.4-0.3l-3-10.7h-0.1l-3,10.7c-0.1,0.2-0.2,0.3-0.4,0.3h-3.5 c-0.2,0-0.3-0.1-0.4-0.3L27,27.2c0-0.1,0-0.3,0.2-0.3h4.7c0.2,0,0.4,0.1,0.4,0.3l2.4,11.2h0.1l3-11.2c0.1-0.2,0.2-0.3,0.4-0.3h2.9 c0.2,0,0.3,0.1,0.4,0.3l3.1,11.2h0.1l2.4-11.2c0-0.1,0.2-0.3,0.4-0.3h4.7c0.2,0,0.2,0.1,0.2,0.3l-5.2,18.6 c-0.1,0.2-0.2,0.3-0.4,0.3H42.9L42.9,46.1z M55.8,46.1c-0.2,0-0.3-0.2-0.3-0.3V27.2c0-0.1,0.2-0.3,0.3-0.3h7.7 c4.7,0,7.1,2.7,7.1,6.4s-2.4,6.4-7.1,6.4h-2.8c-0.2,0-0.2,0.1-0.2,0.2v5.9c0,0.2-0.2,0.3-0.3,0.3L55.8,46.1L55.8,46.1L55.8,46.1z M65.6,33.3c0-1.3-0.9-2.1-2.4-2.1h-2.5c-0.2,0-0.2,0.1-0.2,0.1v4c0,0.2,0.1,0.2,0.2,0.2h2.5C64.7,35.5,65.6,34.6,65.6,33.3 L65.6,33.3z M77.2,41.4c-0.4-1-0.5-2.3-0.5-4.8c0-2.4,0.2-3.8,0.5-4.8c1-3,3.3-4.6,6.4-4.6c3.1,0,5.4,1.5,6.4,4.6 c0.4,1,0.5,2.2,0.5,4.5c0,0.2-0.2,0.4-0.4,0.4H77.9c-0.2,0-0.2,0.2-0.2,0.3c0,2,0.2,3.1,0.4,4.1c0.9,2.7,2.9,3.9,5.6,3.9 c2.5,0,4.4-1.1,5.5-2.6c0.2-0.2,0.4-0.2,0.5-0.1l0.2,0.2c0.2,0.2,0.2,0.4,0.1,0.5c-1.3,1.8-3.4,3-6.2,3 C80.4,46,78.2,44.5,77.2,41.4L77.2,41.4z M89.2,35.6c0.2,0,0.2-0.1,0.2-0.2c0-1.3-0.2-2.3-0.4-3.2c-0.8-2.6-2.7-3.9-5.3-3.9 c-2.6,0-4.5,1.3-5.3,3.9c-0.3,0.9-0.4,1.8-0.4,3.2c0,0.2,0.1,0.2,0.2,0.2H89.2z M107.6,45.7c-0.2,0-0.4-0.2-0.4-0.4V34.5 c0-4.3-1.8-6.1-5.2-6.1c-3,0-5.6,2.1-5.6,5.6v11.4c0,0.2-0.2,0.4-0.4,0.4h-0.4c-0.2,0-0.4-0.2-0.4-0.4V28.1c0-0.2,0.2-0.4,0.4-0.4 H96c0.2,0,0.4,0.1,0.4,0.4v2.5h0.1c0.9-2.1,3-3.3,5.6-3.3c4.1,0,6.4,2.3,6.4,7v11.1c0,0.2-0.2,0.4-0.4,0.4L107.6,45.7L107.6,45.7z M113.8,50.3c-0.2-0.2-0.2-0.4,0.1-0.5l0.3-0.2c0.2-0.2,0.4-0.1,0.5,0.2c1,1.3,2.6,2.1,4.8,2.1c3.4,0,5.6-1.7,5.6-6.1v-3H125 c-0.9,2-2.4,3.4-5.6,3.4c-3,0-5.1-1.6-6-4.3c-0.4-1.3-0.6-2.9-0.6-5.1c0-2.2,0.2-3.9,0.6-5.1c0.9-2.7,3-4.3,6-4.3 c3.2,0,4.7,1.4,5.6,3.4h0.1v-2.6c0-0.2,0.2-0.4,0.4-0.4h0.4c0.2,0,0.4,0.1,0.4,0.4v17.7c0,5-2.7,7.2-6.8,7.2 C116.8,52.9,114.7,51.7,113.8,50.3z M124.6,41.4c0.4-1.1,0.5-2.4,0.5-4.7c0-2.2-0.2-3.6-0.5-4.7c-0.9-2.7-2.8-3.6-5-3.6 c-2.4,0-4.2,1.2-5,3.5c-0.4,1.1-0.6,2.7-0.6,4.7s0.2,3.6,0.6,4.7c0.8,2.4,2.5,3.5,5,3.5C121.8,45,123.8,44,124.6,41.4z M132.4,22.1 c-0.2,0-0.4-0.1-0.4-0.4v-1.5c0-0.2,0.1-0.4,0.4-0.4h0.9c0.2,0,0.4,0.1,0.4,0.4v1.5c0,0.2-0.1,0.4-0.4,0.4L132.4,22.1L132.4,22.1z M132.7,45.7c-0.2,0-0.4-0.2-0.4-0.4V28.1c0-0.2,0.1-0.4,0.4-0.4h0.4c0.2,0,0.4,0.1,0.4,0.4v17.2c0,0.2-0.1,0.4-0.4,0.4H132.7 L132.7,45.7z M151.9,45.7c-0.2,0-0.4-0.2-0.4-0.4V34.5c0-4.3-1.8-6.1-5.2-6.1c-3,0-5.6,2.1-5.6,5.6v11.4c0,0.2-0.1,0.4-0.4,0.4H140 c-0.2,0-0.4-0.2-0.4-0.4V28.1c0-0.2,0.1-0.4,0.4-0.4h0.4c0.2,0,0.4,0.1,0.4,0.4v2.5h0.1c0.9-2.1,3-3.3,5.6-3.3c4.1,0,6.4,2.3,6.4,7 v11.1c0,0.2-0.1,0.4-0.4,0.4L151.9,45.7L151.9,45.7z M157.7,41.4c-0.4-1-0.5-2.3-0.5-4.8c0-2.4,0.2-3.8,0.5-4.8 c1-3,3.3-4.6,6.4-4.6c3.1,0,5.4,1.5,6.4,4.6c0.4,1,0.5,2.2,0.5,4.5c0,0.2-0.1,0.4-0.4,0.4h-12.1c-0.1,0-0.2,0.2-0.2,0.3 c0,2,0.1,3.1,0.4,4.1c0.9,2.7,2.9,3.9,5.6,3.9c2.5,0,4.4-1.1,5.5-2.6c0.1-0.2,0.4-0.2,0.5-0.1l0.2,0.2c0.2,0.2,0.2,0.4,0.1,0.5 c-1.3,1.8-3.4,3-6.2,3C161,46,158.7,44.5,157.7,41.4L157.7,41.4z M169.6,35.6c0.1,0,0.2-0.1,0.2-0.2c0-1.3-0.1-2.3-0.4-3.2 c-0.8-2.6-2.7-3.9-5.3-3.9s-4.5,1.3-5.3,3.9c-0.3,0.9-0.4,1.8-0.4,3.2c0,0.2,0.1,0.2,0.2,0.2H169.6z M173.2,29.5 c0-1.3,1-2.2,2.2-2.2s2.2,1,2.2,2.2s-1,2.2-2.2,2.2S173.2,30.7,173.2,29.5z M177.2,29.5c0-1.1-0.8-1.9-1.9-1.9 c-1.1,0-1.9,0.8-1.9,1.9c0,1.1,0.8,1.9,1.9,1.9C176.4,31.3,177.2,30.6,177.2,29.5z M174.7,30.7C174.6,30.7,174.6,30.7,174.7,30.7 l-0.1-2.4c0-0.1,0-0.1,0.1-0.1h0.9c0.5,0,0.8,0.3,0.8,0.7c0,0.3-0.1,0.6-0.5,0.7l0.5,1c0.1,0.1,0,0.1-0.1,0.1h-0.2 c-0.1,0-0.1-0.1-0.1-0.1l-0.5-1h-0.5v0.9c0,0.1-0.1,0.1-0.1,0.1L174.7,30.7L174.7,30.7z M176,29c0-0.2-0.1-0.4-0.4-0.4H175v0.7h0.6 C175.8,29.3,176,29.2,176,29z"></path> </g> <g> <path class="st2" d="M44.3,99.6h-5.3L36.9,93h-9.6l-2,6.6h-5.2l9.4-29.3h5.1L44.3,99.6z M35.4,88l-3.3-10.9L28.8,88H35.4z"></path> <path class="st2" d="M62.2,88.8v-5h10.5v11.7c-1.1,1.2-2.6,2.3-4.5,3.2s-3.9,1.3-5.8,1.3c-2.4,0-4.5-0.6-6.3-1.8 c-1.8-1.2-3.2-2.9-4.3-5.2s-1.6-5.1-1.6-8.2c0-3.2,0.5-6,1.6-8.3s2.5-4,4.2-5.1s3.8-1.7,6.2-1.7c2.9,0,5.2,0.7,6.9,2.2 c1.7,1.5,2.8,3.6,3.3,6.4l-4.8,1.1c-0.4-1.5-1-2.7-2-3.5s-2.1-1.2-3.4-1.2c-2.1,0-3.7,0.8-5,2.4s-1.9,4.1-1.9,7.3 c0,3.5,0.7,6.2,2.1,8.1c1.2,1.6,2.8,2.4,4.8,2.4c1,0,1.9-0.2,2.9-0.7s1.9-1.1,2.7-1.8v-3.7H62.2z"></path> <path class="st2" d="M81.2,99.6V70.3h17.9v5h-13v6.5h12.1v4.9H86.1v8h13.4v5L81.2,99.6L81.2,99.6z"></path> <path class="st2" d="M107.8,99.6V70.3h4.7l9.8,19.6V70.3h4.5v29.3H122l-9.7-19.1v19.1H107.8z"></path> <path class="st2" d="M151.5,88.8l4.7,1.8c-0.7,3.3-1.9,5.7-3.7,7.2s-3.8,2.3-6.3,2.3c-3.1,0-5.7-1.2-7.6-3.6 c-2.2-2.8-3.4-6.6-3.4-11.3c0-5,1.1-8.9,3.4-11.8c2-2.4,4.6-3.7,7.9-3.7c2.7,0,4.9,0.9,6.8,2.8c1.3,1.3,2.2,3.2,2.8,5.8l-4.8,1.4 c-0.3-1.6-0.9-2.8-1.8-3.7c-0.9-0.8-2-1.3-3.2-1.3c-1.8,0-3.2,0.8-4.4,2.3c-1.1,1.6-1.7,4.1-1.7,7.7c0,3.7,0.6,6.3,1.6,7.9 s2.5,2.3,4.3,2.3c1.3,0,2.4-0.5,3.3-1.5C150.4,92.6,151.1,91,151.5,88.8z"></path> <path class="st2" d="M170.7,99.6V87.3l-8.8-17h5.7l5.6,11.6l5.6-11.6h5.6l-8.8,17v12.3L170.7,99.6L170.7,99.6z"></path> </g> <g> <path class="st1" d="M22.2,144.4v-21.5h5.7c2.1,0,3.5,0.1,4.2,0.3c1,0.3,1.9,1,2.6,2.1s1,2.5,1,4.2c0,1.6-0.3,2.9-0.9,3.9 s-1.3,1.8-2.2,2.2c-0.9,0.4-2.4,0.6-4.5,0.6h-2.3v8.1H22.2z M25.8,126.6v6.1h2c1.3,0,2.2-0.1,2.7-0.3s0.9-0.5,1.2-1 c0.3-0.5,0.5-1.1,0.5-1.8c0-0.7-0.2-1.3-0.5-1.8s-0.7-0.8-1.2-1s-1.4-0.2-2.9-0.2H25.8z"></path> <path class="st1" d="M60.2,144.4h-3.9l-1.5-4.9h-7l-1.5,4.9h-3.8l6.9-21.5h3.8L60.2,144.4z M53.7,135.9l-2.4-8l-2.4,8H53.7z"></path> <path class="st1" d="M69.6,144.4v-21.5h7.5c1.9,0,3.3,0.2,4.1,0.6s1.5,1.1,2,2s0.8,2.1,0.8,3.4c0,1.7-0.4,3-1.2,4.1 s-1.9,1.7-3.4,1.9c0.8,0.6,1.4,1.1,1.9,1.8c0.5,0.7,1.2,1.8,2,3.5l2.1,4.2h-4.2l-2.6-4.7c-0.9-1.7-1.6-2.8-1.9-3.2 s-0.7-0.7-1.1-0.9s-1-0.2-1.8-0.2h-0.7v9L69.6,144.4L69.6,144.4z M73.1,132h2.6c1.6,0,2.6-0.1,3.1-0.2s0.8-0.4,1.1-0.9 c0.3-0.4,0.4-1,0.4-1.7c0-0.7-0.1-1.2-0.4-1.7s-0.6-0.7-1.1-0.9c-0.3-0.1-1.3-0.2-2.9-0.2h-2.8L73.1,132L73.1,132z"></path> <path class="st1" d="M98.8,144.4v-17.8h-5.2v-3.6h14v3.6h-5.2v17.8C102.3,144.4,98.8,144.4,98.8,144.4z"></path> <path class="st1" d="M117.4,144.4v-21.5h3.5l7.2,14.3v-14.3h3.3v21.5h-3.6l-7.1-14v14L117.4,144.4L117.4,144.4z"></path> <path class="st1" d="M142.6,144.4v-21.5h13.1v3.6h-9.5v4.8h8.9v3.6h-8.9v5.8h9.8v3.6H142.6z"></path> <path class="st1" d="M166.5,144.4v-21.5h7.5c1.9,0,3.3,0.2,4.1,0.6s1.5,1.1,2,2s0.8,2.1,0.8,3.4c0,1.7-0.4,3-1.2,4.1 s-1.9,1.7-3.4,1.9c0.8,0.6,1.4,1.1,1.9,1.8c0.5,0.7,1.2,1.8,2,3.5l2.1,4.2h-4.2l-2.6-4.7c-0.9-1.7-1.6-2.8-1.9-3.2 s-0.7-0.7-1.1-0.9c-0.4-0.2-1-0.2-1.8-0.2h-0.7v9L166.5,144.4L166.5,144.4z M170.1,132h2.6c1.6,0,2.6-0.1,3.1-0.2s0.8-0.4,1.1-0.9 c0.3-0.4,0.4-1,0.4-1.7c0-0.7-0.1-1.2-0.4-1.7s-0.6-0.7-1.1-0.9c-0.3-0.1-1.3-0.2-2.9-0.2h-2.8L170.1,132L170.1,132z"></path> </g> <g> <g> <rect x="20.2" y="162.7" class="st2" width="164.3" height="31.8"></rect> </g> <g> <path class="st1" d="M42.6,188.9V170h3.1l3.7,13.4l0.7,2.8c0.2-0.7,0.5-1.7,0.8-3l3.7-13.2h2.8v18.9h-2v-15.8l-4.5,15.8H49 l-4.5-16.1v16.1L42.6,188.9L42.6,188.9z"></path> <path class="st1" d="M66,188.9V170h11.2v2.2H68v5.8h8.6v2.2H68v6.4h9.5v2.2L66,188.9L66,188.9z"></path> <path class="st1" d="M85.6,188.9V170h3.1l3.7,13.4l0.7,2.8c0.2-0.7,0.5-1.7,0.8-3l3.7-13.2h2.8v18.9h-2v-15.8l-4.5,15.8H92 l-4.5-16.1v16.1L85.6,188.9L85.6,188.9z"></path> <path class="st1" d="M108.9,188.9V170h5.8c1.2,0,2.1,0.2,2.8,0.6c0.7,0.4,1.2,0.9,1.7,1.7s0.7,1.6,0.7,2.6c0,0.9-0.2,1.6-0.6,2.3 c-0.4,0.7-0.9,1.2-1.6,1.7c0.9,0.3,1.6,0.9,2.1,1.7c0.5,0.8,0.8,1.8,0.8,2.9c0,1.1-0.2,2.1-0.7,3c-0.5,0.9-1.1,1.5-1.9,1.9 c-0.8,0.4-1.9,0.6-3.2,0.6H108.9z M110.9,177.9h3.4c0.9,0,1.5-0.1,1.9-0.2c0.5-0.2,0.9-0.5,1.2-0.9c0.3-0.4,0.4-1,0.4-1.7 c0-0.7-0.1-1.2-0.4-1.7s-0.6-0.8-1.1-0.9s-1.2-0.3-2.3-0.3h-3.1C110.9,172.2,110.9,177.9,110.9,177.9z M110.9,186.7h3.9 c0.8,0,1.5-0.1,1.9-0.2c0.6-0.2,1-0.6,1.3-1.1c0.3-0.5,0.5-1.1,0.5-1.9c0-0.7-0.2-1.3-0.4-1.8c-0.3-0.5-0.7-0.9-1.2-1.1 c-0.5-0.2-1.3-0.3-2.3-0.3h-3.6L110.9,186.7z"></path> <path class="st1" d="M128.7,188.9V170h11.2v2.2h-9.1v5.8h8.6v2.2h-8.6v6.4h9.5v2.2L128.7,188.9L128.7,188.9z"></path> <path class="st1" d="M148.4,188.9V170h6.9c1.4,0,2.5,0.2,3.2,0.5c0.7,0.4,1.2,0.9,1.7,1.8c0.4,0.8,0.7,1.8,0.7,2.9 c0,1.4-0.4,2.6-1.1,3.5c-0.7,0.9-1.8,1.4-3.2,1.7c0.6,0.4,1,0.7,1.3,1.1c0.6,0.7,1.1,1.5,1.6,2.4l2.7,5.1h-2.6l-2.1-3.9 c-0.8-1.5-1.4-2.6-1.8-3.1c-0.4-0.5-0.8-0.9-1.2-1.1c-0.4-0.2-0.9-0.3-1.6-0.3h-2.4v8.4L148.4,188.9L148.4,188.9z M150.4,178.3 h4.4c1,0,1.7-0.1,2.2-0.4c0.5-0.2,0.9-0.6,1.2-1.1c0.3-0.5,0.4-1.1,0.4-1.7c0-0.9-0.3-1.7-0.8-2.2s-1.4-0.8-2.5-0.8h-4.9 L150.4,178.3L150.4,178.3z"></path> </g> </g> </svg> 