<?xml version="1.0" encoding="UTF-8"?> <!-- Generator: Adobe Illustrator 24.3.0, SVG Export Plug-In . SVG Version: 6.00 Build 0) --> <svg xmlns="http://www.w3.org/2000/svg" xmlns:xlink="http://www.w3.org/1999/xlink" version="1.1" id="Layer_1" x="0px" y="0px" viewBox="0 0 220.59 234.04" style="enable-background:new 0 0 220.59 234.04;" xml:space="preserve"> <style type="text/css"> .st0{fill:#1A7CB5;} .st1{fill:#555555;} .st2{fill-rule:evenodd;clip-rule:evenodd;fill:#CBCCCB;} .st3{clip-path:url(#SVGID_2_);} .st4{fill:#1979B1;} .st5{fill:#1A79B2;} .st6{fill:#1A7AB2;} .st7{fill:#1B7BB2;} .st8{fill:#1B7BB3;} .st9{fill:#1C7CB3;} .st10{fill:#1D7DB4;} .st11{fill:#1D7EB5;} .st12{fill:#1E7FB5;} .st13{fill:#1F80B6;} .st14{fill:#1F81B6;} .st15{clip-path:url(#SVGID_4_);} .st16{fill:#1B7AB2;} .st17{fill:#1C7BB3;} .st18{fill:#1D7CB3;} .st19{fill:#1E7DB4;} .st20{fill:#1F7EB4;} .st21{clip-path:url(#SVGID_6_);} .st22{clip-path:url(#SVGID_8_);} .st23{fill:#FFFFFF;} .st24{fill:#16232C;} .st25{fill:#23B573;} .st26{fill-rule:evenodd;clip-rule:evenodd;fill:#16232C;} .st27{fill:#20B574;} .st28{fill:#162C53;} .st29{fill:#F26424;} .st30{fill:none;stroke:#262727;stroke-width:5.2588;stroke-miterlimit:21.0353;} .st31{fill:#262727;} </style> <g id="C"> </g> <g> <g> <g> <path class="st31" d="M121.5,233.04c-11.86,0-23.66-1.8-35.82-5.43c-16.33-4.79-29.88-12.09-41.41-22.31 c-9.62-8.66-17.35-19.07-23.65-31.84c-9.26-18.65-15.35-38.25-18.1-58.26c-2.07-15.18-1.59-27.74,1.53-39.53 c3.13-12.09,9.34-22.56,18.99-32.01c8.16-7.99,18.12-14.91,30.46-21.16c17.79-8.85,35.79-14.95,53.49-18.13 c14.85-2.72,28.07-2.81,40.41-0.3c12.52,2.62,23.42,8.41,33.33,17.7c9.35,8.73,17.28,19.77,24.23,33.74 c7.41,15.01,12.29,30.42,14.5,45.81c2.22,16.06,1.17,32.05-3.12,47.55c-1.19,3.96-2.48,7.83-3.52,10.95 c-0.37,1.1-0.71,2.13-1.02,3.05l0.37-0.17l-1.19,2.72c-8.76,20.02-17.93,33.93-29.75,45.12c-13.6,12.98-30.31,20.41-49.66,22.08 C128.21,232.9,124.85,233.04,121.5,233.04z"></path> </g> </g> <g> <g> <path class="st23" d="M114.41,97.84c-4.15,0-8.25-0.62-12.52-1.9c-5.71-1.68-10.45-4.23-14.49-7.81 c-3.37-3.04-6.09-6.68-8.29-11.15c-3.22-6.49-5.34-13.31-6.3-20.27c-0.73-5.31-0.55-9.71,0.54-13.86 c1.11-4.27,3.3-7.96,6.7-11.29c2.85-2.79,6.33-5.21,10.64-7.4c6.19-3.08,12.45-5.2,18.61-6.31c5.2-0.95,9.8-0.98,14.14-0.1 c4.43,0.93,8.27,2.97,11.77,6.25c3.28,3.06,6.05,6.92,8.47,11.8c2.59,5.24,4.29,10.61,5.06,15.97 c0.78,5.62,0.41,11.21-1.09,16.63c-0.41,1.39-0.86,2.72-1.22,3.8c-0.27,0.8-0.47,1.42-0.61,1.88 c-3.09,7.07-6.3,11.95-10.43,15.86c-4.78,4.57-10.66,7.18-17.46,7.76C116.77,97.79,115.59,97.84,114.41,97.84z M116.97,18.12 c-2.37,0-4.82,0.24-7.48,0.72c-6.07,1.09-12.24,3.18-18.34,6.22c-4.22,2.14-7.62,4.5-10.39,7.22c-3.27,3.2-5.37,6.74-6.43,10.83 c-1.06,4.02-1.22,8.29-0.52,13.47c0.94,6.85,3.03,13.57,6.2,19.96c2.15,4.35,4.79,7.9,8.06,10.85c3.92,3.48,8.54,5.96,14.11,7.6 c4.18,1.25,8.18,1.86,12.24,1.86c1.15,0,2.3-0.05,3.44-0.15c6.57-0.57,12.24-3.09,16.86-7.49c4.03-3.82,7.17-8.59,10.18-15.48 c0.12-0.41,0.33-1.04,0.6-1.85c0.36-1.07,0.8-2.4,1.21-3.76c1.46-5.27,1.82-10.73,1.06-16.21c-0.75-5.26-2.42-10.53-4.96-15.67 c-2.37-4.77-5.07-8.53-8.26-11.51c-3.36-3.15-7.05-5.11-11.29-6C121.25,18.32,119.13,18.12,116.97,18.12z"></path> </g> <g> <g> <g> <path class="st23" d="M99.38,48.23v-4.8h21.29v4.8h-7.79v21.18h-5.71V48.23H99.38"></path> </g> </g> </g> </g> <g> <g> <path class="st23" d="M14.95,111.46v-5.93h26.28v5.93h-9.61v26.15h-7.05v-26.15H14.95"></path> </g> </g> <g> <g> <path class="st23" d="M47.95,144.53c-1.23,0.81-2.94,1.21-5.12,1.21c-0.66,0-1.31-0.02-1.95-0.07c-0.64-0.05-1.3-0.1-1.95-0.16 v-5.26c0.6,0.06,1.21,0.12,1.84,0.18c0.63,0.06,1.26,0.07,1.89,0.05c0.84-0.09,1.46-0.42,1.86-0.99c0.4-0.55,0.61-1.21,0.61-1.89 c0-0.51-0.09-0.99-0.27-1.44l-8.13-21.79h6.78l5.26,15.9h0.09l5.08-15.9h6.6l-9.7,26.1C50.13,142.37,49.17,143.72,47.95,144.53 M68.85,114.38v2.97h0.09c0.78-1.26,1.77-2.17,2.96-2.74s2.52-0.85,3.95-0.85c1.83,0,3.4,0.34,4.72,1.03 c1.32,0.69,2.41,1.6,3.28,2.74c0.87,1.14,1.51,2.46,1.93,3.98c0.42,1.51,0.63,3.09,0.63,4.74c0,1.56-0.21,3.05-0.63,4.49 c-0.42,1.44-1.06,2.71-1.91,3.82c-0.85,1.11-1.92,1.99-3.19,2.65c-1.27,0.66-2.76,0.99-4.47,0.99c-1.44,0-2.76-0.29-3.98-0.88 c-1.21-0.58-2.21-1.44-2.99-2.58h-0.09v11.37h-6.38v-31.72H68.85z M77.15,132.78c0.69-0.41,1.27-0.97,1.71-1.64 c0.43-0.67,0.74-1.46,0.92-2.36c0.18-0.9,0.27-1.81,0.27-2.74c0-0.92-0.1-1.84-0.29-2.74c-0.2-0.9-0.52-1.7-0.97-2.4 c-0.44-0.69-1.03-1.28-1.73-1.71c-0.7-0.43-1.56-0.65-2.58-0.65c-1.05,0-1.92,0.22-2.63,0.65c-0.69,0.42-1.28,1-1.71,1.69 c-0.43,0.69-0.74,1.48-0.92,2.38c-0.18,0.92-0.27,1.85-0.27,2.79c0,0.93,0.1,1.84,0.29,2.74c0.19,0.9,0.51,1.68,0.94,2.36 c0.43,0.67,1.01,1.22,1.73,1.64c0.72,0.42,1.59,0.63,2.61,0.63C75.57,133.41,76.44,133.2,77.15,132.78L77.15,132.78z M96.64,132.04c0.96,0.93,2.34,1.39,4.13,1.39c1.29,0,2.4-0.32,3.32-0.97c0.93-0.64,1.5-1.33,1.71-2.04h5.62 c-0.9,2.79-2.28,4.78-4.13,5.97c-1.86,1.2-4.1,1.8-6.74,1.8c-1.83,0-3.47-0.29-4.94-0.88c-1.47-0.58-2.71-1.41-3.73-2.49 c-1.02-1.08-1.8-2.37-2.36-3.86c-0.55-1.5-0.83-3.15-0.83-4.94c0-1.74,0.28-3.35,0.85-4.85c0.57-1.5,1.38-2.79,2.43-3.89 c1.05-1.09,2.3-1.95,3.75-2.58c1.45-0.63,3.06-0.94,4.83-0.94c1.98,0,3.7,0.38,5.17,1.15c1.47,0.76,2.67,1.79,3.62,3.08 c0.94,1.29,1.62,2.76,2.04,4.4c0.42,1.65,0.57,3.37,0.45,5.17H95.06C95.15,129.61,95.68,131.11,96.64,132.04L96.64,132.04z M103.85,119.82c-0.76-0.84-1.92-1.26-3.48-1.26c-1.02,0-1.86,0.17-2.54,0.52c-0.67,0.35-1.21,0.77-1.62,1.28 c-0.4,0.51-0.69,1.05-0.85,1.62c-0.17,0.57-0.26,1.08-0.29,1.53h10.38C105.14,121.88,104.61,120.66,103.85,119.82L103.85,119.82z M111.9,118.65v-4.27h3.82v-1.8c0-2.07,0.64-3.76,1.93-5.08c1.29-1.32,3.23-1.98,5.84-1.98c0.57,0,1.14,0.02,1.71,0.07 c0.57,0.05,1.12,0.08,1.66,0.11v4.76c-0.78-0.09-1.56-0.14-2.34-0.13c-0.87,0-1.49,0.2-1.86,0.61c-0.37,0.4-0.56,1.09-0.56,2.04 v1.39h4.4v4.27h-4.4v18.96h-6.38v-18.96H111.9 M127.34,120.96c0.57-1.51,1.38-2.8,2.43-3.86c1.05-1.06,2.31-1.89,3.77-2.47 c1.47-0.58,3.11-0.88,4.94-0.88c1.83,0,3.48,0.29,4.97,0.88c1.48,0.58,2.75,1.41,3.8,2.47c1.05,1.06,1.86,2.35,2.43,3.86 c0.57,1.51,0.85,3.2,0.85,5.05s-0.29,3.53-0.85,5.03c-0.57,1.5-1.38,2.78-2.43,3.84c-1.05,1.06-2.31,1.88-3.8,2.45 c-1.48,0.57-3.14,0.85-4.97,0.85c-1.83,0-3.47-0.29-4.94-0.85c-1.47-0.57-2.73-1.38-3.77-2.45c-1.05-1.06-1.86-2.34-2.43-3.84 c-0.57-1.5-0.85-3.17-0.85-5.03C126.49,124.16,126.77,122.47,127.34,120.96z M133.14,128.73c0.18,0.88,0.49,1.68,0.92,2.38 c0.43,0.7,1.02,1.28,1.73,1.69c0.72,0.42,1.62,0.63,2.69,0.63c1.08,0,1.98-0.21,2.72-0.63c0.73-0.42,1.32-0.98,1.75-1.69 c0.43-0.7,0.74-1.5,0.92-2.38c0.18-0.88,0.27-1.79,0.27-2.72c0-0.93-0.09-1.84-0.27-2.74c-0.18-0.9-0.49-1.69-0.92-2.38 c-0.43-0.69-1.02-1.25-1.75-1.69c-0.73-0.43-1.64-0.65-2.72-0.65c-1.08,0-1.98,0.22-2.69,0.65c-0.7,0.42-1.29,0.99-1.73,1.69 c-0.44,0.69-0.74,1.48-0.92,2.38c-0.18,0.9-0.27,1.82-0.27,2.74C132.87,126.95,132.96,127.85,133.14,128.73z M158.89,114.38v4.31 h0.09c0.3-0.72,0.7-1.38,1.21-2c0.51-0.61,1.09-1.14,1.75-1.57c0.65-0.43,1.37-0.77,2.11-1.01c0.75-0.24,1.54-0.36,2.34-0.36 c0.42,0,0.88,0.08,1.39,0.22v5.93c-0.36-0.07-0.72-0.12-1.08-0.16c-0.4-0.04-0.81-0.07-1.21-0.07c-1.17,0-2.16,0.2-2.96,0.58 c-0.81,0.39-1.46,0.92-1.95,1.59c-0.49,0.67-0.85,1.46-1.06,2.36c-0.21,0.9-0.31,1.87-0.31,2.92v10.47h-6.38v-23.23H158.89 M176.07,114.38v3.14h0.09c0.84-1.2,1.85-2.13,3.03-2.79c1.18-0.66,2.54-0.99,4.07-0.99c1.47,0,2.81,0.28,4.02,0.85 c1.21,0.57,2.13,1.57,2.76,3.01c0.69-1.02,1.62-1.92,2.81-2.7c1.18-0.78,2.58-1.17,4.2-1.17c1.23,0,2.37,0.15,3.41,0.45 c1.05,0.3,1.95,0.78,2.7,1.44c0.75,0.66,1.33,1.52,1.75,2.58c0.42,1.06,0.63,2.34,0.63,3.84v15.54h-6.38v-13.16 c0-0.78-0.03-1.51-0.09-2.2c-0.06-0.69-0.22-1.29-0.49-1.8c-0.27-0.51-0.67-0.91-1.19-1.21c-0.52-0.3-1.23-0.45-2.13-0.45 c-0.9,0-1.62,0.17-2.18,0.52c-0.54,0.33-0.99,0.8-1.3,1.35c-0.31,0.55-0.52,1.18-0.63,1.89c-0.11,0.71-0.16,1.42-0.16,2.13v12.94 h-6.38v-13.03c0-0.69-0.01-1.37-0.05-2.04c-0.03-0.67-0.16-1.3-0.38-1.86c-0.22-0.57-0.6-1.03-1.12-1.37 c-0.53-0.34-1.3-0.52-2.31-0.52c-0.3,0-0.7,0.07-1.19,0.2s-0.97,0.39-1.44,0.76c-0.46,0.37-0.86,0.91-1.19,1.62 c-0.33,0.7-0.49,1.62-0.49,2.76v13.48h-6.38v-23.23H176.07"></path> </g> </g> <g> <g> <g> <path class="st23" d="M45.65,173.39l1.95,0.25c-0.21,1.34-0.76,2.4-1.64,3.16c-0.88,0.76-1.96,1.14-3.24,1.14 c-1.6,0-2.89-0.52-3.86-1.57c-0.97-1.05-1.46-2.55-1.46-4.5c0-1.26,0.21-2.37,0.63-3.32s1.06-1.66,1.91-2.13 c0.86-0.47,1.79-0.71,2.79-0.71c1.27,0,2.31,0.32,3.12,0.96c0.81,0.64,1.33,1.56,1.55,2.74l-1.93,0.3 c-0.18-0.79-0.51-1.38-0.98-1.77c-0.47-0.4-1.03-0.6-1.69-0.6c-1,0-1.81,0.36-2.44,1.07c-0.62,0.72-0.94,1.85-0.94,3.4 c0,1.57,0.3,2.72,0.9,3.43c0.6,0.71,1.39,1.07,2.36,1.07c0.78,0,1.43-0.24,1.95-0.72C45.18,175.12,45.51,174.39,45.65,173.39z"></path> </g> </g> </g> <g> <g> <g> <path class="st23" d="M57.31,173.91l2.05,0.25c-0.32,1.2-0.92,2.13-1.8,2.79c-0.87,0.66-1.99,0.99-3.35,0.99 c-1.71,0-3.07-0.53-4.07-1.58c-1-1.05-1.5-2.53-1.5-4.44c0-1.97,0.51-3.5,1.52-4.59c1.01-1.09,2.33-1.63,3.95-1.63 c1.57,0,2.84,0.53,3.84,1.6c0.99,1.07,1.49,2.56,1.49,4.5c0,0.12,0,0.29-0.01,0.53h-8.73c0.07,1.29,0.44,2.27,1.09,2.95 c0.65,0.68,1.47,1.03,2.45,1.03c0.73,0,1.35-0.19,1.86-0.57C56.6,175.36,57.01,174.75,57.31,173.91z M50.79,170.7h6.54 c-0.09-0.98-0.34-1.72-0.75-2.22c-0.63-0.76-1.45-1.15-2.46-1.15c-0.91,0-1.68,0.31-2.3,0.92 C51.2,168.87,50.86,169.68,50.79,170.7z"></path> </g> </g> </g> <g> <g> <g> <path class="st23" d="M61.83,177.68v-11.71h1.79v1.77c0.46-0.83,0.88-1.38,1.26-1.64s0.81-0.4,1.27-0.4 c0.67,0,1.35,0.21,2.04,0.64l-0.68,1.84c-0.48-0.29-0.97-0.43-1.45-0.43c-0.43,0-0.82,0.13-1.17,0.39 c-0.35,0.26-0.59,0.62-0.74,1.09c-0.22,0.71-0.33,1.48-0.33,2.32v6.13H61.83z"></path> </g> </g> </g> <g> <g> <g> <path class="st23" d="M73.7,175.91l0.29,1.75c-0.56,0.12-1.06,0.18-1.5,0.18c-0.72,0-1.28-0.11-1.68-0.34 c-0.4-0.23-0.68-0.53-0.84-0.9c-0.16-0.37-0.24-1.15-0.24-2.34v-6.73h-1.45v-1.54h1.45v-2.9l1.97-1.19v4.09h2v1.54h-2v6.85 c0,0.57,0.04,0.93,0.1,1.09c0.07,0.16,0.18,0.29,0.34,0.39c0.16,0.1,0.38,0.14,0.68,0.14C73.05,175.98,73.34,175.96,73.7,175.91 z"></path> </g> </g> </g> <g> <g> <g> <path class="st23" d="M75.65,163.8v-2.28h1.98v2.28H75.65z M75.65,177.68v-11.71h1.98v11.71H75.65z"></path> </g> </g> </g> <g> <g> <g> <path class="st23" d="M81.13,177.68v-10.16h-1.75v-1.54h1.75v-1.25c0-0.79,0.07-1.37,0.21-1.75c0.19-0.51,0.53-0.93,1.01-1.25 c0.48-0.32,1.16-0.48,2.02-0.48c0.56,0,1.18,0.07,1.85,0.2l-0.3,1.73c-0.41-0.07-0.8-0.11-1.17-0.11c-0.6,0-1.03,0.13-1.28,0.39 c-0.25,0.26-0.37,0.74-0.37,1.44v1.08h2.28v1.54H83.1v10.16H81.13z"></path> </g> </g> </g> <g> <g> <g> <path class="st23" d="M86.94,163.8v-2.28h1.98v2.28H86.94z M86.94,177.68v-11.71h1.98v11.71H86.94z"></path> </g> </g> </g> <g> <g> <g> <path class="st23" d="M99.96,173.91l2.05,0.25c-0.32,1.2-0.92,2.13-1.8,2.79c-0.87,0.66-1.99,0.99-3.35,0.99 c-1.71,0-3.07-0.53-4.07-1.58c-1-1.05-1.5-2.53-1.5-4.44c0-1.97,0.51-3.5,1.52-4.59c1.01-1.09,2.33-1.63,3.95-1.63 c1.56,0,2.84,0.53,3.84,1.6c0.99,1.07,1.49,2.56,1.49,4.5c0,0.12,0,0.29-0.01,0.53h-8.73c0.07,1.29,0.44,2.27,1.09,2.95 c0.65,0.68,1.47,1.03,2.45,1.03c0.73,0,1.35-0.19,1.86-0.57C99.25,175.36,99.65,174.75,99.96,173.91z M93.44,170.7h6.54 c-0.09-0.98-0.34-1.72-0.75-2.22c-0.63-0.76-1.45-1.15-2.46-1.15c-0.91,0-1.68,0.31-2.3,0.92 C93.85,168.87,93.51,169.68,93.44,170.7z"></path> </g> </g> </g> <g> <g> <g> <path class="st23" d="M112.09,177.68v-1.48c-0.74,1.16-1.83,1.74-3.27,1.74c-0.93,0-1.79-0.26-2.57-0.77s-1.39-1.23-1.82-2.15 c-0.43-0.92-0.64-1.98-0.64-3.18c0-1.17,0.19-2.23,0.58-3.18c0.39-0.95,0.97-1.68,1.75-2.19c0.78-0.51,1.65-0.76,2.61-0.76 c0.71,0,1.33,0.15,1.89,0.45c0.55,0.3,1,0.68,1.34,1.16v-5.8h1.97v16.16H112.09z M105.82,171.84c0,1.5,0.32,2.62,0.95,3.36 c0.63,0.74,1.38,1.11,2.24,1.11c0.87,0,1.6-0.35,2.21-1.06c0.61-0.71,0.91-1.79,0.91-3.25c0-1.6-0.31-2.78-0.93-3.53 c-0.62-0.75-1.38-1.12-2.28-1.12c-0.88,0-1.62,0.36-2.21,1.08C106.11,169.15,105.82,170.29,105.82,171.84z"></path> </g> </g> </g> <g> <g> <g> <path class="st23" d="M123.32,182.17v-16.19h1.81v1.52c0.43-0.6,0.91-1.04,1.44-1.34c0.54-0.3,1.19-0.45,1.95-0.45 c1,0,1.88,0.26,2.65,0.77c0.76,0.51,1.34,1.24,1.73,2.18c0.39,0.94,0.58,1.96,0.58,3.08c0,1.2-0.21,2.28-0.64,3.24 c-0.43,0.96-1.05,1.69-1.87,2.2c-0.82,0.51-1.68,0.77-2.59,0.77c-0.66,0-1.25-0.14-1.78-0.42c-0.53-0.28-0.96-0.63-1.3-1.06v5.7 H123.32z M125.12,171.89c0,1.51,0.3,2.62,0.92,3.34c0.61,0.72,1.35,1.08,2.22,1.08c0.88,0,1.64-0.37,2.26-1.12 c0.63-0.75,0.94-1.9,0.94-3.47c0-1.49-0.31-2.61-0.92-3.35c-0.61-0.74-1.35-1.11-2.2-1.11c-0.84,0-1.59,0.4-2.24,1.19 C125.45,169.24,125.12,170.39,125.12,171.89z"></path> </g> </g> </g> <g> <g> <g> <path class="st23" d="M143.52,176.24c-0.74,0.62-1.44,1.07-2.12,1.32c-0.68,0.26-1.41,0.39-2.19,0.39 c-1.29,0-2.27-0.31-2.97-0.94c-0.69-0.63-1.04-1.43-1.04-2.41c0-0.57,0.13-1.1,0.39-1.57s0.6-0.85,1.02-1.14 c0.42-0.29,0.9-0.5,1.43-0.65c0.39-0.1,0.98-0.2,1.76-0.3c1.6-0.19,2.78-0.42,3.54-0.68c0.01-0.27,0.01-0.44,0.01-0.52 c0-0.81-0.19-1.38-0.56-1.71c-0.51-0.45-1.26-0.67-2.26-0.67c-0.93,0-1.62,0.16-2.07,0.49c-0.44,0.33-0.77,0.91-0.99,1.74 l-1.94-0.26c0.18-0.83,0.47-1.5,0.87-2.01c0.4-0.51,0.99-0.9,1.75-1.18c0.76-0.28,1.65-0.41,2.66-0.41c1,0,1.81,0.12,2.44,0.35 c0.62,0.24,1.08,0.53,1.38,0.89c0.29,0.36,0.5,0.81,0.62,1.35c0.07,0.34,0.1,0.95,0.1,1.83v2.65c0,1.84,0.04,3.01,0.13,3.5 c0.08,0.49,0.25,0.96,0.5,1.41h-2.07C143.71,177.27,143.58,176.79,143.52,176.24z M143.35,171.81c-0.72,0.29-1.8,0.54-3.24,0.75 c-0.82,0.12-1.39,0.25-1.73,0.4c-0.34,0.15-0.6,0.36-0.78,0.65c-0.18,0.28-0.28,0.6-0.28,0.94c0,0.53,0.2,0.97,0.6,1.32 c0.4,0.35,0.99,0.53,1.76,0.53c0.76,0,1.44-0.17,2.04-0.5c0.6-0.33,1.03-0.79,1.31-1.37c0.21-0.45,0.32-1.11,0.32-1.98V171.81z"></path> </g> </g> </g> <g> <g> <g> <path class="st23" d="M148.41,177.68v-11.71h1.79v1.77c0.46-0.83,0.88-1.38,1.26-1.64c0.39-0.26,0.81-0.4,1.27-0.4 c0.67,0,1.35,0.21,2.04,0.64l-0.68,1.84c-0.49-0.29-0.97-0.43-1.46-0.43c-0.43,0-0.82,0.13-1.17,0.39 c-0.35,0.26-0.59,0.62-0.74,1.09c-0.22,0.71-0.33,1.48-0.33,2.32v6.13H148.41z"></path> </g> </g> </g> <g> <g> <g> <path class="st23" d="M160.28,175.91l0.29,1.75c-0.56,0.12-1.06,0.18-1.5,0.18c-0.72,0-1.28-0.11-1.68-0.34 c-0.4-0.23-0.68-0.53-0.84-0.9c-0.16-0.37-0.24-1.15-0.24-2.34v-6.73h-1.45v-1.54h1.45v-2.9l1.97-1.19v4.09h2v1.54h-2v6.85 c0,0.57,0.04,0.93,0.1,1.09c0.07,0.16,0.18,0.29,0.34,0.39c0.16,0.1,0.38,0.14,0.68,0.14 C159.63,175.98,159.92,175.96,160.28,175.91z"></path> </g> </g> </g> <g> <g> <g> <path class="st23" d="M162.22,177.68v-11.71h1.79v1.66c0.86-1.29,2.1-1.93,3.73-1.93c0.71,0,1.35,0.13,1.95,0.38 c0.59,0.25,1.03,0.59,1.33,1c0.29,0.41,0.5,0.9,0.62,1.47c0.07,0.37,0.11,1.01,0.11,1.93v7.2h-1.98v-7.12 c0-0.81-0.08-1.41-0.23-1.81c-0.15-0.4-0.43-0.72-0.82-0.96c-0.39-0.24-0.85-0.36-1.38-0.36c-0.85,0-1.57,0.27-2.19,0.81 c-0.61,0.54-0.92,1.55-0.92,3.05v6.39H162.22z"></path> </g> </g> </g> <g> <g> <g> <path class="st23" d="M182.79,173.91l2.05,0.25c-0.32,1.2-0.92,2.13-1.8,2.79c-0.87,0.66-1.99,0.99-3.35,0.99 c-1.71,0-3.07-0.53-4.07-1.58c-1-1.05-1.5-2.53-1.5-4.44c0-1.97,0.51-3.5,1.52-4.59c1.01-1.09,2.33-1.63,3.95-1.63 c1.57,0,2.84,0.53,3.84,1.6c0.99,1.07,1.49,2.56,1.49,4.5c0,0.12,0,0.29-0.01,0.53h-8.73c0.07,1.29,0.44,2.27,1.09,2.95 c0.65,0.68,1.47,1.03,2.45,1.03c0.73,0,1.35-0.19,1.86-0.57C182.08,175.36,182.49,174.75,182.79,173.91z M176.28,170.7h6.54 c-0.09-0.98-0.34-1.72-0.75-2.22c-0.63-0.76-1.45-1.15-2.46-1.15c-0.91,0-1.68,0.31-2.3,0.92 C176.69,168.87,176.34,169.68,176.28,170.7z"></path> </g> </g> </g> <g> <g> <g> <path class="st23" d="M187.31,177.68v-11.71h1.79v1.77c0.46-0.83,0.88-1.38,1.26-1.64c0.39-0.26,0.81-0.4,1.27-0.4 c0.67,0,1.35,0.21,2.04,0.64l-0.68,1.84c-0.49-0.29-0.97-0.43-1.46-0.43c-0.43,0-0.82,0.13-1.17,0.39 c-0.35,0.26-0.59,0.62-0.74,1.09c-0.22,0.71-0.33,1.48-0.33,2.32v6.13H187.31z"></path> </g> </g> </g> </g> </svg> 