<?xml version="1.0" encoding="UTF-8"?> <svg xmlns="http://www.w3.org/2000/svg" xmlns:xlink="http://www.w3.org/1999/xlink" viewBox="0 0 288.95 310.94"><defs><style>.cls-1,.cls-43{fill:#adc5e5;}.cls-1,.cls-52{fill-opacity:0;}.cls-2{fill:#abc4e4;}.cls-2,.cls-53{opacity:0.02;}.cls-10,.cls-100,.cls-11,.cls-12,.cls-13,.cls-14,.cls-15,.cls-16,.cls-17,.cls-18,.cls-19,.cls-2,.cls-20,.cls-21,.cls-22,.cls-23,.cls-24,.cls-25,.cls-26,.cls-27,.cls-28,.cls-29,.cls-3,.cls-30,.cls-31,.cls-32,.cls-33,.cls-34,.cls-35,.cls-36,.cls-37,.cls-38,.cls-39,.cls-4,.cls-40,.cls-41,.cls-5,.cls-53,.cls-54,.cls-55,.cls-56,.cls-57,.cls-58,.cls-59,.cls-6,.cls-60,.cls-61,.cls-62,.cls-63,.cls-64,.cls-65,.cls-66,.cls-67,.cls-68,.cls-69,.cls-7,.cls-70,.cls-71,.cls-72,.cls-73,.cls-74,.cls-75,.cls-76,.cls-77,.cls-78,.cls-79,.cls-8,.cls-80,.cls-81,.cls-82,.cls-83,.cls-84,.cls-85,.cls-86,.cls-87,.cls-88,.cls-89,.cls-9,.cls-90,.cls-91,.cls-92,.cls-97{isolation:isolate;}.cls-3{fill:#a9c2e3;}.cls-3,.cls-54{opacity:0.05;}.cls-4{fill:#a7c1e3;}.cls-4,.cls-55{opacity:0.07;}.cls-5{fill:#a5bfe2;}.cls-5,.cls-56{opacity:0.1;}.cls-6{fill:#a3bee1;}.cls-57,.cls-6{opacity:0.12;}.cls-7{fill:#a1bde1;}.cls-58,.cls-7{opacity:0.15;}.cls-8{fill:#9fbbe0;}.cls-59,.cls-8{opacity:0.17;}.cls-9{fill:#9dbadf;}.cls-60,.cls-9{opacity:0.2;}.cls-10{fill:#9bb8df;}.cls-10,.cls-61{opacity:0.22;}.cls-11{fill:#99b7de;}.cls-11,.cls-62{opacity:0.24;}.cls-12{fill:#97b5de;}.cls-12,.cls-63{opacity:0.27;}.cls-13{fill:#95b4dd;}.cls-13,.cls-64{opacity:0.29;}.cls-14{fill:#93b3dc;}.cls-14,.cls-65{opacity:0.32;}.cls-15{fill:#91b1dc;}.cls-15,.cls-66{opacity:0.34;}.cls-16{fill:#8fb0db;}.cls-16,.cls-67{opacity:0.37;}.cls-17{fill:#8daeda;}.cls-17,.cls-68{opacity:0.39;}.cls-18{fill:#8badda;}.cls-18,.cls-69{opacity:0.41;}.cls-19{fill:#89acd9;}.cls-19,.cls-70{opacity:0.44;}.cls-20{fill:#87aad8;}.cls-20,.cls-71{opacity:0.46;}.cls-21{fill:#85a9d8;}.cls-21,.cls-72{opacity:0.49;}.cls-22{fill:#83a7d7;}.cls-22,.cls-73{opacity:0.51;}.cls-23{fill:#81a6d6;}.cls-23,.cls-74{opacity:0.54;}.cls-24{fill:#7fa4d6;}.cls-24,.cls-75{opacity:0.56;}.cls-25{fill:#7da3d5;}.cls-25,.cls-76{opacity:0.59;}.cls-26{fill:#7ba2d4;}.cls-26,.cls-77{opacity:0.61;}.cls-27{fill:#79a0d4;}.cls-27,.cls-78{opacity:0.63;}.cls-28{fill:#779fd3;}.cls-28,.cls-79{opacity:0.66;}.cls-29{fill:#759dd3;}.cls-29,.cls-80{opacity:0.68;}.cls-30{fill:#739cd2;}.cls-30,.cls-81{opacity:0.71;}.cls-31{fill:#719bd1;}.cls-31,.cls-82{opacity:0.73;}.cls-32{fill:#6f99d1;}.cls-32,.cls-83{opacity:0.76;}.cls-33{fill:#6d98d0;}.cls-33,.cls-84{opacity:0.78;}.cls-34{fill:#6b96cf;}.cls-34,.cls-85{opacity:0.8;}.cls-35{fill:#6995cf;}.cls-35,.cls-86{opacity:0.83;}.cls-36{fill:#6793ce;}.cls-36,.cls-87{opacity:0.85;}.cls-37{fill:#6592cd;}.cls-37,.cls-88{opacity:0.88;}.cls-38{fill:#6391cd;}.cls-38,.cls-89{opacity:0.9;}.cls-39{fill:#618fcc;}.cls-39,.cls-90{opacity:0.93;}.cls-40{fill:#5f8ecb;}.cls-40,.cls-91{opacity:0.95;}.cls-41{fill:#5d8ccb;}.cls-41,.cls-92{opacity:0.98;}.cls-42{fill:#5b8bca;}.cls-44{fill:#f0f4fc;}.cls-45{fill:url(#linear-gradient);}.cls-46{fill:#fff;}.cls-47{fill:#d6e2f2;}.cls-48{fill:#feb423;}.cls-49{fill:#84a8d7;}.cls-50{fill:#326ebd;}.cls-51{opacity:0.5;}.cls-52,.cls-53,.cls-54,.cls-55,.cls-56,.cls-57,.cls-58,.cls-59,.cls-60,.cls-61,.cls-62,.cls-63,.cls-64,.cls-65,.cls-66,.cls-67,.cls-68,.cls-69,.cls-70,.cls-71,.cls-72,.cls-73,.cls-74,.cls-75,.cls-76,.cls-77,.cls-78,.cls-79,.cls-80,.cls-81,.cls-82,.cls-83,.cls-84,.cls-85,.cls-86,.cls-87,.cls-88,.cls-89,.cls-90,.cls-91,.cls-92,.cls-93{fill:#fc7318;}.cls-94{opacity:0.39;}.cls-95{fill:#e7ad99;}.cls-96{fill:#191c3c;}.cls-97{fill:#26538e;opacity:0.2;}.cls-98{fill:#48486a;}.cls-99{fill:#f2b1b5;}.cls-100{fill:#231f20;opacity:0.3;}.cls-101{fill:#363650;}.cls-102{opacity:0.6;}</style><linearGradient id="linear-gradient" x1="112.12" y1="-222.69" x2="86.27" y2="-267.1" gradientTransform="matrix(1, 0, 0, -1, 0, -40.66)" gradientUnits="userSpaceOnUse"><stop offset="0" stop-color="#d6e2f2"></stop><stop offset="1" stop-color="#fff"></stop></linearGradient></defs><g id="Layer_2" data-name="Layer 2"><g id="Layer_1-2" data-name="Layer 1"><path class="cls-1" d="M131.77,145.47,8.06,216.89A12.12,12.12,0,0,0,8.18,238L132,307.67a25.44,25.44,0,0,0,24.93,0L280.78,238a12.12,12.12,0,0,0,.11-21.06L157.18,145.47A25.41,25.41,0,0,0,131.77,145.47Z"></path><path class="cls-2" d="M131.92,145.43,9.7,216a12,12,0,0,0,.11,20.8l122.35,68.88a25.07,25.07,0,0,0,24.63,0L279.14,236.8a12,12,0,0,0,.12-20.8L157,145.43A25.09,25.09,0,0,0,131.92,145.43Z"></path><path class="cls-3" d="M132.08,145.39,11.33,215.1a11.82,11.82,0,0,0,.11,20.55l120.87,68a24.76,24.76,0,0,0,24.33,0l120.87-68a11.82,11.82,0,0,0,.11-20.55L156.88,145.39A24.8,24.8,0,0,0,132.08,145.39Z"></path><path class="cls-4" d="M132.23,145.35,13,214.21a11.68,11.68,0,0,0,.11,20.3l119.39,67.21a24.49,24.49,0,0,0,24,0l119.39-67.21a11.68,11.68,0,0,0,.11-20.3L156.73,145.35A24.48,24.48,0,0,0,132.23,145.35Z"></path><path class="cls-5" d="M132.38,145.31l-117.79,68a11.54,11.54,0,0,0,.11,20.05l117.91,66.38a24.19,24.19,0,0,0,23.74,0l117.9-66.38a11.54,11.54,0,0,0,.11-20.05l-117.79-68A24.15,24.15,0,0,0,132.38,145.31Z"></path><path class="cls-6" d="M132.53,145.27,16.23,212.41a11.4,11.4,0,0,0,.1,19.8l116.43,65.55a23.92,23.92,0,0,0,23.44,0l116.42-65.55a11.4,11.4,0,0,0,.11-19.8L156.42,145.27A23.88,23.88,0,0,0,132.53,145.27Z"></path><path class="cls-7" d="M132.68,145.23,17.86,211.52a11.25,11.25,0,0,0,.1,19.54L132.9,295.78a23.62,23.62,0,0,0,23.15,0L271,231.06a11.25,11.25,0,0,0,.11-19.54L156.27,145.23A23.56,23.56,0,0,0,132.68,145.23Z"></path><path class="cls-8" d="M132.84,145.18,19.49,210.62a11.11,11.11,0,0,0,.1,19.3l113.46,63.87a23.26,23.26,0,0,0,22.85,0l113.46-63.87a11.11,11.11,0,0,0,.1-19.3L156.12,145.18A23.32,23.32,0,0,0,132.84,145.18Z"></path><path class="cls-9" d="M133,145.14,21.12,209.73a11,11,0,0,0,.11,19l112,63a23,23,0,0,0,22.55,0l112-63a11,11,0,0,0,.1-19L156,145.14A23,23,0,0,0,133,145.14Z"></path><path class="cls-10" d="M133.14,145.1,22.76,208.83a10.81,10.81,0,0,0,.1,18.79l110.49,62.21a22.67,22.67,0,0,0,22.25,0l110.5-62.21a10.82,10.82,0,0,0,.1-18.79L155.81,145.1A22.67,22.67,0,0,0,133.14,145.1Z"></path><path class="cls-11" d="M133.29,145.06,24.39,207.94a10.66,10.66,0,0,0,.1,18.53l109,61.38a22.35,22.35,0,0,0,21.95,0l109-61.38a10.67,10.67,0,0,0,.1-18.53L155.66,145.06A22.4,22.4,0,0,0,133.29,145.06Z"></path><path class="cls-12" d="M133.44,145,26,207a10.53,10.53,0,0,0,.1,18.29l107.53,60.54a22.08,22.08,0,0,0,21.65,0l107.53-60.54a10.53,10.53,0,0,0,.1-18.29L155.51,145A22.08,22.08,0,0,0,133.44,145Z"></path><path class="cls-13" d="M133.6,145,27.65,206.15a10.38,10.38,0,0,0,.1,18L133.8,283.89a21.77,21.77,0,0,0,21.35,0l106-59.71a10.38,10.38,0,0,0,.1-18L155.36,145A21.75,21.75,0,0,0,133.6,145Z"></path><path class="cls-14" d="M133.75,144.94,29.28,205.25a10.23,10.23,0,0,0,.1,17.78L134,281.9a21.45,21.45,0,0,0,21.05,0L259.57,223a10.23,10.23,0,0,0,.1-17.78L155.21,144.94A21.48,21.48,0,0,0,133.75,144.94Z"></path><path class="cls-15" d="M133.9,144.9l-103,59.46A10.09,10.09,0,0,0,31,221.89l103.09,58a21.13,21.13,0,0,0,20.75,0l103.09-58a10.09,10.09,0,0,0,.1-17.53l-103-59.46A21.14,21.14,0,0,0,133.9,144.9Z"></path><path class="cls-16" d="M134.05,144.86l-101.5,58.6a10,10,0,0,0,.09,17.28l101.61,57.2a20.83,20.83,0,0,0,20.46,0l101.6-57.2a9.94,9.94,0,0,0,.09-17.28l-101.5-58.6A20.82,20.82,0,0,0,134.05,144.86Z"></path><path class="cls-17" d="M134.2,144.82l-100,57.75a9.8,9.8,0,0,0,.09,17L134.4,276a20.56,20.56,0,0,0,20.16,0l100.12-56.37a9.79,9.79,0,0,0,.09-17l-100-57.75A20.55,20.55,0,0,0,134.2,144.82Z"></path><path class="cls-18" d="M134.36,144.78,35.81,201.67a9.65,9.65,0,0,0,.1,16.77L134.55,274a20.25,20.25,0,0,0,19.86,0l98.64-55.54a9.65,9.65,0,0,0,.09-16.77L154.6,144.78A20.22,20.22,0,0,0,134.36,144.78Z"></path><path class="cls-19" d="M134.51,144.74l-97.06,56a9.51,9.51,0,0,0,.09,16.52L134.69,272a20,20,0,0,0,19.57,0l97.16-54.71a9.51,9.51,0,0,0,.09-16.52l-97.07-56A19.88,19.88,0,0,0,134.51,144.74Z"></path><path class="cls-20" d="M134.66,144.7,39.08,199.88a9.37,9.37,0,0,0,.09,16.27L134.85,270a19.61,19.61,0,0,0,19.26,0l95.68-53.86a9.37,9.37,0,0,0,.09-16.27L154.29,144.7A19.61,19.61,0,0,0,134.66,144.7Z"></path><path class="cls-21" d="M134.81,144.65,40.71,199a9.22,9.22,0,0,0,.09,16L135,268a19.31,19.31,0,0,0,19,0l94.19-53a9.22,9.22,0,0,0,.09-16l-94.1-54.33A19.34,19.34,0,0,0,134.81,144.65Z"></path><path class="cls-22" d="M135,144.61,42.34,198.09a9.07,9.07,0,0,0,.09,15.76l92.71,52.2a19,19,0,0,0,18.67,0l92.71-52.2a9.07,9.07,0,0,0,.09-15.76L154,144.61A19.08,19.08,0,0,0,135,144.61Z"></path><path class="cls-23" d="M135.12,144.57,44,197.19a8.93,8.93,0,0,0,.08,15.52l91.23,51.36a18.72,18.72,0,0,0,18.37,0l91.23-51.36a8.93,8.93,0,0,0,.09-15.52l-91.14-52.62A18.74,18.74,0,0,0,135.12,144.57Z"></path><path class="cls-24" d="M135.27,144.53,45.61,196.3a8.78,8.78,0,0,0,.08,15.26l89.75,50.53a18.41,18.41,0,0,0,18.07,0l89.75-50.53a8.78,8.78,0,0,0,.08-15.26l-89.66-51.77A18.4,18.4,0,0,0,135.27,144.53Z"></path><path class="cls-25" d="M135.42,144.49,47.24,195.4a8.64,8.64,0,0,0,.08,15l88.27,49.7a18.14,18.14,0,0,0,17.77,0l88.27-49.7a8.64,8.64,0,0,0,.08-15l-88.18-50.91A18.13,18.13,0,0,0,135.42,144.49Z"></path><path class="cls-26" d="M135.57,144.45l-86.7,50.06A8.49,8.49,0,0,0,49,209.26l86.79,48.86a17.77,17.77,0,0,0,17.47,0L240,209.26a8.49,8.49,0,0,0,.08-14.75l-86.7-50.06A17.82,17.82,0,0,0,135.57,144.45Z"></path><path class="cls-27" d="M135.72,144.41l-85.21,49.2a8.36,8.36,0,0,0,.07,14.51l85.31,48a17.5,17.5,0,0,0,17.17,0l85.31-48a8.35,8.35,0,0,0,.08-14.51l-85.22-49.2A17.5,17.5,0,0,0,135.72,144.41Z"></path><path class="cls-28" d="M135.88,144.37,52.14,192.72A8.2,8.2,0,0,0,52.21,207L136,254.16a17.19,17.19,0,0,0,16.87,0L236.74,207a8.2,8.2,0,0,0,.07-14.25l-83.73-48.35A17.21,17.21,0,0,0,135.88,144.37Z"></path><path class="cls-29" d="M136,144.33,53.77,191.82a8.06,8.06,0,0,0,.08,14l82.34,46.36a16.89,16.89,0,0,0,16.58,0l82.34-46.36a8.06,8.06,0,0,0,.07-14l-82.25-47.49A16.89,16.89,0,0,0,136,144.33Z"></path><path class="cls-30" d="M136.18,144.29,55.4,190.93a7.91,7.91,0,0,0,.08,13.74l80.86,45.53a16.62,16.62,0,0,0,16.28,0l80.86-45.53a7.91,7.91,0,0,0,.07-13.74l-80.78-46.64A16.56,16.56,0,0,0,136.18,144.29Z"></path><path class="cls-31" d="M136.33,144.25,57,190a7.77,7.77,0,0,0,.07,13.5l79.38,44.69a16.3,16.3,0,0,0,16,0l79.38-44.69a7.77,7.77,0,0,0,.07-13.5l-79.3-45.78A16.29,16.29,0,0,0,136.33,144.25Z"></path><path class="cls-32" d="M136.48,144.21,58.67,189.13a7.62,7.62,0,0,0,.07,13.25l77.9,43.85a16,16,0,0,0,15.68,0l77.9-43.85a7.63,7.63,0,0,0,.07-13.25l-77.82-44.92A16,16,0,0,0,136.48,144.21Z"></path><path class="cls-33" d="M136.64,144.17,60.3,188.24a7.47,7.47,0,0,0,.07,13l76.41,43a15.68,15.68,0,0,0,15.39,0l76.41-43a7.47,7.47,0,0,0,.07-13l-76.33-44.07A15.64,15.64,0,0,0,136.64,144.17Z"></path><path class="cls-34" d="M136.79,144.13,61.93,187.34A7.33,7.33,0,0,0,62,200.08l74.93,42.19a15.37,15.37,0,0,0,15.09,0L227,200.08a7.33,7.33,0,0,0,.07-12.74l-74.86-43.21A15.35,15.35,0,0,0,136.79,144.13Z"></path><path class="cls-35" d="M136.94,144.08,63.56,186.45a7.19,7.19,0,0,0,.07,12.49l73.45,41.35a15.1,15.1,0,0,0,14.79,0l73.45-41.35a7.19,7.19,0,0,0,.07-12.49L152,144.08A15.08,15.08,0,0,0,136.94,144.08Z"></path><path class="cls-36" d="M137.09,144,65.2,185.55a7,7,0,0,0,.06,12.24l72,40.52a14.78,14.78,0,0,0,14.49,0l72-40.52a7,7,0,0,0,.07-12.24L151.86,144A14.81,14.81,0,0,0,137.09,144Z"></path><path class="cls-37" d="M137.24,144,66.83,184.66a6.9,6.9,0,0,0,.06,12l70.49,39.69a14.46,14.46,0,0,0,14.19,0l70.49-39.69a6.9,6.9,0,0,0,.06-12L151.71,144A14.49,14.49,0,0,0,137.24,144Z"></path><path class="cls-38" d="M137.4,144l-68.94,39.8a6.75,6.75,0,0,0,.06,11.73l69,38.85a14.14,14.14,0,0,0,13.89,0l69-38.85a6.75,6.75,0,0,0,.06-11.73L151.56,144A14.16,14.16,0,0,0,137.4,144Z"></path><path class="cls-39" d="M137.55,143.92l-67.46,39a6.61,6.61,0,0,0,.07,11.48l67.52,38a13.83,13.83,0,0,0,13.59,0l67.53-38a6.61,6.61,0,0,0,.06-11.48l-67.46-39A13.87,13.87,0,0,0,137.55,143.92Z"></path><path class="cls-40" d="M137.7,143.88,71.73,182a6.46,6.46,0,0,0,.06,11.23l66,37.18a13.53,13.53,0,0,0,13.3,0l66-37.18a6.47,6.47,0,0,0,.06-11.23l-66-38.09A13.55,13.55,0,0,0,137.7,143.88Z"></path><path class="cls-41" d="M137.85,143.84,73.36,181.08a6.31,6.31,0,0,0,.06,11L138,228.4a13.26,13.26,0,0,0,13,0l64.56-36.35a6.32,6.32,0,0,0,.06-11l-64.5-37.24A13.23,13.23,0,0,0,137.85,143.84Z"></path><path class="cls-42" d="M138,143.8,75,180.18a6.18,6.18,0,0,0,.06,10.73l63.08,35.51a12.94,12.94,0,0,0,12.7,0l63.07-35.51a6.18,6.18,0,0,0,.06-10.73L151,143.8A13,13,0,0,0,138,143.8Z"></path><path class="cls-43" d="M131.59,112.84,0,172.2v12a14.29,14.29,0,0,0,7.22,12.41l124.61,70.9a25.83,25.83,0,0,0,25.29,0l124.25-70A14.3,14.3,0,0,0,288.64,185V174.77L157.36,112.84A25.79,25.79,0,0,0,131.59,112.84Z"></path><path class="cls-44" d="M131.59,89,6.15,161.44a12.28,12.28,0,0,0,.11,21.35l125.57,70.7a25.77,25.77,0,0,0,25.29,0l125.57-70.7a12.29,12.29,0,0,0,.12-21.35L157.36,89A25.79,25.79,0,0,0,131.59,89Z"></path><polygon class="cls-45" points="65.08 216.06 117.76 185.07 129.61 198.77 82.39 225.94 65.08 216.06"></polygon><path class="cls-46" d="M221.08,40.71,151.41.48a3.57,3.57,0,0,0-5.35,3.09V122.8l75.7,43.7,4.05-2V48.89A9.45,9.45,0,0,0,221.08,40.71Z"></path><path class="cls-47" d="M221.08,40.71,151.41.48a3.57,3.57,0,0,0-5.25,2.28,3.66,3.66,0,0,1,1.2.42L217,43.41a9.47,9.47,0,0,1,4.73,8.19V166.5l4.05-2V48.89A9.45,9.45,0,0,0,221.08,40.71Z"></path><path class="cls-48" d="M178.24,117l-21.38-12.48a1.69,1.69,0,0,0-2.55,1.46v21.12l26.14,15.27V120.85A4.47,4.47,0,0,0,178.24,117Z"></path><polygon class="cls-49" points="181.76 98.04 154.92 82.72 154.92 85.66 181.76 100.8 181.76 98.04"></polygon><polygon class="cls-49" points="181.45 103.88 154.62 88.57 154.62 91.51 181.45 106.65 181.45 103.88"></polygon><polygon class="cls-49" points="168.69 102.78 154.31 94.41 154.31 97.35 168.69 105.54 168.69 102.78"></polygon><path class="cls-50" d="M210.62,47.39l-21-12.28a1.91,1.91,0,0,0-2.88,1.65V59.32A4.54,4.54,0,0,0,189,63.24l21,12.27a1.91,1.91,0,0,0,2.88-1.65V51.3A4.51,4.51,0,0,0,210.62,47.39Z"></path><g class="cls-51"><path class="cls-52" d="M211.25,102.07l-22.61-13.2a1.55,1.55,0,0,0-2.33,1.33v24.41a2.44,2.44,0,0,0,1.21,2.1l22.61,13.21a1.55,1.55,0,0,0,2.33-1.34V104.17A2.44,2.44,0,0,0,211.25,102.07Z"></path><path class="cls-53" d="M211,102.2,188.66,89.14a1.53,1.53,0,0,0-2.3,1.32v24.12a2.42,2.42,0,0,0,1.19,2.08l22.35,13.05a1.53,1.53,0,0,0,2.3-1.32V104.27A2.39,2.39,0,0,0,211,102.2Z"></path><path class="cls-54" d="M210.77,102.32l-22.08-12.9a1.52,1.52,0,0,0-2.28,1.3v23.84a2.38,2.38,0,0,0,1.18,2l22.08,12.9A1.52,1.52,0,0,0,212,128.2V104.37A2.36,2.36,0,0,0,210.77,102.32Z"></path><path class="cls-55" d="M210.53,102.44,188.71,89.69A1.49,1.49,0,0,0,186.47,91v23.55a2.34,2.34,0,0,0,1.16,2l21.82,12.75a1.49,1.49,0,0,0,2.24-1.29V104.47A2.34,2.34,0,0,0,210.53,102.44Z"></path><path class="cls-56" d="M210.29,102.56,188.74,90a1.47,1.47,0,0,0-2.22,1.27v23.27a2.33,2.33,0,0,0,1.15,2l21.55,12.59a1.47,1.47,0,0,0,2.22-1.27V104.56A2.33,2.33,0,0,0,210.29,102.56Z"></path><path class="cls-57" d="M210.05,102.68,188.76,90.24a1.46,1.46,0,0,0-2.19,1.26v23a2.29,2.29,0,0,0,1.13,2L209,128.9a1.46,1.46,0,0,0,2.19-1.26v-23A2.28,2.28,0,0,0,210.05,102.68Z"></path><path class="cls-58" d="M209.81,102.8l-21-12.28a1.44,1.44,0,0,0-2.17,1.24v22.7a2.26,2.26,0,0,0,1.12,2l21,12.28a1.43,1.43,0,0,0,2.16-1.24V104.76A2.26,2.26,0,0,0,209.81,102.8Z"></path><path class="cls-59" d="M209.57,102.92,188.81,90.8A1.42,1.42,0,0,0,186.67,92v22.41a2.22,2.22,0,0,0,1.11,1.93l20.76,12.13a1.42,1.42,0,0,0,2.14-1.23V104.85A2.23,2.23,0,0,0,209.57,102.92Z"></path><path class="cls-60" d="M209.33,103.05l-20.5-12a1.4,1.4,0,0,0-2.11,1.21v22.13a2.2,2.2,0,0,0,1.1,1.9l20.5,12a1.41,1.41,0,0,0,2.11-1.22V105A2.2,2.2,0,0,0,209.33,103.05Z"></path><path class="cls-61" d="M209.09,103.17,188.86,91.35a1.38,1.38,0,0,0-2.08,1.19v21.84a2.17,2.17,0,0,0,1.08,1.88l20.23,11.82a1.38,1.38,0,0,0,2.08-1.19V105.05A2.17,2.17,0,0,0,209.09,103.17Z"></path><path class="cls-62" d="M208.85,103.29l-20-11.67a1.36,1.36,0,0,0-2,1.18v21.56a2.13,2.13,0,0,0,1.06,1.85l20,11.67a1.37,1.37,0,0,0,2.06-1.18V105.14A2.14,2.14,0,0,0,208.85,103.29Z"></path><path class="cls-63" d="M208.62,103.41,188.91,91.9a1.35,1.35,0,0,0-2,1.16v21.27a2.11,2.11,0,0,0,1.05,1.83l19.71,11.51a1.35,1.35,0,0,0,2-1.16V105.24A2.12,2.12,0,0,0,208.62,103.41Z"></path><path class="cls-64" d="M208.38,103.53,188.93,92.17a1.33,1.33,0,0,0-2,1.15v21a2.09,2.09,0,0,0,1,1.8l19.44,11.36a1.33,1.33,0,0,0,2-1.15v-21A2.09,2.09,0,0,0,208.38,103.53Z"></path><path class="cls-65" d="M208.14,103.65,189,92.45a1.32,1.32,0,0,0-2,1.13v20.7a2,2,0,0,0,1,1.78l19.17,11.21a1.32,1.32,0,0,0,2-1.14v-20.7A2.07,2.07,0,0,0,208.14,103.65Z"></path><path class="cls-66" d="M207.9,103.77,189,92.72A1.3,1.3,0,0,0,187,93.84v20.42a2,2,0,0,0,1,1.75l18.92,11a1.29,1.29,0,0,0,1.95-1.11V105.53A2.06,2.06,0,0,0,207.9,103.77Z"></path><path class="cls-67" d="M207.66,103.9,189,93a1.28,1.28,0,0,0-1.92,1.1v20.13a2,2,0,0,0,1,1.74l18.65,10.89a1.28,1.28,0,0,0,1.92-1.1V105.63A2,2,0,0,0,207.66,103.9Z"></path><path class="cls-68" d="M207.42,104,189,93.28a1.25,1.25,0,0,0-1.89,1.08v19.85a2,2,0,0,0,1,1.71l18.38,10.74a1.27,1.27,0,0,0,1.9-1.09V105.72A2,2,0,0,0,207.42,104Z"></path><path class="cls-69" d="M207.18,104.14,189.05,93.55a1.24,1.24,0,0,0-1.86,1.07v19.56a2,2,0,0,0,1,1.69l18.13,10.58a1.23,1.23,0,0,0,1.86-1.07V105.82A1.94,1.94,0,0,0,207.18,104.14Z"></path><path class="cls-70" d="M206.94,104.26,189.08,93.83a1.22,1.22,0,0,0-1.84,1v19.28a1.93,1.93,0,0,0,.95,1.66l17.86,10.43a1.22,1.22,0,0,0,1.84-1.06V105.92A1.91,1.91,0,0,0,206.94,104.26Z"></path><path class="cls-71" d="M206.7,104.38,189.1,94.1a1.2,1.2,0,0,0-1.81,1v19a1.9,1.9,0,0,0,.94,1.64L205.82,126a1.21,1.21,0,0,0,1.82-1V106A1.89,1.89,0,0,0,206.7,104.38Z"></path><path class="cls-72" d="M206.46,104.5,189.13,94.38a1.19,1.19,0,0,0-1.79,1v18.71a1.89,1.89,0,0,0,.93,1.61l17.33,10.12a1.18,1.18,0,0,0,1.78-1V106.11A1.88,1.88,0,0,0,206.46,104.5Z"></path><path class="cls-73" d="M206.22,104.62l-17.07-10a1.17,1.17,0,0,0-1.75,1v18.42a1.83,1.83,0,0,0,.91,1.59l17.06,10a1.17,1.17,0,0,0,1.76-1V106.21A1.86,1.86,0,0,0,206.22,104.62Z"></path><path class="cls-74" d="M206,104.74l-16.8-9.81a1.15,1.15,0,0,0-1.73,1v18.14a1.82,1.82,0,0,0,.89,1.56l16.81,9.81a1.15,1.15,0,0,0,1.73-1V106.31A1.81,1.81,0,0,0,206,104.74Z"></path><path class="cls-75" d="M205.74,104.87,189.2,95.21a1.13,1.13,0,0,0-1.7,1V114a1.77,1.77,0,0,0,.88,1.54l16.54,9.66a1.13,1.13,0,0,0,1.7-1V106.4A1.75,1.75,0,0,0,205.74,104.87Z"></path><path class="cls-76" d="M205.5,105l-16.27-9.51a1.12,1.12,0,0,0-1.68,1V114a1.75,1.75,0,0,0,.87,1.51L204.69,125a1.12,1.12,0,0,0,1.68-1V106.5A1.74,1.74,0,0,0,205.5,105Z"></path><path class="cls-77" d="M205.26,105.11l-16-9.35a1.1,1.1,0,0,0-1.65.94V114a1.73,1.73,0,0,0,.86,1.49l16,9.35a1.1,1.1,0,0,0,1.65-.95V106.59A1.72,1.72,0,0,0,205.26,105.11Z"></path><path class="cls-78" d="M205,105.23,189.28,96a1.08,1.08,0,0,0-1.63.93v17a1.69,1.69,0,0,0,.84,1.46l15.75,9.2a1.08,1.08,0,0,0,1.62-.93v-17A1.69,1.69,0,0,0,205,105.23Z"></path><path class="cls-79" d="M204.78,105.35l-15.48-9a1.06,1.06,0,0,0-1.59.91v16.71a1.66,1.66,0,0,0,.82,1.44l15.48,9a1.06,1.06,0,0,0,1.6-.91V106.79A1.68,1.68,0,0,0,204.78,105.35Z"></path><path class="cls-80" d="M204.54,105.47l-15.22-8.89a1,1,0,0,0-1.56.9v16.43a1.63,1.63,0,0,0,.81,1.41l15.22,8.89a1,1,0,0,0,1.56-.9V106.89A1.63,1.63,0,0,0,204.54,105.47Z"></path><path class="cls-81" d="M204.3,105.59l-15-8.73a1,1,0,0,0-1.54.88v16.14a1.59,1.59,0,0,0,.8,1.39L203.56,124a1,1,0,0,0,1.54-.89V107A1.6,1.6,0,0,0,204.3,105.59Z"></path><path class="cls-82" d="M204.06,105.72l-14.69-8.59a1,1,0,0,0-1.51.87v15.86a1.58,1.58,0,0,0,.78,1.36l14.69,8.58a1,1,0,0,0,1.52-.87V107.08A1.57,1.57,0,0,0,204.06,105.72Z"></path><path class="cls-83" d="M203.82,105.84,189.4,97.41a1,1,0,0,0-1.49.85v15.57a1.56,1.56,0,0,0,.77,1.34l14.43,8.43a1,1,0,0,0,1.48-.85V107.18A1.54,1.54,0,0,0,203.82,105.84Z"></path><path class="cls-84" d="M203.58,106l-14.16-8.27a1,1,0,0,0-1.46.83v15.29a1.51,1.51,0,0,0,.76,1.31l14.16,8.27a1,1,0,0,0,1.46-.83V107.27A1.51,1.51,0,0,0,203.58,106Z"></path><path class="cls-85" d="M203.35,106.08,189.45,98a1,1,0,0,0-1.43.82v15a1.49,1.49,0,0,0,.74,1.29l13.9,8.12a1,1,0,0,0,1.43-.82v-15A1.52,1.52,0,0,0,203.35,106.08Z"></path><path class="cls-86" d="M203.11,106.2l-13.64-8a.93.93,0,0,0-1.4.8v14.72a1.45,1.45,0,0,0,.72,1.26l13.64,8a.93.93,0,0,0,1.4-.81V107.47A1.46,1.46,0,0,0,203.11,106.2Z"></path><path class="cls-87" d="M202.87,106.32,189.5,98.51a.92.92,0,0,0-1.38.79v14.43a1.43,1.43,0,0,0,.71,1.24l13.37,7.81a.92.92,0,0,0,1.38-.79V107.56A1.44,1.44,0,0,0,202.87,106.32Z"></path><path class="cls-88" d="M202.63,106.44l-13.11-7.65a.9.9,0,0,0-1.35.77v14.15a1.43,1.43,0,0,0,.7,1.22L202,122.58a.9.9,0,0,0,1.35-.77V107.66A1.43,1.43,0,0,0,202.63,106.44Z"></path><path class="cls-89" d="M202.39,106.57l-12.84-7.51a.88.88,0,0,0-1.33.76v13.86a1.39,1.39,0,0,0,.69,1.2l12.84,7.5a.88.88,0,0,0,1.32-.76V107.76A1.37,1.37,0,0,0,202.39,106.57Z"></path><path class="cls-90" d="M202.15,106.69l-12.58-7.35a.86.86,0,0,0-1.3.74v13.58a1.38,1.38,0,0,0,.67,1.17l12.58,7.34a.86.86,0,0,0,1.3-.74V107.85A1.35,1.35,0,0,0,202.15,106.69Z"></path><path class="cls-91" d="M201.91,106.81l-12.32-7.19a.83.83,0,0,0-1.26.72v13.29a1.33,1.33,0,0,0,.65,1.15L201.3,122a.84.84,0,0,0,1.26-.73V108A1.33,1.33,0,0,0,201.91,106.81Z"></path><path class="cls-92" d="M201.67,106.93l-12-7a.83.83,0,0,0-1.24.71v13a1.29,1.29,0,0,0,.64,1.12l12,7a.83.83,0,0,0,1.24-.72v-13A1.29,1.29,0,0,0,201.67,106.93Z"></path><path class="cls-93" d="M201.43,107.05l-11.79-6.88a.8.8,0,0,0-1.21.69v12.72a1.28,1.28,0,0,0,.63,1.1l11.78,6.88a.81.81,0,0,0,1.22-.69V108.15A1.27,1.27,0,0,0,201.43,107.05Z"></path></g><path class="cls-93" d="M204.48,103.93,181.86,90.72a1.54,1.54,0,0,0-2.32,1.33v24.41a2.45,2.45,0,0,0,1.2,2.1l22.61,13.21a1.55,1.55,0,0,0,2.33-1.34V106A2.43,2.43,0,0,0,204.48,103.93Z"></path><polygon class="cls-49" points="212.87 82.98 186.04 67.67 186.04 70.61 212.87 85.75 212.87 82.98"></polygon><polygon class="cls-49" points="212.57 88.83 185.73 73.51 185.73 76.45 212.57 91.59 212.57 88.83"></polygon><polygon class="cls-49" points="199.8 87.72 185.42 79.36 185.42 82.3 199.8 90.49 199.8 87.72"></polygon><polygon class="cls-49" points="212.87 140.07 186.04 124.76 186.04 127.7 212.87 142.84 212.87 140.07"></polygon><polygon class="cls-49" points="212.57 145.92 185.73 130.6 185.73 133.54 212.57 148.68 212.57 145.92"></polygon><polygon class="cls-49" points="199.8 144.81 185.42 136.44 185.42 139.38 199.8 147.58 199.8 144.81"></polygon><path class="cls-46" d="M194.53,113.05a11.37,11.37,0,0,0-2.23-2.5v-2.32a11.63,11.63,0,0,1,1.64,1.91l1.15-1.24a13.45,13.45,0,0,0-2.78-2.94v-.82l-1.49-.86v.79a2.24,2.24,0,0,0-2.06-.12,1.89,1.89,0,0,0-.79,1.82,4.58,4.58,0,0,0,.68,2.5,10.8,10.8,0,0,0,2.15,2.42v2.4a12.89,12.89,0,0,1-2-2.54l-1.31,1.06a13.77,13.77,0,0,0,3.28,3.75v1.18l1.48.85v-1.12a2.42,2.42,0,0,0,2.15.16,1.88,1.88,0,0,0,.81-1.82A4.69,4.69,0,0,0,194.53,113.05Zm-3.72-3.87a2.08,2.08,0,0,1-.6-1.34c0-.43.2-.6.61-.53Zm1.47,5.85v-2a3.33,3.33,0,0,1,.56.74,1.51,1.51,0,0,1,.15.65C193,114.93,192.76,115.13,192.28,115Z"></path><g class="cls-94"><path class="cls-52" d="M180,29.28,155.44,14.8A2.6,2.6,0,0,0,151.52,17V78.56A5.11,5.11,0,0,0,154.05,83L178.6,97.46a2.6,2.6,0,0,0,3.92-2.24V33.7A5.11,5.11,0,0,0,180,29.28Z"></path><path class="cls-53" d="M179.76,29.58,155.45,15.24a2.57,2.57,0,0,0-3.88,2.22V78.51a5.1,5.1,0,0,0,2.49,4.38l24.31,14.33A2.57,2.57,0,0,0,182.25,95V34A5.09,5.09,0,0,0,179.76,29.58Z"></path><path class="cls-54" d="M179.51,29.88,155.45,15.69a2.55,2.55,0,0,0-3.84,2.19V78.47a5,5,0,0,0,2.47,4.33L178.14,97a2.55,2.55,0,0,0,3.84-2.2V34.21A5,5,0,0,0,179.51,29.88Z"></path><path class="cls-55" d="M179.26,30.18l-23.81-14a2.52,2.52,0,0,0-3.8,2.17V78.43a5,5,0,0,0,2.44,4.28l23.82,14a2.52,2.52,0,0,0,3.8-2.17V34.46A5,5,0,0,0,179.26,30.18Z"></path><path class="cls-56" d="M179,30.48l-23.57-13.9a2.49,2.49,0,0,0-3.76,2.15V78.38a4.92,4.92,0,0,0,2.42,4.24l23.57,13.9a2.49,2.49,0,0,0,3.76-2.15V34.71A4.9,4.9,0,0,0,179,30.48Z"></path><path class="cls-57" d="M178.77,30.77,155.45,17a2.47,2.47,0,0,0-3.72,2.13V78.34a4.85,4.85,0,0,0,2.4,4.19l23.31,13.75a2.47,2.47,0,0,0,3.73-2.12V35A4.89,4.89,0,0,0,178.77,30.77Z"></path><path class="cls-58" d="M178.52,31.07l-23.07-13.6a2.44,2.44,0,0,0-3.68,2.1V78.3a4.83,4.83,0,0,0,2.37,4.15l23.07,13.6a2.44,2.44,0,0,0,3.68-2.1V35.22A4.81,4.81,0,0,0,178.52,31.07Z"></path><path class="cls-59" d="M178.28,31.37,155.45,17.91A2.41,2.41,0,0,0,151.81,20V78.25a4.76,4.76,0,0,0,2.35,4.11L177,95.82a2.42,2.42,0,0,0,3.64-2.09V35.47A4.77,4.77,0,0,0,178.28,31.37Z"></path><path class="cls-60" d="M178,31.67,155.46,18.35a2.39,2.39,0,0,0-3.61,2.06v57.8a4.71,4.71,0,0,0,2.32,4.06l22.57,13.31a2.39,2.39,0,0,0,3.61-2.06V35.73A4.7,4.7,0,0,0,178,31.67Z"></path><path class="cls-61" d="M177.78,32,155.46,18.8a2.36,2.36,0,0,0-3.57,2V78.17a4.66,4.66,0,0,0,2.3,4l22.32,13.17a2.37,2.37,0,0,0,3.57-2V36A4.68,4.68,0,0,0,177.78,32Z"></path><path class="cls-62" d="M177.54,32.26l-22.08-13a2.33,2.33,0,0,0-3.52,2V78.12a4.62,4.62,0,0,0,2.26,4l22.08,13a2.33,2.33,0,0,0,3.52-2V36.23A4.62,4.62,0,0,0,177.54,32.26Z"></path><path class="cls-63" d="M177.29,32.56,155.46,19.69a2.31,2.31,0,0,0-3.48,2v56.4A4.57,4.57,0,0,0,154.22,82l21.83,12.87a2.31,2.31,0,0,0,3.48-2V36.49A4.55,4.55,0,0,0,177.29,32.56Z"></path><path class="cls-64" d="M177,32.86,155.46,20.13a2.28,2.28,0,0,0-3.44,2V78a4.51,4.51,0,0,0,2.21,3.88l21.58,12.73a2.29,2.29,0,0,0,3.45-2V36.74A4.49,4.49,0,0,0,177,32.86Z"></path><path class="cls-65" d="M176.8,33.15,155.46,20.57a2.26,2.26,0,0,0-3.4,1.95V78a4.45,4.45,0,0,0,2.19,3.84l21.33,12.58a2.26,2.26,0,0,0,3.41-2V37A4.48,4.48,0,0,0,176.8,33.15Z"></path><path class="cls-66" d="M176.55,33.45,155.47,21a2.23,2.23,0,0,0-3.37,1.92V78a4.38,4.38,0,0,0,2.17,3.79l21.08,12.44a2.24,2.24,0,0,0,3.37-1.93v-55A4.42,4.42,0,0,0,176.55,33.45Z"></path><path class="cls-67" d="M176.3,33.75,155.47,21.46a2.21,2.21,0,0,0-3.33,1.9V77.91a4.35,4.35,0,0,0,2.14,3.74l20.84,12.29a2.2,2.2,0,0,0,3.32-1.9V37.5A4.34,4.34,0,0,0,176.3,33.75Z"></path><path class="cls-68" d="M176.06,34.05,155.47,21.91a2.18,2.18,0,0,0-3.29,1.87V77.86a4.3,4.3,0,0,0,2.12,3.7l20.59,12.15a2.18,2.18,0,0,0,3.28-1.88V37.75A4.29,4.29,0,0,0,176.06,34.05Z"></path><path class="cls-69" d="M175.81,34.35l-20.34-12a2.16,2.16,0,0,0-3.25,1.86V77.82a4.27,4.27,0,0,0,2.09,3.66l20.34,12a2.15,2.15,0,0,0,3.25-1.85V38A4.24,4.24,0,0,0,175.81,34.35Z"></path><path class="cls-70" d="M175.56,34.64,155.47,22.8a2.13,2.13,0,0,0-3.21,1.83V77.78a4.21,4.21,0,0,0,2.07,3.61l20.09,11.85a2.13,2.13,0,0,0,3.21-1.83V38.26A4.21,4.21,0,0,0,175.56,34.64Z"></path><path class="cls-71" d="M175.32,34.94l-19.85-11.7a2.09,2.09,0,0,0-3.16,1.81V77.73a4.13,4.13,0,0,0,2,3.57L174.19,93a2.09,2.09,0,0,0,3.16-1.81V38.51A4.15,4.15,0,0,0,175.32,34.94Z"></path><path class="cls-72" d="M175.07,35.24,155.48,23.68a2.08,2.08,0,0,0-3.13,1.79V77.69a4.07,4.07,0,0,0,2,3.52L174,92.77A2.07,2.07,0,0,0,177.08,91V38.76A4.09,4.09,0,0,0,175.07,35.24Z"></path><path class="cls-73" d="M174.82,35.54,155.48,24.13a2,2,0,0,0-3.09,1.76V77.65a4,4,0,0,0,2,3.48l19.34,11.4a2,2,0,0,0,3.09-1.76V39A4,4,0,0,0,174.82,35.54Z"></path><path class="cls-74" d="M174.58,35.83l-19.1-11.26a2,2,0,0,0-3,1.74V77.6a4,4,0,0,0,2,3.44l19.1,11.26a2,2,0,0,0,3-1.74V39.27A4,4,0,0,0,174.58,35.83Z"></path><path class="cls-75" d="M174.33,36.13,155.48,25a2,2,0,0,0-3,1.72V77.56A4,4,0,0,0,154.41,81l18.85,11.12a2,2,0,0,0,3-1.72V39.52A4,4,0,0,0,174.33,36.13Z"></path><path class="cls-76" d="M174.08,36.43l-18.6-11a2,2,0,0,0-3,1.7V77.51a3.9,3.9,0,0,0,1.91,3.35l18.6,11a2,2,0,0,0,3-1.69V39.78A3.87,3.87,0,0,0,174.08,36.43Z"></path><path class="cls-77" d="M173.84,36.73,155.48,25.91a1.94,1.94,0,0,0-2.93,1.67V77.47a3.82,3.82,0,0,0,1.89,3.3L172.79,91.6a1.94,1.94,0,0,0,2.93-1.68V40A3.84,3.84,0,0,0,173.84,36.73Z"></path><path class="cls-78" d="M173.59,37,155.48,26.35A1.92,1.92,0,0,0,152.59,28V77.43a3.77,3.77,0,0,0,1.86,3.25l18.11,10.68a1.91,1.91,0,0,0,2.89-1.65V40.28A3.77,3.77,0,0,0,173.59,37Z"></path><path class="cls-79" d="M173.34,37.32,155.49,26.79a1.9,1.9,0,0,0-2.86,1.63v49a3.72,3.72,0,0,0,1.84,3.21l17.86,10.53a1.89,1.89,0,0,0,2.85-1.63v-49A3.74,3.74,0,0,0,173.34,37.32Z"></path><path class="cls-80" d="M173.1,37.62,155.49,27.24a1.86,1.86,0,0,0-2.81,1.6v48.5a3.66,3.66,0,0,0,1.81,3.17l17.6,10.38a1.87,1.87,0,0,0,2.82-1.6V40.79A3.69,3.69,0,0,0,173.1,37.62Z"></path><path class="cls-81" d="M172.85,37.92,155.49,27.68a1.84,1.84,0,0,0-2.77,1.58v48a3.63,3.63,0,0,0,1.78,3.12l17.36,10.24a1.84,1.84,0,0,0,2.77-1.58V41A3.63,3.63,0,0,0,172.85,37.92Z"></path><path class="cls-82" d="M172.6,38.22,155.49,28.13a1.8,1.8,0,0,0-2.73,1.56V77.25a3.57,3.57,0,0,0,1.76,3.08l17.11,10.09a1.8,1.8,0,0,0,2.73-1.56V41.3A3.57,3.57,0,0,0,172.6,38.22Z"></path><path class="cls-83" d="M172.36,38.52l-16.87-10a1.79,1.79,0,0,0-2.69,1.54v47.1a3.54,3.54,0,0,0,1.73,3l16.87,9.94a1.79,1.79,0,0,0,2.69-1.54V41.55A3.51,3.51,0,0,0,172.36,38.52Z"></path><path class="cls-84" d="M172.11,38.81,155.49,29a1.76,1.76,0,0,0-2.65,1.52V77.17a3.48,3.48,0,0,0,1.71,3L171.16,90a1.77,1.77,0,0,0,2.66-1.52V41.8A3.48,3.48,0,0,0,172.11,38.81Z"></path><path class="cls-85" d="M171.86,39.11l-16.37-9.65A1.73,1.73,0,0,0,152.88,31V77.13a3.43,3.43,0,0,0,1.68,2.94l16.37,9.65a1.73,1.73,0,0,0,2.61-1.49V42.05A3.42,3.42,0,0,0,171.86,39.11Z"></path><path class="cls-86" d="M171.62,39.41,155.5,29.9a1.71,1.71,0,0,0-2.58,1.47V77.08a3.36,3.36,0,0,0,1.66,2.9l16.12,9.51A1.7,1.7,0,0,0,173.27,88V42.31A3.37,3.37,0,0,0,171.62,39.41Z"></path><path class="cls-87" d="M171.37,39.71,155.5,30.35A1.68,1.68,0,0,0,153,31.79V77a3.3,3.3,0,0,0,1.63,2.85l15.88,9.36A1.68,1.68,0,0,0,173,87.8V42.56A3.3,3.3,0,0,0,171.37,39.71Z"></path><path class="cls-88" d="M171.12,40,155.5,30.79A1.65,1.65,0,0,0,153,32.22V77a3.28,3.28,0,0,0,1.6,2.82L170.23,89a1.66,1.66,0,0,0,2.5-1.43V42.82A3.27,3.27,0,0,0,171.12,40Z"></path><path class="cls-89" d="M170.88,40.3,155.5,31.24a1.62,1.62,0,0,0-2.45,1.4V77a3.21,3.21,0,0,0,1.58,2.77L170,88.78a1.63,1.63,0,0,0,2.46-1.4V43.07A3.24,3.24,0,0,0,170.88,40.3Z"></path><path class="cls-90" d="M170.63,40.6,155.5,31.68a1.6,1.6,0,0,0-2.41,1.38V76.91a3.16,3.16,0,0,0,1.55,2.72l15.13,8.92a1.6,1.6,0,0,0,2.41-1.38V43.32A3.16,3.16,0,0,0,170.63,40.6Z"></path><path class="cls-91" d="M170.38,40.9,155.5,32.12a1.57,1.57,0,0,0-2.37,1.36V76.87a3.09,3.09,0,0,0,1.53,2.67l14.88,8.78A1.58,1.58,0,0,0,171.91,87V43.57A3.09,3.09,0,0,0,170.38,40.9Z"></path><path class="cls-92" d="M170.14,41.2l-14.63-8.63a1.55,1.55,0,0,0-2.34,1.33V76.82a3.06,3.06,0,0,0,1.5,2.63l14.63,8.63a1.55,1.55,0,0,0,2.34-1.33V43.83A3,3,0,0,0,170.14,41.2Z"></path><path class="cls-93" d="M169.89,41.49,155.51,33a1.52,1.52,0,0,0-2.3,1.31V76.78a3,3,0,0,0,1.48,2.59l14.38,8.48a1.53,1.53,0,0,0,2.3-1.31V44.08A3,3,0,0,0,169.89,41.49Z"></path></g><path class="cls-93" d="M171.21,33.88,149.27,20.94a2.32,2.32,0,0,0-3.5,2v55A4.56,4.56,0,0,0,148,81.85L170,94.79a2.32,2.32,0,0,0,3.5-2v-55A4.56,4.56,0,0,0,171.21,33.88Z"></path><path class="cls-46" d="M147.41,81.42a4.45,4.45,0,0,0,.61.43l3.42,2V51.59l-4-2.38Z"></path><polygon class="cls-46" points="154.16 85.47 158.19 87.85 158.19 48.76 154.16 46.38 154.16 85.47"></polygon><polygon class="cls-46" points="160.83 89.41 164.86 91.78 164.86 66.31 160.83 63.94 160.83 89.41"></polygon><path class="cls-46" d="M171.47,56.66l-4-2.38v39L170,94.79a2.29,2.29,0,0,0,1.51.3Z"></path><path class="cls-95" d="M139.63,118.45a3.66,3.66,0,0,1-1.74-.44l-11-5.91a3.67,3.67,0,1,1,3.48-6.47l11,5.91a3.67,3.67,0,0,1-1.74,6.91Z"></path><path class="cls-96" d="M109.77,184.86a27.48,27.48,0,0,1,5.25-2.45,2.19,2.19,0,0,1,2.8,1.92c.14,2-.32,5.11-4.18,6.17,0,0,.08,3-2.34,3.79h-2.72a1.84,1.84,0,0,1-1.84-1.85v-4.21Z"></path><path class="cls-46" d="M109.4,189c-2.36-.43-3-.27-2.54-2.64l2.15-29-1.47-25.56c-.19-2.39,3.64,1.73,6,1.54s5.53-1.51,5.72.89l1,24.95L114,187.89c-.38,2.1-1.73,1.16-3.79,1.16A4.19,4.19,0,0,1,109.4,189Z"></path><path class="cls-96" d="M126.67,192h2.78a13.31,13.31,0,0,0,3.44-.45l1.94-.51a1.71,1.71,0,0,1,.95,0h0a1.65,1.65,0,0,1,1.1,1.56v.26a1.22,1.22,0,0,1-.43.93c-1.46,1.22-6.29,5.09-8.94,5.19l-.84-.42v.64a.83.83,0,0,1-.74.83l-3.4.37a2.93,2.93,0,0,1-3.25-3.1l.22-3.52Z"></path><path class="cls-97" d="M112.39,189.25l4-28.74-.93-23.3c.77-1-1.68-4.72-.78-5.06,1,.07.35,1.65,1.46,1.85,1.15.71,3.07.37,3.18,1.81l.92,23.39L114,187.89C113.75,189.11,113.21,189.3,112.39,189.25Z"></path><path class="cls-46" d="M122.76,195.68c-2.39-.16-3.72.18-3.55-2.22l1.12-35.73-4.84-21.84c0-2.41,8.23-1.45,10.64-1.45s6,1.89,6,4.3l-.87,20.94-4.33,34.38c-.16,2.3-1.58,1.64-3.85,1.64Z"></path><path class="cls-98" d="M108.52,108.34l11.49,4c1.57-.21,3.07-4.27,3.2-5.85a3.38,3.38,0,0,0-3.83-3.67l-7.2,1,2.28-14.27a3.55,3.55,0,0,0-2.71-4,3.39,3.39,0,0,0-4,2.8l-2.37,14.82A4.7,4.7,0,0,0,108.52,108.34Z"></path><path class="cls-98" d="M126.26,89.06,118,84.31a7.21,7.21,0,0,0-10.81,6.25l2.32,19.64c.47,3.12-.68,9.06-.68,9.06a15.3,15.3,0,0,0-1,5,11.25,11.25,0,0,0-.62,7.1c.39,1.67,14,10.19,25.52,8.82l.37-5.3a43.62,43.62,0,0,0-.51-5.35l-.7-4.5a20.81,20.81,0,0,1-.2-4.6l1.22-17.93A13.51,13.51,0,0,0,126.26,89.06Z"></path><rect class="cls-95" x="117.71" y="74.34" width="7.69" height="15.31"></rect><path class="cls-46" d="M125.4,88.23s-7.56,2.2-7.69-4.13a2.85,2.85,0,0,0-2.21-.4c-1.52.21-2.63,8.85,13.12,6.84Z"></path><path class="cls-99" d="M129.83,73.47v8.75a2.68,2.68,0,0,1-3.31,2.61l-4.6-1.09a4.23,4.23,0,0,1-3-2.71l-2.44-7.09a1,1,0,0,1,.19-1h0a7.86,7.86,0,0,1,8.48-2.5l3.21,1A2.11,2.11,0,0,1,129.83,73.47Z"></path><path class="cls-95" d="M129.83,73.47v8.75a2.68,2.68,0,0,1-3.31,2.61l-4.6-1.09a4.23,4.23,0,0,1-3-2.71l-2.44-7.09a1,1,0,0,1,.19-1h0a7.86,7.86,0,0,1,8.48-2.5l3.21,1A2.11,2.11,0,0,1,129.83,73.47Z"></path><path class="cls-98" d="M115.25,72.88a1.28,1.28,0,0,0,.07-.28,16.28,16.28,0,0,0-.07-2.2c.1-1.81,2.18-3.4,3.87-3.53a25.8,25.8,0,0,1,3.28.21,4.5,4.5,0,0,0,3.11-.76c.72-.59,1.13-1.5,1.88-2a3,3,0,0,1,4.16,1.09c1.48,2.42.11,6-2.32,7.19a6.53,6.53,0,0,0-1.58.86c-.9.82-.8,1.9-1,3-.08.54,0,2.13-.29,2.45s-.89.07-1.1-.32c-.44-.8,0-1.84-.89-2.38-.51-.32-1.68-.38-2,.2a1.71,1.71,0,0,0-.17.78c-.13,2.2.47,3.92-.75,5.93a2.58,2.58,0,0,1-.89,1,2.46,2.46,0,0,1-2.13-.09c-1.44-.63-3.56-2.27-3.15-4a6.79,6.79,0,0,0,.36-1.7,4.91,4.91,0,0,0-.54-1.77,3.93,3.93,0,0,1-.33-2.4C114.9,73.68,115.12,73.29,115.25,72.88Z"></path><polygon class="cls-100" points="125.4 84.28 122.93 83.66 125.4 87.31 125.4 84.28"></polygon><path class="cls-96" d="M130.68,78.29a1.62,1.62,0,0,1-.85-.24v-.31a1.37,1.37,0,0,0,1.28.18,1.22,1.22,0,0,0,.5-1.12,3.92,3.92,0,0,0-1.78-3.15v-.33a4.53,4.53,0,0,1,2,3.48,1.46,1.46,0,0,1-.62,1.34A1.09,1.09,0,0,1,130.68,78.29Z"></path><path class="cls-96" d="M123.28,79.05a1,1,0,0,1-1-1,1.28,1.28,0,0,1,.88-1.23l7.74-2.52.08.24-7.74,2.52a1,1,0,0,0-.71,1,.75.75,0,0,0,.88.73l0,.25Z"></path><path class="cls-95" d="M139.63,118.45a3.68,3.68,0,0,1-3.13-1.75l-11-17.9A3.67,3.67,0,1,1,131.75,95l11,17.9a3.67,3.67,0,0,1-1.21,5.05A3.62,3.62,0,0,1,139.63,118.45Z"></path><path class="cls-98" d="M134.84,110.86a3.88,3.88,0,0,1-3.32-1.85l-6.21-10.1a3.89,3.89,0,0,1,6.63-4.08l6.21,10.1a3.91,3.91,0,0,1-1.28,5.36A3.86,3.86,0,0,1,134.84,110.86Z"></path><g class="cls-51"><path class="cls-101" d="M113,134.45a13.12,13.12,0,0,0,.31-3.53c-.2-2.09-1.37-4-1.58-6.08-.28-2.75,1.12-5.35,2.44-7.78a8.85,8.85,0,0,0,1.32-3.74,7.31,7.31,0,0,0-1-3.62c-1.75-3.33-4.48-6.25-5.15-10a11.49,11.49,0,0,0-.53-2.49,2.65,2.65,0,0,0-.89-1.1l1.66,14c.48,3.12-.68,9.06-.68,9.06a15.57,15.57,0,0,0-1,5,11.25,11.25,0,0,0-.62,7.1c.15.66,2.33,2.36,5.61,4.11C112.89,135.1,113,134.78,113,134.45Z"></path></g><g class="cls-102"><path class="cls-93" d="M131.55,65.38a3.14,3.14,0,0,0-3.41-1.26c.18.93,1.13,1.49,1.66,2.29a2.82,2.82,0,0,1,.33,2.38,5.56,5.56,0,0,1-1.39,2c-.68.73-2.42,1.94-2.18,3.09a.88.88,0,0,0,.43.58,2.39,2.39,0,0,1,.66-1,6.56,6.56,0,0,1,1.58-.87C131.66,71.4,133,67.8,131.55,65.38Z"></path></g><g class="cls-102"><path class="cls-93" d="M138.63,106.13a3.92,3.92,0,0,0-.48-1.19l-6.21-10.11a4,4,0,0,0-.77-.9,13.34,13.34,0,0,0-3-3.57c.41,1.53,1.47,2.87,2.13,4.34.45,1,.71,2,1.2,3,1.3,2.55,4,4.11,5.46,6.58a30.42,30.42,0,0,1,1.57,3.87c.73,1.83,1.78,3.51,2.54,5.33a10.65,10.65,0,0,1,.92,4.13,3.67,3.67,0,0,0,.82-4.78Z"></path></g><g class="cls-102"><path class="cls-93" d="M126.92,194.06l4.33-34.38.81-19.47.68-.07.37-5.3a43.62,43.62,0,0,0-.51-5.35l-.7-4.5c-.09-.55-.14-1.11-.18-1.66-.78,2.92-.29,5.31-.16,8.33.07,1.85.19,3.93.25,5.78,0,.64,0,2.14-.06,2.78l-.66.05c-.17,4.59-1.23,8.87-1.49,13.47s.24,9-.38,13.43c-.41,3-1.34,6-1.92,9a81.18,81.18,0,0,0-1.13,12.46,25.28,25.28,0,0,0,.36,6.74A2.08,2.08,0,0,0,126.92,194.06Z"></path></g></g></g></svg> 