<?xml version="1.0" encoding="UTF-8"?> <svg xmlns="http://www.w3.org/2000/svg" viewBox="0 0 253.1 253.1"><defs><style>.cls-1,.cls-2{fill:none;stroke:#1a1c51;stroke-width:8.22px;}.cls-1{stroke-miterlimit:2.61;}.cls-2{stroke-linecap:round;stroke-linejoin:round;}.cls-2,.cls-4{fill-rule:evenodd;}.cls-3,.cls-4{fill:#1a1c51;}</style></defs><g id="Layer_2" data-name="Layer 2"><g id="Layer_1-2" data-name="Layer 1"><circle class="cls-1" cx="126.55" cy="126.55" r="122.44" transform="translate(-52.42 126.55) rotate(-45)"></circle><path class="cls-2" d="M57.74,74.5l-36.35-.42L86.72,236.77,129.29,139l39.2,97.36q26.76-62,53.53-123.92c10-22,13.54-40.68,6.92-52.92-9.36-17.29-30.21-16.89-41.19-.41-10.26,15.4,5.94,28.29,13.62,55l-21.92,59.43L139.72,73.74l-36.88.53,17.6,44.91L96.84,174Z"></path><rect class="cls-3" x="14.65" y="70.28" width="65.33" height="7.17"></rect><rect class="cls-3" x="90.09" y="70.28" width="69.12" height="7.17"></rect><path class="cls-4" d="M78.62,32.71h0a4.44,4.44,0,0,1,5.53,2.94l3.7,12.09a4.44,4.44,0,0,1-2.94,5.53h0a4.44,4.44,0,0,1-5.52-2.94l-3.7-12.09A4.45,4.45,0,0,1,78.62,32.71Z"></path><path class="cls-4" d="M103.07,24.25h0a4.43,4.43,0,0,1,5,3.73l1.85,12.51a4.45,4.45,0,0,1-3.73,5h0a4.44,4.44,0,0,1-5-3.73L99.33,29.27A4.44,4.44,0,0,1,103.07,24.25Z"></path><path class="cls-4" d="M127.12,20h0a4.44,4.44,0,0,1,4.41,4.44l-.05,12.65A4.44,4.44,0,0,1,127,41.52h0a4.44,4.44,0,0,1-4.41-4.44l.05-12.65A4.43,4.43,0,0,1,127.12,20Z"></path><path class="cls-4" d="M175,32.71h0a4.44,4.44,0,0,0-5.52,2.94l-3.7,12.09a4.44,4.44,0,0,0,2.93,5.53h0a4.44,4.44,0,0,0,5.53-2.94l3.7-12.09A4.45,4.45,0,0,0,175,32.71Z"></path><path class="cls-4" d="M150.53,24.25h0a4.42,4.42,0,0,0-5,3.73l-1.85,12.51a4.44,4.44,0,0,0,3.73,5h0a4.44,4.44,0,0,0,5-3.73l1.84-12.51A4.42,4.42,0,0,0,150.53,24.25Z"></path></g></g></svg> 