<?xml version="1.0" encoding="UTF-8"?> <svg xmlns="http://www.w3.org/2000/svg" xmlns:xlink="http://www.w3.org/1999/xlink" viewBox="0 0 288.95 283.41"><defs><style>.cls-1,.cls-43,.cls-51,.cls-52,.cls-53,.cls-54,.cls-55,.cls-56,.cls-57,.cls-58,.cls-59,.cls-60,.cls-61,.cls-62,.cls-63,.cls-64,.cls-65,.cls-66,.cls-67,.cls-68,.cls-69,.cls-70,.cls-71,.cls-72,.cls-73,.cls-74,.cls-75,.cls-76,.cls-77,.cls-78,.cls-79,.cls-80,.cls-81,.cls-82,.cls-83,.cls-84,.cls-85,.cls-86,.cls-87,.cls-88,.cls-89,.cls-90{fill:#adc5e5;}.cls-1{fill-opacity:0;}.cls-2{fill:#abc4e4;}.cls-2,.cls-51{opacity:0.02;}.cls-10,.cls-101,.cls-11,.cls-12,.cls-13,.cls-14,.cls-15,.cls-16,.cls-17,.cls-18,.cls-19,.cls-2,.cls-20,.cls-21,.cls-22,.cls-23,.cls-24,.cls-25,.cls-26,.cls-27,.cls-28,.cls-29,.cls-3,.cls-30,.cls-31,.cls-32,.cls-33,.cls-34,.cls-35,.cls-36,.cls-37,.cls-38,.cls-39,.cls-4,.cls-40,.cls-41,.cls-5,.cls-51,.cls-52,.cls-53,.cls-54,.cls-55,.cls-56,.cls-57,.cls-58,.cls-59,.cls-6,.cls-60,.cls-61,.cls-62,.cls-63,.cls-64,.cls-65,.cls-66,.cls-67,.cls-68,.cls-69,.cls-7,.cls-70,.cls-71,.cls-72,.cls-73,.cls-74,.cls-75,.cls-76,.cls-77,.cls-78,.cls-79,.cls-8,.cls-80,.cls-81,.cls-82,.cls-83,.cls-84,.cls-85,.cls-86,.cls-87,.cls-88,.cls-89,.cls-9,.cls-90,.cls-99{isolation:isolate;}.cls-3{fill:#a9c2e3;}.cls-3,.cls-52{opacity:0.05;}.cls-4{fill:#a7c1e3;}.cls-4,.cls-53{opacity:0.07;}.cls-5{fill:#a5bfe2;}.cls-5,.cls-54{opacity:0.1;}.cls-6{fill:#a3bee1;}.cls-55,.cls-6{opacity:0.12;}.cls-7{fill:#a1bde1;}.cls-56,.cls-7{opacity:0.15;}.cls-8{fill:#9fbbe0;}.cls-57,.cls-8{opacity:0.17;}.cls-9{fill:#9dbadf;}.cls-58,.cls-9{opacity:0.2;}.cls-10,.cls-94{fill:#9bb8df;}.cls-10,.cls-59{opacity:0.22;}.cls-11{fill:#99b7de;}.cls-11,.cls-60{opacity:0.24;}.cls-12{fill:#97b5de;}.cls-12,.cls-61{opacity:0.27;}.cls-13{fill:#95b4dd;}.cls-13,.cls-62{opacity:0.29;}.cls-14{fill:#93b3dc;}.cls-14,.cls-63{opacity:0.32;}.cls-15{fill:#91b1dc;}.cls-15,.cls-64{opacity:0.34;}.cls-16{fill:#8fb0db;}.cls-16,.cls-65{opacity:0.37;}.cls-17{fill:#8daeda;}.cls-17,.cls-66{opacity:0.39;}.cls-18{fill:#8badda;}.cls-18,.cls-67{opacity:0.41;}.cls-19{fill:#89acd9;}.cls-19,.cls-68{opacity:0.44;}.cls-20{fill:#87aad8;}.cls-20,.cls-69{opacity:0.46;}.cls-21{fill:#85a9d8;}.cls-21,.cls-70{opacity:0.49;}.cls-22{fill:#83a7d7;}.cls-22,.cls-71{opacity:0.51;}.cls-23{fill:#81a6d6;}.cls-23,.cls-72{opacity:0.54;}.cls-24{fill:#7fa4d6;}.cls-24,.cls-73{opacity:0.56;}.cls-25{fill:#7da3d5;}.cls-25,.cls-74{opacity:0.59;}.cls-26{fill:#7ba2d4;}.cls-26,.cls-75{opacity:0.61;}.cls-27{fill:#79a0d4;}.cls-27,.cls-76{opacity:0.63;}.cls-28{fill:#779fd3;}.cls-28,.cls-77{opacity:0.66;}.cls-29{fill:#759dd3;}.cls-29,.cls-78{opacity:0.68;}.cls-30{fill:#739cd2;}.cls-30,.cls-79{opacity:0.71;}.cls-31{fill:#719bd1;}.cls-31,.cls-80{opacity:0.73;}.cls-32{fill:#6f99d1;}.cls-32,.cls-81{opacity:0.76;}.cls-33{fill:#6d98d0;}.cls-33,.cls-82{opacity:0.78;}.cls-34{fill:#6b96cf;}.cls-34,.cls-83{opacity:0.8;}.cls-35{fill:#6995cf;}.cls-35,.cls-84{opacity:0.83;}.cls-36{fill:#6793ce;}.cls-36,.cls-85{opacity:0.85;}.cls-37{fill:#6592cd;}.cls-37,.cls-86{opacity:0.88;}.cls-38{fill:#6391cd;}.cls-38,.cls-87{opacity:0.9;}.cls-39{fill:#618fcc;}.cls-39,.cls-88{opacity:0.93;}.cls-40{fill:#5f8ecb;}.cls-40,.cls-89{opacity:0.95;}.cls-41{fill:#5d8ccb;}.cls-41,.cls-90{opacity:0.98;}.cls-42{fill:#5b8bca;}.cls-44{fill:#f0f4fc;}.cls-45{fill:url(#linear-gradient);}.cls-46{fill:url(#linear-gradient-2);}.cls-47{fill:#e7ad99;}.cls-48{fill:#fff;}.cls-101,.cls-49{fill:#326ebd;}.cls-50{opacity:0.5;}.cls-91{fill:#f8f9fe;}.cls-92{fill:#bd5612;}.cls-93{fill:#fc7318;}.cls-95,.cls-99{fill:#feb423;}.cls-96{fill:#4d5068;}.cls-97{opacity:0.6;}.cls-101,.cls-98{opacity:0.3;}.cls-99{opacity:0.85;}.cls-100{fill:#fd8f46;}.cls-102{fill:#fed27b;}</style><linearGradient id="linear-gradient" x1="126.6" y1="-253.23" x2="97.03" y2="-304.04" gradientTransform="matrix(1, 0, 0, -1, 0, -99.65)" gradientUnits="userSpaceOnUse"><stop offset="0" stop-color="#d6e2f2"></stop><stop offset="1" stop-color="#fff"></stop></linearGradient><linearGradient id="linear-gradient-2" x1="87.12" y1="-216.73" x2="51.38" y2="-278.16" xlink:href="#linear-gradient"></linearGradient></defs><g id="Layer_2" data-name="Layer 2"><g id="Layer_1-2" data-name="Layer 1"><path class="cls-1" d="M131.77,117.94,8.06,189.37a12.11,12.11,0,0,0,.12,21L132,280.14a25.39,25.39,0,0,0,24.93,0l123.84-69.72a12.11,12.11,0,0,0,.11-21L157.18,117.94A25.41,25.41,0,0,0,131.77,117.94Z"></path><path class="cls-2" d="M131.92,117.9,9.7,188.47a12,12,0,0,0,.11,20.81l122.35,68.88a25.13,25.13,0,0,0,24.63,0l122.35-68.88a12,12,0,0,0,.12-20.81L157,117.9A25.14,25.14,0,0,0,131.92,117.9Z"></path><path class="cls-3" d="M132.07,117.86,11.33,187.58a11.82,11.82,0,0,0,.11,20.55l120.87,68.05a24.81,24.81,0,0,0,24.33,0l120.87-68.05a11.82,11.82,0,0,0,.11-20.55L156.88,117.86A24.82,24.82,0,0,0,132.07,117.86Z"></path><path class="cls-4" d="M132.23,117.82,13,186.68a11.68,11.68,0,0,0,.11,20.3L132.46,274.2a24.51,24.51,0,0,0,24,0L275.88,207a11.68,11.68,0,0,0,.11-20.3L156.73,117.82A24.53,24.53,0,0,0,132.23,117.82Z"></path><path class="cls-5" d="M132.38,117.78l-117.79,68a11.54,11.54,0,0,0,.11,20.05l117.91,66.38a24.19,24.19,0,0,0,23.74,0l117.9-66.38a11.54,11.54,0,0,0,.11-20.05l-117.79-68A24.2,24.2,0,0,0,132.38,117.78Z"></path><path class="cls-6" d="M132.53,117.74,16.23,184.89a11.39,11.39,0,0,0,.1,19.79l116.43,65.55a23.87,23.87,0,0,0,23.44,0l116.42-65.55a11.39,11.39,0,0,0,.11-19.79L156.42,117.74A23.88,23.88,0,0,0,132.53,117.74Z"></path><path class="cls-7" d="M132.68,117.7,17.86,184a11.25,11.25,0,0,0,.1,19.55L132.9,268.25a23.62,23.62,0,0,0,23.15,0L271,203.54a11.25,11.25,0,0,0,.1-19.55L156.27,117.7A23.61,23.61,0,0,0,132.68,117.7Z"></path><path class="cls-8" d="M132.83,117.66,19.49,183.1a11.1,11.1,0,0,0,.1,19.29l113.46,63.88a23.31,23.31,0,0,0,22.85,0l113.46-63.88a11.1,11.1,0,0,0,.1-19.29L156.11,117.66A23.27,23.27,0,0,0,132.83,117.66Z"></path><path class="cls-9" d="M133,117.62,21.12,182.2a11,11,0,0,0,.11,19l112,63.05a23,23,0,0,0,22.55,0l112-63.05a11,11,0,0,0,.1-19L156,117.62A23,23,0,0,0,133,117.62Z"></path><path class="cls-10" d="M133.14,117.58,22.75,181.31a10.81,10.81,0,0,0,.11,18.78L133.35,262.3a22.67,22.67,0,0,0,22.25,0l110.5-62.21a10.81,10.81,0,0,0,.1-18.78L155.81,117.58A22.67,22.67,0,0,0,133.14,117.58Z"></path><path class="cls-11" d="M133.29,117.54,24.39,180.41a10.67,10.67,0,0,0,.1,18.54l109,61.37a22.35,22.35,0,0,0,21.95,0l109-61.37a10.68,10.68,0,0,0,.1-18.54L155.66,117.54A22.35,22.35,0,0,0,133.29,117.54Z"></path><path class="cls-12" d="M133.44,117.5,26,179.52a10.52,10.52,0,0,0,.1,18.28l107.53,60.54a22.08,22.08,0,0,0,21.65,0L262.84,197.8a10.52,10.52,0,0,0,.09-18.28l-107.42-62A22,22,0,0,0,133.44,117.5Z"></path><path class="cls-13" d="M133.59,117.45,27.65,178.62a10.38,10.38,0,0,0,.1,18L133.8,256.36a21.77,21.77,0,0,0,21.35,0l106-59.71a10.38,10.38,0,0,0,.1-18L155.36,117.45A21.81,21.81,0,0,0,133.59,117.45Z"></path><path class="cls-14" d="M133.75,117.41,29.28,177.73a10.23,10.23,0,0,0,.1,17.78L134,254.38a21.45,21.45,0,0,0,21.05,0l104.57-58.87a10.23,10.23,0,0,0,.1-17.78L155.2,117.41A21.46,21.46,0,0,0,133.75,117.41Z"></path><path class="cls-15" d="M133.9,117.37l-103,59.46A10.09,10.09,0,0,0,31,194.36l103.09,58a21.18,21.18,0,0,0,20.75,0l103.09-58a10.09,10.09,0,0,0,.1-17.53l-103-59.46A21.14,21.14,0,0,0,133.9,117.37Z"></path><path class="cls-16" d="M134.05,117.33,32.55,175.94a9.94,9.94,0,0,0,.09,17.27l101.61,57.21a20.88,20.88,0,0,0,20.46,0l101.6-57.21a9.94,9.94,0,0,0,.09-17.27L154.9,117.33A20.87,20.87,0,0,0,134.05,117.33Z"></path><path class="cls-17" d="M134.2,117.29,34.18,175a9.8,9.8,0,0,0,.09,17L134.4,248.43a20.51,20.51,0,0,0,20.16,0l100.12-56.37a9.79,9.79,0,0,0,.09-17l-100-57.75A20.55,20.55,0,0,0,134.2,117.29Z"></path><path class="cls-18" d="M134.36,117.25,35.81,174.14a9.66,9.66,0,0,0,.09,16.78l98.65,55.53a20.25,20.25,0,0,0,19.86,0l98.64-55.53a9.66,9.66,0,0,0,.09-16.78L154.6,117.25A20.27,20.27,0,0,0,134.36,117.25Z"></path><path class="cls-19" d="M134.51,117.21l-97.06,56a9.51,9.51,0,0,0,.09,16.52l97.16,54.7a19.93,19.93,0,0,0,19.56,0l97.16-54.7a9.51,9.51,0,0,0,.09-16.52l-97.07-56A19.93,19.93,0,0,0,134.51,117.21Z"></path><path class="cls-20" d="M134.66,117.17,39.08,172.35a9.37,9.37,0,0,0,.09,16.27l95.67,53.87a19.63,19.63,0,0,0,19.27,0l95.68-53.87a9.36,9.36,0,0,0,.08-16.27l-95.58-55.18A19.61,19.61,0,0,0,134.66,117.17Z"></path><path class="cls-21" d="M134.81,117.13l-94.1,54.33a9.21,9.21,0,0,0,.09,16l94.19,53a19.36,19.36,0,0,0,19,0l94.19-53a9.21,9.21,0,0,0,.09-16l-94.1-54.33A19.34,19.34,0,0,0,134.81,117.13Z"></path><path class="cls-22" d="M135,117.09,42.34,170.56a9.08,9.08,0,0,0,.09,15.77l92.71,52.2a19,19,0,0,0,18.67,0l92.71-52.2a9.08,9.08,0,0,0,.09-15.77L154,117.09A19,19,0,0,0,135,117.09Z"></path><path class="cls-23" d="M135.12,117.05,44,169.67a8.92,8.92,0,0,0,.08,15.51l91.23,51.36a18.72,18.72,0,0,0,18.37,0l91.23-51.36a8.93,8.93,0,0,0,.09-15.51l-91.14-52.62A18.69,18.69,0,0,0,135.12,117.05Z"></path><path class="cls-24" d="M135.27,117,45.61,168.77A8.78,8.78,0,0,0,45.69,184l89.75,50.53a18.41,18.41,0,0,0,18.07,0L243.26,184a8.78,8.78,0,0,0,.09-15.26L153.69,117A18.42,18.42,0,0,0,135.27,117Z"></path><path class="cls-25" d="M135.42,117,47.24,167.88a8.64,8.64,0,0,0,.08,15l88.27,49.69a18.09,18.09,0,0,0,17.77,0l88.27-49.69a8.64,8.64,0,0,0,.08-15L153.53,117A18.09,18.09,0,0,0,135.42,117Z"></path><path class="cls-26" d="M135.57,116.93l-86.7,50A8.5,8.5,0,0,0,49,181.74l86.79,48.86a17.82,17.82,0,0,0,17.47,0L240,181.74a8.5,8.5,0,0,0,.08-14.76l-86.7-50A17.77,17.77,0,0,0,135.57,116.93Z"></path><path class="cls-27" d="M135.72,116.88,50.51,166.09a8.34,8.34,0,0,0,.07,14.5l85.31,48a17.5,17.5,0,0,0,17.17,0l85.31-48a8.35,8.35,0,0,0,.08-14.5l-85.22-49.21A17.55,17.55,0,0,0,135.72,116.88Z"></path><path class="cls-28" d="M135.88,116.84,52.14,165.19a8.2,8.2,0,0,0,.07,14.25L136,226.64a17.19,17.19,0,0,0,16.87,0l83.83-47.2a8.2,8.2,0,0,0,.08-14.25l-83.74-48.35A17.21,17.21,0,0,0,135.88,116.84Z"></path><path class="cls-29" d="M136,116.8,53.77,164.29a8.06,8.06,0,0,0,.08,14l82.34,46.35a16.89,16.89,0,0,0,16.58,0l82.34-46.36a8.06,8.06,0,0,0,.07-14L152.92,116.8A16.88,16.88,0,0,0,136,116.8Z"></path><path class="cls-30" d="M136.18,116.76,55.4,163.4a7.91,7.91,0,0,0,.08,13.75l80.86,45.52a16.57,16.57,0,0,0,16.28,0l80.86-45.52a7.91,7.91,0,0,0,.07-13.75l-80.78-46.64A16.61,16.61,0,0,0,136.18,116.76Z"></path><path class="cls-31" d="M136.33,116.72,57,162.5a7.77,7.77,0,0,0,.08,13.5l79.37,44.69a16.32,16.32,0,0,0,16,0L231.84,176a7.77,7.77,0,0,0,.08-13.5l-79.3-45.78A16.29,16.29,0,0,0,136.33,116.72Z"></path><path class="cls-32" d="M136.48,116.68,58.67,161.61a7.62,7.62,0,0,0,.07,13.24l77.89,43.86a16,16,0,0,0,15.69,0l77.89-43.86a7.62,7.62,0,0,0,.08-13.24l-77.82-44.93A16,16,0,0,0,136.48,116.68Z"></path><path class="cls-33" d="M136.64,116.64,60.3,160.71a7.48,7.48,0,0,0,.07,13l76.41,43a15.68,15.68,0,0,0,15.39,0l76.41-43a7.48,7.48,0,0,0,.07-13l-76.33-44.07A15.68,15.68,0,0,0,136.64,116.64Z"></path><path class="cls-34" d="M136.79,116.6,61.93,159.82A7.33,7.33,0,0,0,62,172.56l74.93,42.19a15.42,15.42,0,0,0,15.09,0L227,172.56a7.33,7.33,0,0,0,.07-12.74L152.16,116.6A15.35,15.35,0,0,0,136.79,116.6Z"></path><path class="cls-35" d="M136.94,116.56,63.56,158.92a7.19,7.19,0,0,0,.07,12.49l73.45,41.35a15,15,0,0,0,14.79,0l73.45-41.35a7.19,7.19,0,0,0,.07-12.49L152,116.56A15.08,15.08,0,0,0,136.94,116.56Z"></path><path class="cls-36" d="M137.09,116.52,65.2,158a7,7,0,0,0,.06,12.23l72,40.52a14.73,14.73,0,0,0,14.49,0l72-40.52a7,7,0,0,0,.07-12.23l-71.9-41.51A14.76,14.76,0,0,0,137.09,116.52Z"></path><path class="cls-37" d="M137.24,116.48,66.83,157.13a6.9,6.9,0,0,0,.06,12l70.49,39.68a14.46,14.46,0,0,0,14.19,0l70.49-39.68a6.9,6.9,0,0,0,.06-12l-70.41-40.65A14.44,14.44,0,0,0,137.24,116.48Z"></path><path class="cls-38" d="M137.4,116.44l-68.94,39.8A6.75,6.75,0,0,0,68.52,168l69,38.85a14.14,14.14,0,0,0,13.89,0l69-38.85a6.75,6.75,0,0,0,.06-11.73l-68.93-39.8A14.16,14.16,0,0,0,137.4,116.44Z"></path><path class="cls-39" d="M137.55,116.4,70.09,155.34a6.61,6.61,0,0,0,.07,11.48l67.52,38a13.88,13.88,0,0,0,13.59,0l67.53-38a6.61,6.61,0,0,0,.06-11.48L151.4,116.4A13.82,13.82,0,0,0,137.55,116.4Z"></path><path class="cls-40" d="M137.7,116.36l-66,38.09a6.45,6.45,0,0,0,.06,11.22l66,37.19a13.56,13.56,0,0,0,13.29,0l66-37.19a6.46,6.46,0,0,0,.06-11.22l-66-38.09A13.5,13.5,0,0,0,137.7,116.36Z"></path><path class="cls-41" d="M137.85,116.31,73.36,153.55a6.32,6.32,0,0,0,.06,11L138,200.88a13.26,13.26,0,0,0,13,0l64.56-36.35a6.33,6.33,0,0,0,.06-11l-64.5-37.24A13.28,13.28,0,0,0,137.85,116.31Z"></path><path class="cls-42" d="M138,116.27,75,152.65a6.18,6.18,0,0,0,.06,10.73l63.08,35.51a12.94,12.94,0,0,0,12.7,0l63.07-35.51a6.18,6.18,0,0,0,.06-10.73l-63-36.38A13,13,0,0,0,138,116.27Z"></path><path class="cls-43" d="M131.59,85.32,0,144.68v12a14.29,14.29,0,0,0,7.22,12.42L131.83,240a25.77,25.77,0,0,0,25.29,0l124.25-70a14.29,14.29,0,0,0,7.27-12.44V147.24L157.36,85.32A25.74,25.74,0,0,0,131.59,85.32Z"></path><path class="cls-44" d="M131.59,61.48,6.15,133.91a12.29,12.29,0,0,0,.11,21.35L131.84,226a25.76,25.76,0,0,0,25.28,0l125.57-70.7a12.29,12.29,0,0,0,.12-21.35L157.36,61.48A25.79,25.79,0,0,0,131.59,61.48Z"></path><polygon class="cls-45" points="66.65 188.94 124.86 154.03 156.13 170.5 96.14 205.86 66.65 188.94"></polygon><polygon class="cls-46" points="14.64 159.83 85.02 117.62 122.83 137.54 50.29 180.29 14.64 159.83"></polygon><polygon class="cls-47" points="141.78 153.89 142.06 157.84 141.77 160.91 136.44 160.39 133.43 158.7 135.73 154.72 137.16 152.94 141.78 153.89"></polygon><path class="cls-48" d="M142.25,159.1a.52.52,0,0,1,.83.35,17.23,17.23,0,0,1,.18,4.33l0,.46A1.93,1.93,0,0,1,141.1,166l-.76-.07a3.71,3.71,0,0,1-1.48-.46c-1.91-1.06-7.27-4-9.44-4.81a4.12,4.12,0,0,1-1.3-.79c-1.17-1-3.36-3.11-3.24-4.35a5.84,5.84,0,0,1,0-1.29,2,2,0,0,1,2.55-1.69l8.3,2.18s-1.57,2.73,0,3.68c0,0,5.23,2.27,5.53,1.45Z"></path><path class="cls-49" d="M125,154.51c-.12,1.23,2.06,3.32,3.23,4.35a4.49,4.49,0,0,0,1.31.79c2.17.81,7.53,3.75,9.44,4.81a3.87,3.87,0,0,0,1.48.46l.76.07a2,2,0,0,0,2.12-1.76l0-.2a4.11,4.11,0,0,1-.08.75l0,.46A1.93,1.93,0,0,1,141.1,166l-.76-.07a3.71,3.71,0,0,1-1.48-.46c-1.91-1.06-7.27-4-9.44-4.81a4.12,4.12,0,0,1-1.3-.79c-1.17-1-3.36-3.11-3.24-4.35a5.84,5.84,0,0,1,0-1.29,1.59,1.59,0,0,1,.06-.3C125,154.27,125,154.51,125,154.51Z"></path><g class="cls-50"><path class="cls-1" d="M175.12,142.22l-44.05,25.44a1.82,1.82,0,0,0,0,3.16l19.65,11.34a5,5,0,0,0,5,0l43.81-25.56a1.83,1.83,0,0,0,0-3.16l-19.41-11.21A5,5,0,0,0,175.12,142.22Z"></path><path class="cls-51" d="M175,142.44l-43.56,25.15a1.81,1.81,0,0,0,0,3.13l19.43,11.22a5,5,0,0,0,5,0l43.32-25.28a1.81,1.81,0,0,0,0-3.12L180,142.44A5,5,0,0,0,175,142.44Z"></path><path class="cls-52" d="M174.9,142.67l-43.06,24.86a1.79,1.79,0,0,0,0,3.1l19.21,11.09a4.89,4.89,0,0,0,4.92,0l42.83-25a1.78,1.78,0,0,0,0-3.08l-19-11A4.9,4.9,0,0,0,174.9,142.67Z"></path><path class="cls-53" d="M174.79,142.89l-42.57,24.58a1.77,1.77,0,0,0,0,3.06l19,11a4.85,4.85,0,0,0,4.87,0l42.34-24.7a1.77,1.77,0,0,0,0-3.06l-18.76-10.83A4.9,4.9,0,0,0,174.79,142.89Z"></path><path class="cls-54" d="M174.68,143.11l-42.08,24.3a1.75,1.75,0,0,0,0,3l18.77,10.84a4.82,4.82,0,0,0,4.82,0L198,156.84a1.75,1.75,0,0,0,0-3l-18.55-10.71A4.84,4.84,0,0,0,174.68,143.11Z"></path><path class="cls-55" d="M174.57,143.34l-41.58,24a1.73,1.73,0,0,0,0,3L151.54,181a4.71,4.71,0,0,0,4.76,0l41.35-24.13a1.72,1.72,0,0,0,0-3l-18.33-10.58A4.72,4.72,0,0,0,174.57,143.34Z"></path><path class="cls-56" d="M174.46,143.56l-41.09,23.73a1.71,1.71,0,0,0,0,3l18.33,10.58a4.67,4.67,0,0,0,4.7,0L197.27,157a1.71,1.71,0,0,0,0-2.95l-18.11-10.46A4.73,4.73,0,0,0,174.46,143.56Z"></path><path class="cls-57" d="M174.35,143.79l-40.59,23.44a1.67,1.67,0,0,0,0,2.91l18.1,10.46a4.63,4.63,0,0,0,4.65,0L196.88,157a1.68,1.68,0,0,0,0-2.91L179,143.79A4.62,4.62,0,0,0,174.35,143.79Z"></path><path class="cls-58" d="M174.24,144l-40.1,23.16a1.65,1.65,0,0,0,0,2.87L152,180.37a4.57,4.57,0,0,0,4.59,0l39.88-23.27a1.66,1.66,0,0,0,0-2.87L178.82,144A4.62,4.62,0,0,0,174.24,144Z"></path><path class="cls-59" d="M174.13,144.24,134.52,167.1a1.65,1.65,0,0,0,0,2.85l17.67,10.2a4.5,4.5,0,0,0,4.53,0l39.39-23a1.65,1.65,0,0,0,0-2.85l-17.46-10.07A4.51,4.51,0,0,0,174.13,144.24Z"></path><path class="cls-60" d="M174,144.46,134.91,167a1.62,1.62,0,0,0,0,2.81l17.45,10.07a4.44,4.44,0,0,0,4.47,0l38.9-22.69a1.63,1.63,0,0,0,0-2.81l-17.24-9.95A4.44,4.44,0,0,0,174,144.46Z"></path><path class="cls-61" d="M173.91,144.68,135.29,167a1.6,1.6,0,0,0,0,2.77l17.23,9.95a4.39,4.39,0,0,0,4.42,0l38.4-22.41a1.6,1.6,0,0,0,0-2.77l-17-9.83A4.45,4.45,0,0,0,173.91,144.68Z"></path><path class="cls-62" d="M173.8,144.91l-38.12,22a1.58,1.58,0,0,0,0,2.74l17,9.82a4.35,4.35,0,0,0,4.36,0L195,157.34a1.58,1.58,0,0,0,0-2.73l-16.8-9.7A4.34,4.34,0,0,0,173.8,144.91Z"></path><path class="cls-63" d="M173.69,145.13l-37.63,21.73a1.56,1.56,0,0,0,0,2.7l16.79,9.69a4.27,4.27,0,0,0,4.3,0l37.43-21.83a1.56,1.56,0,0,0,0-2.7L178,145.13A4.27,4.27,0,0,0,173.69,145.13Z"></path><path class="cls-64" d="M173.58,145.36,136.44,166.8a1.54,1.54,0,0,0,0,2.66L153,179a4.25,4.25,0,0,0,4.25,0l36.93-21.55a1.54,1.54,0,0,0,0-2.66l-16.37-9.46A4.25,4.25,0,0,0,173.58,145.36Z"></path><path class="cls-65" d="M173.47,145.58l-36.64,21.16a1.52,1.52,0,0,0,0,2.63l16.34,9.43a4.18,4.18,0,0,0,4.2,0l36.44-21.26a1.52,1.52,0,0,0,0-2.63l-16.15-9.32A4.16,4.16,0,0,0,173.47,145.58Z"></path><path class="cls-66" d="M173.36,145.8l-36.15,20.88a1.49,1.49,0,0,0,0,2.59l16.13,9.31a4.11,4.11,0,0,0,4.14,0l36-21a1.51,1.51,0,0,0,0-2.6l-15.93-9.2A4.17,4.17,0,0,0,173.36,145.8Z"></path><path class="cls-67" d="M173.25,146,137.6,166.61a1.48,1.48,0,0,0,0,2.57l15.9,9.18a4.07,4.07,0,0,0,4.08,0L193,157.66a1.48,1.48,0,0,0,0-2.56L177.32,146A4.06,4.06,0,0,0,173.25,146Z"></path><path class="cls-68" d="M173.14,146.25,138,166.55a1.46,1.46,0,0,0,0,2.53l15.69,9a4,4,0,0,0,4,0l35-20.4a1.46,1.46,0,0,0,0-2.52l-15.5-8.95A4,4,0,0,0,173.14,146.25Z"></path><path class="cls-69" d="M173,146.48l-34.66,20a1.44,1.44,0,0,0,0,2.49l15.46,8.93a3.94,3.94,0,0,0,4,0l34.47-20.12a1.44,1.44,0,0,0,0-2.48L177,146.48A4,4,0,0,0,173,146.48Z"></path><path class="cls-70" d="M172.92,146.7l-34.17,19.73a1.42,1.42,0,0,0,0,2.45l15.24,8.8a3.88,3.88,0,0,0,3.91,0l34-19.83a1.42,1.42,0,0,0,0-2.45l-15.06-8.69A3.88,3.88,0,0,0,172.92,146.7Z"></path><path class="cls-71" d="M172.81,146.92l-33.68,19.45a1.4,1.4,0,0,0,0,2.42l15,8.67a3.82,3.82,0,0,0,3.85,0l33.49-19.54a1.4,1.4,0,0,0,0-2.42l-14.85-8.57A3.87,3.87,0,0,0,172.81,146.92Z"></path><path class="cls-72" d="M172.7,147.15l-33.18,19.16a1.37,1.37,0,0,0,0,2.38l14.8,8.55a3.79,3.79,0,0,0,3.8,0l33-19.26a1.37,1.37,0,0,0,0-2.38l-14.62-8.44A3.78,3.78,0,0,0,172.7,147.15Z"></path><path class="cls-73" d="M172.59,147.37,139.9,166.25a1.35,1.35,0,0,0,0,2.34L154.48,177a3.73,3.73,0,0,0,3.75,0l32.51-19a1.36,1.36,0,0,0,0-2.34l-14.41-8.32A3.76,3.76,0,0,0,172.59,147.37Z"></path><path class="cls-74" d="M172.48,147.6l-32.19,18.59a1.33,1.33,0,0,0,0,2.31l14.36,8.29a3.67,3.67,0,0,0,3.68,0l32-18.68a1.34,1.34,0,0,0,0-2.31l-14.19-8.19A3.67,3.67,0,0,0,172.48,147.6Z"></path><path class="cls-75" d="M172.37,147.82l-31.7,18.3a1.31,1.31,0,0,0,0,2.28l14.14,8.17a3.65,3.65,0,0,0,3.63,0L190,158.16a1.31,1.31,0,0,0,0-2.27l-14-8.07A3.6,3.6,0,0,0,172.37,147.82Z"></path><path class="cls-76" d="M172.26,148l-31.21,18a1.29,1.29,0,0,0,0,2.24l13.92,8a3.55,3.55,0,0,0,3.58,0l31-18.11a1.29,1.29,0,0,0,0-2.23l-13.76-8A3.59,3.59,0,0,0,172.26,148Z"></path><path class="cls-77" d="M172.15,148.27,141.44,166a1.28,1.28,0,0,0,0,2.21l13.7,7.91a3.5,3.5,0,0,0,3.51,0l30.55-17.82a1.28,1.28,0,0,0,0-2.21l-13.53-7.81A3.5,3.5,0,0,0,172.15,148.27Z"></path><path class="cls-78" d="M172,148.49l-30.22,17.45a1.26,1.26,0,0,0,0,2.17l13.48,7.78a3.43,3.43,0,0,0,3.46,0l30.05-17.53a1.25,1.25,0,0,0,0-2.17l-13.32-7.69A3.48,3.48,0,0,0,172,148.49Z"></path><path class="cls-79" d="M171.93,148.71l-29.72,17.17a1.22,1.22,0,0,0,0,2.13l13.26,7.66a3.39,3.39,0,0,0,3.4,0l29.56-17.25a1.23,1.23,0,0,0,0-2.13l-13.1-7.57A3.42,3.42,0,0,0,171.93,148.71Z"></path><path class="cls-80" d="M171.82,148.94l-29.23,16.88a1.21,1.21,0,0,0,0,2.1l13,7.53a3.35,3.35,0,0,0,3.34,0l29.07-17a1.2,1.2,0,0,0,0-2.09l-12.89-7.44A3.31,3.31,0,0,0,171.82,148.94Z"></path><path class="cls-81" d="M171.71,149.16,143,165.76a1.19,1.19,0,0,0,0,2.06l12.82,7.4a3.26,3.26,0,0,0,3.29,0l28.58-16.67a1.2,1.2,0,0,0,0-2.07L175,149.16A3.31,3.31,0,0,0,171.71,149.16Z"></path><path class="cls-82" d="M171.6,149.39,143.36,165.7a1.16,1.16,0,0,0,0,2L156,175a3.24,3.24,0,0,0,3.23,0l28.09-16.39a1.18,1.18,0,0,0,0-2l-12.45-7.18A3.2,3.2,0,0,0,171.6,149.39Z"></path><path class="cls-83" d="M171.49,149.61l-27.75,16a1.16,1.16,0,0,0,0,2l12.38,7.14a3.15,3.15,0,0,0,3.18,0l27.59-16.1a1.15,1.15,0,0,0,0-2l-12.23-7.06A3.2,3.2,0,0,0,171.49,149.61Z"></path><path class="cls-84" d="M171.38,149.84l-27.25,15.73a1.13,1.13,0,0,0,0,2l12.15,7a3.11,3.11,0,0,0,3.12,0l27.11-15.81a1.13,1.13,0,0,0,0-2l-12-6.93A3.09,3.09,0,0,0,171.38,149.84Z"></path><path class="cls-85" d="M171.27,150.06l-26.76,15.45a1.11,1.11,0,0,0,0,1.92l11.94,6.9a3.07,3.07,0,0,0,3.06,0l26.62-15.53a1.11,1.11,0,0,0,0-1.92l-11.79-6.81A3,3,0,0,0,171.27,150.06Z"></path><path class="cls-86" d="M171.16,150.28l-26.27,15.17a1.1,1.1,0,0,0,0,1.89l11.72,6.76a3,3,0,0,0,3,0l26.12-15.24a1.09,1.09,0,0,0,0-1.88l-11.58-6.69A3,3,0,0,0,171.16,150.28Z"></path><path class="cls-87" d="M171.05,150.51l-25.77,14.88a1.07,1.07,0,0,0,0,1.85l11.5,6.64a3,3,0,0,0,2.95,0l25.63-15a1.06,1.06,0,0,0,0-1.84L174,150.51A2.92,2.92,0,0,0,171.05,150.51Z"></path><path class="cls-88" d="M170.94,150.73l-25.28,14.6a1,1,0,0,0,0,1.81l11.28,6.51a2.87,2.87,0,0,0,2.89,0L185,159a1.05,1.05,0,0,0,0-1.82l-11.14-6.43A2.92,2.92,0,0,0,170.94,150.73Z"></path><path class="cls-89" d="M170.83,151l-24.78,14.32a1,1,0,0,0,0,1.78l11,6.38a2.83,2.83,0,0,0,2.84,0L184.59,159a1,1,0,0,0,0-1.78L173.66,151A2.86,2.86,0,0,0,170.83,151Z"></path><path class="cls-90" d="M170.72,151.18l-24.29,14a1,1,0,0,0,0,1.75l10.84,6.25a2.76,2.76,0,0,0,2.78,0l24.15-14.1a1,1,0,0,0,0-1.74l-10.71-6.18A2.75,2.75,0,0,0,170.72,151.18Z"></path><path class="cls-43" d="M170.61,151.4l-23.79,13.74a1,1,0,0,0,0,1.71L157.43,173a2.68,2.68,0,0,0,2.72,0l23.67-13.8a1,1,0,0,0,0-1.71l-10.49-6.06A2.75,2.75,0,0,0,170.61,151.4Z"></path></g><g class="cls-50"><path class="cls-1" d="M142.2,94.77,63.31,140.32a3.27,3.27,0,0,0,0,5.66L98.5,166.3a9,9,0,0,0,9,0L186,120.5a3.26,3.26,0,0,0,0-5.65L151.19,94.77A9,9,0,0,0,142.2,94.77Z"></path><path class="cls-51" d="M142,95.17l-78,45a3.23,3.23,0,0,0,0,5.6L98.79,165.9a8.88,8.88,0,0,0,8.93,0l77.57-45.26a3.24,3.24,0,0,0,0-5.6L150.9,95.17A8.88,8.88,0,0,0,142,95.17Z"></path><path class="cls-52" d="M141.81,95.57,64.69,140.1a3.19,3.19,0,0,0,0,5.54l34.4,19.86a8.8,8.8,0,0,0,8.82,0l76.69-44.75a3.2,3.2,0,0,0,0-5.53l-34-19.63A8.79,8.79,0,0,0,141.81,95.57Z"></path><path class="cls-53" d="M141.61,96,65.37,140a3.17,3.17,0,0,0,0,5.48l34,19.63a8.68,8.68,0,0,0,8.72,0l75.82-44.24a3.16,3.16,0,0,0,0-5.46L150.3,96A8.68,8.68,0,0,0,141.61,96Z"></path><path class="cls-54" d="M141.41,96.37,66.06,139.88a3.13,3.13,0,0,0,0,5.41L99.67,164.7a8.59,8.59,0,0,0,8.62,0L183.23,121a3.12,3.12,0,0,0,0-5.4L150,96.37A8.61,8.61,0,0,0,141.41,96.37Z"></path><path class="cls-55" d="M141.22,96.78l-74.47,43a3.09,3.09,0,0,0,0,5.35L100,164.3a8.51,8.51,0,0,0,8.52,0l74.05-43.21a3.09,3.09,0,0,0,0-5.34l-32.82-19A8.47,8.47,0,0,0,141.22,96.78Z"></path><path class="cls-56" d="M141,97.18,67.44,139.66a3,3,0,0,0,0,5.28l32.82,18.95a8.37,8.37,0,0,0,8.42,0l73.17-42.69a3.05,3.05,0,0,0,0-5.28L149.41,97.18A8.38,8.38,0,0,0,141,97.18Z"></path><path class="cls-57" d="M140.82,97.58l-72.7,42a3,3,0,0,0,0,5.22l32.43,18.72a8.28,8.28,0,0,0,8.32,0l72.29-42.18a3,3,0,0,0,0-5.21l-32-18.5A8.29,8.29,0,0,0,140.82,97.58Z"></path><path class="cls-58" d="M140.63,98,68.81,139.44a3,3,0,0,0,0,5.16l32,18.49a8.19,8.19,0,0,0,8.22,0l71.41-41.67a3,3,0,0,0,0-5.15L148.81,98A8.19,8.19,0,0,0,140.63,98Z"></path><path class="cls-59" d="M140.43,98.38l-70.93,41a3,3,0,0,0,0,5.1l31.64,18.26a8.08,8.08,0,0,0,8.11,0l70.54-41.15a3,3,0,0,0,0-5.09L148.51,98.38A8.1,8.1,0,0,0,140.43,98.38Z"></path><path class="cls-60" d="M140.23,98.78l-70,40.44a2.9,2.9,0,0,0,0,5l31.24,18a8,8,0,0,0,8,0l69.65-40.64a2.91,2.91,0,0,0,0-5L148.22,98.78A8,8,0,0,0,140.23,98.78Z"></path><path class="cls-61" d="M140,99.18,70.88,139.11a2.86,2.86,0,0,0,0,5l30.84,17.81a7.87,7.87,0,0,0,7.92,0l68.77-40.13a2.87,2.87,0,0,0,0-5l-30.48-17.6A7.92,7.92,0,0,0,140,99.18Z"></path><path class="cls-62" d="M139.84,99.58,71.56,139a2.84,2.84,0,0,0,0,4.91L102,161.49a7.79,7.79,0,0,0,7.81,0l67.9-39.62a2.82,2.82,0,0,0,0-4.89L147.62,99.58A7.78,7.78,0,0,0,139.84,99.58Z"></path><path class="cls-63" d="M139.64,100l-67.39,38.9a2.8,2.8,0,0,0,0,4.84l30.06,17.36a7.67,7.67,0,0,0,7.71,0L177,122a2.8,2.8,0,0,0,0-4.84L147.32,100A7.64,7.64,0,0,0,139.64,100Z"></path><path class="cls-64" d="M139.45,100.39,72.94,138.78a2.76,2.76,0,0,0,0,4.78l29.66,17.12a7.56,7.56,0,0,0,7.61,0l66.14-38.59a2.76,2.76,0,0,0,0-4.77L147,100.38A7.58,7.58,0,0,0,139.45,100.39Z"></path><path class="cls-65" d="M139.25,100.79,73.63,138.67a2.72,2.72,0,0,0,0,4.72l29.27,16.89a7.47,7.47,0,0,0,7.51,0l65.25-38.08a2.72,2.72,0,0,0,0-4.7l-28.92-16.7A7.46,7.46,0,0,0,139.25,100.79Z"></path><path class="cls-66" d="M139.05,101.19,74.31,138.56a2.69,2.69,0,0,0,0,4.65l28.88,16.67a7.38,7.38,0,0,0,7.41,0L175,122.3a2.68,2.68,0,0,0,0-4.64l-28.53-16.47A7.37,7.37,0,0,0,139.05,101.19Z"></path><path class="cls-67" d="M138.85,101.59,75,138.45A2.66,2.66,0,0,0,75,143l28.48,16.44a7.29,7.29,0,0,0,7.31,0l63.49-37.06a2.64,2.64,0,0,0,0-4.57l-28.14-16.25A7.28,7.28,0,0,0,138.85,101.59Z"></path><path class="cls-68" d="M138.66,102l-63,36.35a2.62,2.62,0,0,0,0,4.53l28.09,16.21a7.16,7.16,0,0,0,7.2,0l62.62-36.53a2.62,2.62,0,0,0,0-4.52l-27.76-16A7.17,7.17,0,0,0,138.66,102Z"></path><path class="cls-69" d="M138.46,102.39,76.38,138.24a2.56,2.56,0,0,0,0,4.45l27.69,16a7.07,7.07,0,0,0,7.1,0l61.74-36a2.57,2.57,0,0,0,0-4.45l-27.36-15.8A7.1,7.1,0,0,0,138.46,102.39Z"></path><path class="cls-70" d="M138.26,102.79l-61.2,35.33a2.54,2.54,0,0,0,0,4.4l27.3,15.76a7,7,0,0,0,7,0l60.86-35.51a2.54,2.54,0,0,0,0-4.39l-27-15.57A7,7,0,0,0,138.26,102.79Z"></path><path class="cls-71" d="M138.07,103.19,77.75,138a2.5,2.5,0,0,0,0,4.33l26.91,15.53a6.86,6.86,0,0,0,6.9,0l60-35a2.5,2.5,0,0,0,0-4.33l-26.58-15.35A6.91,6.91,0,0,0,138.07,103.19Z"></path><path class="cls-72" d="M137.87,103.6,78.44,137.91a2.46,2.46,0,0,0,0,4.26L105,157.48a6.77,6.77,0,0,0,6.8,0L170.84,123a2.46,2.46,0,0,0,0-4.26L144.64,103.6A6.72,6.72,0,0,0,137.87,103.6Z"></path><path class="cls-73" d="M137.67,104,79.13,137.8a2.42,2.42,0,0,0,0,4.2l26.11,15.08a6.68,6.68,0,0,0,6.7,0l58.22-34a2.43,2.43,0,0,0,0-4.2L144.35,104A6.65,6.65,0,0,0,137.67,104Z"></path><path class="cls-74" d="M137.48,104.4,79.82,137.69a2.39,2.39,0,0,0,0,4.14l25.71,14.85a6.57,6.57,0,0,0,6.6,0l57.34-33.46a2.39,2.39,0,0,0,0-4.13L144.05,104.4A6.54,6.54,0,0,0,137.48,104.4Z"></path><path class="cls-75" d="M137.28,104.8,80.5,137.58a2.35,2.35,0,0,0,0,4.07l25.33,14.62a6.46,6.46,0,0,0,6.49,0l56.46-32.94a2.35,2.35,0,0,0,0-4.07l-25-14.45A6.45,6.45,0,0,0,137.28,104.8Z"></path><path class="cls-76" d="M137.08,105.2,81.19,137.47a2.32,2.32,0,0,0,0,4l24.93,14.39a6.37,6.37,0,0,0,6.4,0l55.57-32.43a2.32,2.32,0,0,0,0-4L143.45,105.2A6.36,6.36,0,0,0,137.08,105.2Z"></path><path class="cls-77" d="M136.88,105.6l-55,31.76a2.28,2.28,0,0,0,0,3.95l24.53,14.16a6.28,6.28,0,0,0,6.3,0l54.7-31.92a2.28,2.28,0,0,0,0-3.94l-24.25-14A6.27,6.27,0,0,0,136.88,105.6Z"></path><path class="cls-78" d="M136.69,106,82.57,137.25a2.24,2.24,0,0,0,0,3.88l24.14,13.94a6.17,6.17,0,0,0,6.19,0l53.82-31.41a2.24,2.24,0,0,0,0-3.88L142.86,106A6.18,6.18,0,0,0,136.69,106Z"></path><path class="cls-79" d="M136.49,106.4,83.26,137.14a2.2,2.2,0,0,0,0,3.82L107,154.67a6.08,6.08,0,0,0,6.09,0L166,123.77a2.21,2.21,0,0,0,0-3.82L142.56,106.4A6.09,6.09,0,0,0,136.49,106.4Z"></path><path class="cls-80" d="M136.29,106.8,83.94,137a2.18,2.18,0,0,0,0,3.76l23.35,13.48a6,6,0,0,0,6,0l52.06-30.37a2.17,2.17,0,0,0,0-3.76L142.26,106.8A6,6,0,0,0,136.29,106.8Z"></path><path class="cls-81" d="M136.1,107.2,84.63,136.92a2.13,2.13,0,0,0,0,3.69l23,13.26a5.88,5.88,0,0,0,5.89,0L164.65,124a2.13,2.13,0,0,0,0-3.69L142,107.2A5.89,5.89,0,0,0,136.1,107.2Z"></path><path class="cls-82" d="M135.9,107.61l-50.58,29.2a2.09,2.09,0,0,0,0,3.63l22.56,13a5.76,5.76,0,0,0,5.79,0L164,124.1a2.09,2.09,0,0,0,0-3.62l-22.3-12.87A5.75,5.75,0,0,0,135.9,107.61Z"></path><path class="cls-83" d="M135.7,108,86,136.7a2.06,2.06,0,0,0,0,3.57l22.16,12.79a5.65,5.65,0,0,0,5.69,0l49.42-28.83a2.07,2.07,0,0,0,0-3.57L141.37,108A5.68,5.68,0,0,0,135.7,108Z"></path><path class="cls-84" d="M135.51,108.41,86.69,136.59a2,2,0,0,0,0,3.5l21.78,12.57a5.54,5.54,0,0,0,5.58,0l48.54-28.32a2,2,0,0,0,0-3.5l-21.51-12.42A5.53,5.53,0,0,0,135.51,108.41Z"></path><path class="cls-85" d="M135.31,108.81,87.38,136.48a2,2,0,0,0,0,3.44l21.38,12.34a5.45,5.45,0,0,0,5.48,0l47.66-27.81a2,2,0,0,0,0-3.44l-21.12-12.19A5.44,5.44,0,0,0,135.31,108.81Z"></path><path class="cls-86" d="M135.11,109.21l-47,27.16a2,2,0,0,0,0,3.38l21,12.11a5.36,5.36,0,0,0,5.38,0l46.78-27.3a2,2,0,0,0,0-3.37l-20.74-12A5.35,5.35,0,0,0,135.11,109.21Z"></path><path class="cls-87" d="M134.91,109.61,88.76,136.26a1.91,1.91,0,0,0,0,3.31l20.58,11.89a5.29,5.29,0,0,0,5.29,0l45.9-26.78a1.92,1.92,0,0,0,0-3.31l-20.35-11.75A5.26,5.26,0,0,0,134.91,109.61Z"></path><path class="cls-88" d="M134.72,110,89.45,136.15a1.87,1.87,0,0,0,0,3.25l20.19,11.66a5.16,5.16,0,0,0,5.18,0l45-26.27a1.88,1.88,0,0,0,0-3.25l-20-11.52A5.17,5.17,0,0,0,134.72,110Z"></path><path class="cls-89" d="M134.52,110.41,90.13,136a1.85,1.85,0,0,0,0,3.19l19.8,11.43a5.07,5.07,0,0,0,5.08,0l44.14-25.76a1.84,1.84,0,0,0,0-3.18l-19.56-11.3A5.08,5.08,0,0,0,134.52,110.41Z"></path><path class="cls-90" d="M134.32,110.81l-43.5,25.12a1.8,1.8,0,0,0,0,3.12l19.4,11.21a5,5,0,0,0,5,0L158.46,125a1.81,1.81,0,0,0,0-3.12l-19.18-11.07A5,5,0,0,0,134.32,110.81Z"></path><path class="cls-43" d="M134.13,111.22l-42.62,24.6a1.77,1.77,0,0,0,0,3.06l19,11a4.87,4.87,0,0,0,4.87,0l42.38-24.73a1.77,1.77,0,0,0,0-3.06L139,111.22A4.83,4.83,0,0,0,134.13,111.22Z"></path></g><path class="cls-43" d="M200.47,143.86v-1.44l-.32.54a1.71,1.71,0,0,0-.6-.56l-19.41-11.21a5,5,0,0,0-5,0l-44.05,25.43a1.87,1.87,0,0,0-.66.65l-.26-.49v1.62h0a1.83,1.83,0,0,0,.9,1.38l19.65,11.34a5,5,0,0,0,5,0l43.81-25.56a1.81,1.81,0,0,0,.9-1.41h0v-.29Z"></path><path class="cls-91" d="M175.12,129.6,131.07,155a1.83,1.83,0,0,0,0,3.17l19.65,11.34a5,5,0,0,0,5,0L199.57,144a1.83,1.83,0,0,0,0-3.16L180.15,129.6A5,5,0,0,0,175.12,129.6Z"></path><path class="cls-92" d="M175.7,133.2s-32.36-19.72-36.51-15.74c-3.75,3.58-2.06,12.54-2.53,21.69-.32,6.35,6,9.1,6.87,4.17s3.06-10.9,1.71-14.55h0a20.34,20.34,0,0,0,2.33,2.59c8.32,6.84,19.84,11.12,19.84,11.12a6,6,0,0,0,8.29-5.59Z"></path><path class="cls-92" d="M148.31,132s0,0,0,0Z"></path><path class="cls-92" d="M148.39,132l0,0,0,0Z"></path><path class="cls-92" d="M137,122.41h0l0,.23c0,.09,0,.2,0,.32-.57,4.36,0,10.23-.27,16.19-.2,4-.42,10.11-.52,12.95l6.74-3.89c.14-1.36.37-3.3.65-4.89.38-2.15,1-4.46,1.47-6.69a72,72,0,0,0,.24-7.86h0c.11.09.46.58.95,1.17a16.22,16.22,0,0,0,2.12,2l.93.71a78.36,78.36,0,0,0,14.46,8.26c1.13.5,1.74-3.32,3.53-1.08C168.88,130.23,144.14,124.79,137,122.41Z"></path><path class="cls-93" d="M161.58,148.69l11.69-6.86a9.57,9.57,0,0,0,4.73-8.26v-2l-16.33,9.67Z"></path><path class="cls-93" d="M148.31,132s0,0,0,0Z"></path><path class="cls-93" d="M148.39,132l0,0,0,0Z"></path><path class="cls-93" d="M137,122.41h0l0,.23c0,.09,0,.2,0,.32-.57,4.36,7.6,15.9,8.07,13.67a72,72,0,0,0,.24-7.86h0c.11.09.46.58.95,1.17a16.22,16.22,0,0,0,2.12,2l.93.71a78.36,78.36,0,0,0,14.46,8.26c1.13.5,1.74-3.32,3.53-1.08C168.88,130.23,144.14,124.79,137,122.41Z"></path><polygon class="cls-47" points="131.14 160.24 131.42 164.19 131.13 167.26 125.8 166.75 122.78 165.06 125.08 161.07 126.51 159.29 131.14 160.24"></polygon><path class="cls-48" d="M131.6,165.45a.54.54,0,0,1,.84.35,17.73,17.73,0,0,1,.18,4.33l0,.46a2,2,0,0,1-2.13,1.77l-.75-.07a3.89,3.89,0,0,1-1.48-.47c-1.91-1-7.27-4-9.44-4.81a4.29,4.29,0,0,1-1.31-.79c-1.17-1-3.35-3.11-3.23-4.35a5.48,5.48,0,0,1,0-1.29,2,2,0,0,1,2.56-1.69l8.29,2.18s-1.56,2.73,0,3.69c0,0,5.22,2.26,5.52,1.44Z"></path><path class="cls-49" d="M114.34,160.86c-.12,1.23,2.06,3.33,3.23,4.35a4.17,4.17,0,0,0,1.31.79c2.16.81,7.53,3.75,9.44,4.81a3.66,3.66,0,0,0,1.48.46l.75.07a2,2,0,0,0,2.13-1.76l0-.2a5.07,5.07,0,0,1-.08.75l0,.46a2,2,0,0,1-2.12,1.77l-.76-.07a3.87,3.87,0,0,1-1.48-.46c-1.91-1.06-7.27-4-9.44-4.82a4.26,4.26,0,0,1-1.31-.78c-1.17-1-3.35-3.12-3.23-4.35a5.29,5.29,0,0,1,0-1.3,1.36,1.36,0,0,1,.06-.29A3.67,3.67,0,0,0,114.34,160.86Z"></path><path class="cls-93" d="M165.06,139.55S132.27,120,128.54,123.81c-3.1,3.18-2,12.54-2.52,21.7-.33,6.34-.48,12.38-.58,14.45a1.46,1.46,0,0,0,1.12,1.48l3.12.24a1.48,1.48,0,0,0,1.73-1c.68-2.15.61-6.1,1.48-11s3.06-10.9,1.71-14.55h0a20.9,20.9,0,0,0,2.33,2.6,46,46,0,0,0,12.69,7.7,1.29,1.29,0,0,1,.27.18,15,15,0,0,0,4.81,2.52c.65.2,1.39.45,2.19.76a6,6,0,0,0,8.17-5.64v-3.69Z"></path><path class="cls-92" d="M127.47,161.15c.1-2.07.26-8.1.58-14.45.47-9.15-.58-18.52,2.52-21.69a9,9,0,0,0,1.23-1.52c-1.57-.29-2.72-.23-3.26.32a8.5,8.5,0,0,0-1.86,4.6,70.32,70.32,0,0,0-.5,10.29c0,2.22,0,4.52-.16,6.81s-.22,4.71-.3,6.81c0,.35,0,.69,0,1,0,.5,0,1-.05,1.46,0,.15,0,.31,0,.46-.07,2.12-.13,3.78-.17,4.69a1.5,1.5,0,0,0,.16.73,1.44,1.44,0,0,0,1,.75l1,.07A1.37,1.37,0,0,1,127.47,161.15Z"></path><path class="cls-43" d="M187.59,97.72V95.13l-.56,1a3.25,3.25,0,0,0-1.07-1L151.2,75a9,9,0,0,0-9,0L63.31,120.57a3.28,3.28,0,0,0-1.18,1.16l-.45-.88v2.9h0a3.2,3.2,0,0,0,1.61,2.47L98.5,146.55a9,9,0,0,0,9,0L186,100.75a3.22,3.22,0,0,0,1.6-2.52h0v-.06A3.38,3.38,0,0,0,187.59,97.72Z"></path><path class="cls-91" d="M142.2,72.17,63.31,117.72a3.27,3.27,0,0,0,0,5.66L98.5,143.7a9,9,0,0,0,9,0L186,97.9a3.27,3.27,0,0,0,0-5.66L151.19,72.17A9,9,0,0,0,142.2,72.17Z"></path><path class="cls-43" d="M145,96l-38.77,22.39a1.61,1.61,0,0,0,0,2.78L117.85,128a4.41,4.41,0,0,0,4.44,0l38.56-22.5a1.61,1.61,0,0,0,0-2.78L149.43,96A4.42,4.42,0,0,0,145,96Z"></path><path class="cls-94" d="M106.24,119.8,145,97.42a4.42,4.42,0,0,1,4.42,0l11.41,6.76a1.67,1.67,0,0,1,.64.68,1.61,1.61,0,0,0-.64-2.11L149.43,96A4.42,4.42,0,0,0,145,96l-38.77,22.39a1.6,1.6,0,0,0-.64,2.1A1.55,1.55,0,0,1,106.24,119.8Z"></path><path class="cls-95" d="M143.1,81.09,80.7,117.71a.43.43,0,0,0,0,.76l3.16,1.88a1.22,1.22,0,0,0,1.21,0l62.34-36.65a.43.43,0,0,0,0-.75l-3.11-1.85A1.22,1.22,0,0,0,143.1,81.09Z"></path><path class="cls-93" d="M80.7,118.47l.56.33,61.83-36.28a1.19,1.19,0,0,1,1.21,0L146.84,84l.57-.34a.43.43,0,0,0,0-.75l-3.11-1.85a1.24,1.24,0,0,0-1.21,0L80.7,117.71A.43.43,0,0,0,80.7,118.47Z"></path><path class="cls-47" d="M145.93,111.62a.83.83,0,1,1-.9-1.39l2.62-1.71a.84.84,0,1,1,.9,1.4Z"></path><path class="cls-47" d="M149.63,104.17a.84.84,0,1,1-.79,1.47L144,103a.84.84,0,1,1,.79-1.47Z"></path><path class="cls-47" d="M147.23,104.59a.87.87,0,0,1,.5,1.12.88.88,0,0,1-1.16.41l-5.1-2.26a.83.83,0,1,1,.66-1.52Z"></path><path class="cls-47" d="M145.65,105.32a.87.87,0,0,1,.66,1,.86.86,0,0,1-1.08.58l-5.39-1.43a.86.86,0,0,1-.66-1,.87.87,0,0,1,1.08-.58Z"></path><path class="cls-47" d="M146.19,107.21a.88.88,0,0,1,.75,1,.86.86,0,0,1-1,.66l-5.49-1a.84.84,0,1,1,.29-1.64Z"></path><path class="cls-47" d="M166.62,116.62l-16.54-6.39-3.73-.88a3.23,3.23,0,0,1-2.15-3.43,3.16,3.16,0,0,1,4.2-2.54l3.94,1.86,7.73,2.47a4.91,4.91,0,0,0,5.72-2.16c2.34-3.93,5.9-9.75,5.75-8.44l-2.06,17.74A2.15,2.15,0,0,1,166.62,116.62Z"></path><path class="cls-48" d="M170.32,94.11,161.19,99A15.34,15.34,0,0,0,153,112.53l2.14,12.13a17.21,17.21,0,0,1-.12,5.36l-1.47,9.5c6.35,5.27,21.68-.9,25-6.82l-.51-2c-.1-1.05-3-9.17-2.13-14.08l2.92-17.39A5.79,5.79,0,0,0,170.32,94.11Z"></path><polygon class="cls-47" points="169.31 95.76 162.28 99.6 162.28 91.06 169.3 91.06 169.31 95.76"></polygon><path class="cls-48" d="M162.28,97.32s6.08-.92,7-3.3l.25,2.64-8.82,3.87Z"></path><path class="cls-47" d="M158.22,84.17v5.5A4.34,4.34,0,0,0,162.56,94h1.16a4.78,4.78,0,0,0,2.61-.78l2.91-1.92,1.86-4.4a4.19,4.19,0,0,0-.58-4.22l-.83-1.06a3,3,0,0,0-3-1.08l-6.66,1.36A2.31,2.31,0,0,0,158.22,84.17Z"></path><path class="cls-96" d="M171.73,90.15c.39-.44.77-.89,1.14-1.32a7.07,7.07,0,0,0,.75-7.63,10,10,0,0,0-6.19-4.9,17.28,17.28,0,0,0-8.06-.17,4.54,4.54,0,0,0-3,1.46,3.54,3.54,0,0,0-.56,1.88,6,6,0,0,0,2.36,4.81c1.13.9,2.62,1.06,3.77,2a11.12,11.12,0,0,1,2.12,2,10.73,10.73,0,0,1,1.24,2.93,3.38,3.38,0,0,0,.94,1.59,2.16,2.16,0,0,0,2,.3A4.42,4.42,0,0,0,170,92C170.59,91.42,171.17,90.79,171.73,90.15Z"></path><path class="cls-96" d="M172.07,79.48a12.18,12.18,0,0,1,2.45-4.77,6,6,0,0,1,5.67-1.6,5.76,5.76,0,0,1,4.11,4.18,10.72,10.72,0,0,1,.2,2.53q0,3.2,0,6.38a13.73,13.73,0,0,0,.28,3.51A5.44,5.44,0,0,0,186,92.12c.49.52,1.18,1.39,1.94,1.44a16.62,16.62,0,0,1-5.59,1,4.68,4.68,0,0,1-1.86-.28A3.71,3.71,0,0,1,179.05,93a7.66,7.66,0,0,1-1.44-3,25.06,25.06,0,0,1-.09-3.88,5.08,5.08,0,0,0-.51-2.47c-1-1.84-3.3-2.09-5.14-2.36Z"></path><path class="cls-93" d="M171.34,81.48a1.68,1.68,0,0,0,2.35.34c.74-.55-.45-.6-1-1.34s-.27-1.9-1-1.34A1.67,1.67,0,0,0,171.34,81.48Z"></path><g class="cls-50"><path class="cls-49" d="M153.59,139.52a9.42,9.42,0,0,0,5.27,1.94,30.3,30.3,0,0,1-.56-5.2c-.06-7.17,1.52-14.13,2.18-21.27a22.43,22.43,0,0,0-1.1-9.58,24.85,24.85,0,0,0-6.07,8.68l1.87,10.57a17.21,17.21,0,0,1-.12,5.36Z"></path></g><path class="cls-47" d="M142.17,115.73a.84.84,0,1,1-1.51.71l-1.33-2.84a.83.83,0,1,1,1.51-.7Z"></path><path class="cls-47" d="M137.75,113.7a.83.83,0,1,1-.79,1.46l-4.89-2.67a.87.87,0,0,1-.4-1.16.88.88,0,0,1,1.19-.31Z"></path><path class="cls-47" d="M135.76,114.53a.84.84,0,1,1-.66,1.53L130,113.8a.83.83,0,1,1,.66-1.52Z"></path><path class="cls-47" d="M135.87,116.13a.83.83,0,1,1-.41,1.61l-5.39-1.43a.88.88,0,0,1-.67-1,.87.87,0,0,1,1.08-.58Z"></path><path class="cls-47" d="M136.64,118a.83.83,0,1,1-.28,1.63l-5.49-1a.87.87,0,0,1-.74-1,.88.88,0,0,1,1-.67Z"></path><path class="cls-47" d="M155.84,126.89l-16.54-6.38-3.73-.89a3.2,3.2,0,0,1-2.14-3.43,3.16,3.16,0,0,1,4.19-2.54l3.95,1.87L153,119.18l1.45-12.44a3.2,3.2,0,0,1,2.84-2.87,3.17,3.17,0,0,1,3.44,3.51l-2.07,17.74A2.14,2.14,0,0,1,155.84,126.89Z"></path><path class="cls-48" d="M155.53,126.6l-2.7-7.28,1.51-12.81a3.31,3.31,0,0,1,3.07-2.93,3.27,3.27,0,0,1,3.49,3.61l-1.83,15.52-.32,2.71a2.22,2.22,0,0,1-2,1.94A1.16,1.16,0,0,1,155.53,126.6Z"></path><g class="cls-97"><path class="cls-95" d="M163.72,94h0a1.25,1.25,0,0,0-.38-.38,5.27,5.27,0,0,0-1.1-.37,4.73,4.73,0,0,1-3.2-5.15c.25-1.48,1.23-2.89,1-4.37-.2-1.11-1.07-2-1.58-3a5.09,5.09,0,0,1,0-4.44,3.68,3.68,0,0,0-2.07,1.26,3.54,3.54,0,0,0-.56,1.88,6,6,0,0,0,2.35,4.81l0,0v5.37A4.34,4.34,0,0,0,162.56,94Z"></path></g><g class="cls-98"><path class="cls-95" d="M141.57,115.52l-1.73-.82-2-1-.07,0L132.86,111a.88.88,0,0,0-1.19.31.87.87,0,0,0,.4,1.16l2.75,1.5-.11.08-4.05-1.79a.83.83,0,1,0-.66,1.52l3.64,1.62a.42.42,0,0,1,0,.1l-3.12-.82a.87.87,0,0,0-1.08.58.88.88,0,0,0,.67,1l3.39.9a1.24,1.24,0,0,0,0,.16l-2.34-.43a.84.84,0,1,0-.29,1.64l4.11.75a3.59,3.59,0,0,0,.59.29l3.73.88,5.63,2.18a2.63,2.63,0,0,0-.2-.33c-.88-1.12-2.28-1.48-3.55-2a3.4,3.4,0,0,1-.81-.4,1,1,0,0,1-.43-.77c0-.31.17-.6.16-.9a1.94,1.94,0,0,0-.34-.78.86.86,0,0,1-.12-.8.92.92,0,0,1,.91-.35,13,13,0,0,1,3.72,1.16c1.14.42,2.26.89,3.38,1.39a13,13,0,0,0,2.1.8c.71.18,1.47.14,2.17.31a3,3,0,0,1,1.6,1.26,1.83,1.83,0,0,0,.37.46.44.44,0,0,0,.54,0,.57.57,0,0,0,.12-.42,6.7,6.7,0,0,1,.42-2.71c.44-.94,1.34-1.69,1.45-2.72a4.71,4.71,0,0,0-.3-1.69,10.88,10.88,0,0,1,.71-7.67c.63-1.29,1.51-2.43,2.23-3.67a10.45,10.45,0,0,0,.92-1.94,17,17,0,0,0,.57-1.93,6.28,6.28,0,0,0-.78,0,1.88,1.88,0,0,1-.79,1.16c-3.51,3.11-6.32,7.74-5.74,12.58a7.73,7.73,0,0,1,.11,1.18c0,1.72-.29,3.45-.49,5.16Z"></path></g><g class="cls-98"><path class="cls-95" d="M152.61,111.21a5.18,5.18,0,0,0-.52-1.24l-.25-.49c-.26-.48-.51-1-.78-1.44a2.49,2.49,0,0,1-.45-1.24,1.22,1.22,0,0,1,1.57-1.06,2,2,0,0,0-.07-.6l-3.71-1.76a3.6,3.6,0,0,0-.44-.12l-3.22-1.76A.84.84,0,1,0,144,103l1.53.83h0l-3.34-1.47a.83.83,0,1,0-.66,1.52l2,.89-3.21-.86a.87.87,0,0,0-1.08.58.86.86,0,0,0,.66,1l4.35,1.16,0,.19-3.51-.64a.87.87,0,0,0-1,.66.88.88,0,0,0,.74,1l4.89.89a3.28,3.28,0,0,0,1,.61h0l-1.34.88a.83.83,0,1,0,.9,1.39l2.63-1.7,0,0,1.48.36Z"></path></g><path class="cls-43" d="M131.57,160.08a35.93,35.93,0,0,0,.53-4.05l-1,.59a1.87,1.87,0,0,0-.66.65l-.25-.49v1.62h0a1.83,1.83,0,0,0,.9,1.38Z"></path><path class="cls-91" d="M131.82,158.63c.16-1.2.27-2.64.44-4.29l-1.19.69a1.83,1.83,0,0,0,0,3.17Z"></path><path class="cls-99" d="M81.9,35l60-34.84a1.13,1.13,0,0,1,1.69,1V74.26a3.33,3.33,0,0,1-1.65,2.88L81.93,112a1.12,1.12,0,0,1-1.69-1V37.86A3.31,3.31,0,0,1,81.9,35Z"></path><polygon class="cls-100" points="95.5 57.53 95.78 57.53 95.78 103.93 95.5 104.09 95.5 57.53"></polygon><polygon class="cls-100" points="133.45 82.05 133.17 82.21 133.17 41.97 133.45 41.97 133.45 82.05"></polygon><polygon class="cls-100" points="122.06 88.67 121.79 88.83 121.79 47.45 122.06 47.45 122.06 88.67"></polygon><polygon class="cls-100" points="108.61 96.48 108.34 96.64 108.34 41.97 108.61 41.97 108.61 96.48"></polygon><ellipse class="cls-100" cx="133.31" cy="41.97" rx="0.43" ry="0.57"></ellipse><ellipse class="cls-100" cx="121.93" cy="47.45" rx="0.43" ry="0.57"></ellipse><ellipse class="cls-100" cx="108.48" cy="41.97" rx="0.43" ry="0.57"></ellipse><ellipse class="cls-100" cx="95.64" cy="57.53" rx="0.43" ry="0.57"></ellipse><path class="cls-101" d="M143.56,44.87V42.26a38.07,38.07,0,0,0-6.75,6.85c-.42.5-.85,1-1.29,1.53-2.69,3.17-7,3-11.45,2.4-4.16-.5-8.86-.78-12.12,2.17a14.81,14.81,0,0,0-3.33,5.36c-.27.6-.53,1.21-.83,1.8-.48,1-2.32,4.18-5,4.08a7.28,7.28,0,0,1-1.51-.29c-.36-.09-.71-.18-1.08-.25-3.51-.64-7.44,1.09-10.51,4.63a33.14,33.14,0,0,0-3.15,4.6C84.84,78,83.2,80.74,80.25,82l.8,1.89c3.55-1.5,5.45-4.64,7.29-7.67a31.31,31.31,0,0,1,3-4.32c2.59-3,5.81-4.45,8.6-3.95.31.06.62.14.93.22a9.71,9.71,0,0,0,1.93.35c2.65.11,5.21-1.84,6.88-5.22.31-.61.59-1.25.87-1.89a13,13,0,0,1,2.83-4.66c2.61-2.38,6.79-2.1,10.49-1.65s9.63,1.16,13.26-3.11l1.31-1.55A44.9,44.9,0,0,1,143.56,44.87Z"></path><path class="cls-102" d="M81.78,112V38.89A3.34,3.34,0,0,1,83.43,36l60-34.83.15-.06a1.13,1.13,0,0,0-1.69-1L81.9,35a3.31,3.31,0,0,0-1.66,2.87V111a1.12,1.12,0,0,0,1.54,1Z"></path><path class="cls-49" d="M79,80.28l-.8.19V78.39c3-1.24,4.59-4,6.34-6.83A33.24,33.24,0,0,1,87.69,67c3.07-3.54,7-5.27,10.52-4.62.36.06.71.15,1.07.24a7.28,7.28,0,0,0,1.51.29c2.63.1,4.47-3.09,4.95-4.07.3-.59.56-1.2.83-1.81a15,15,0,0,1,3.33-5.36c3.26-2.95,8-2.66,12.12-2.16,4.5.54,8.76.77,11.45-2.4l1.29-1.54c2.68-3.22,5.21-6.27,9.14-8.35l1-.24v2c-3.57,1.89-6,4.79-8.52,7.85-.43.51-.86,1-1.31,1.55-3.62,4.28-9.42,3.58-13.26,3.11s-7.87-.72-10.49,1.65a13,13,0,0,0-2.83,4.66c-.28.64-.56,1.28-.87,1.9-1.67,3.37-4.23,5.32-6.87,5.21a9,9,0,0,1-1.94-.35c-.31-.08-.62-.16-.93-.22-2.79-.5-6,1-8.6,4a30.15,30.15,0,0,0-2.95,4.32C84.45,75.65,82.56,78.78,79,80.28Z"></path></g></g></svg> 