<?xml version="1.0" encoding="UTF-8"?> <svg xmlns="http://www.w3.org/2000/svg" viewBox="0 0 178.75 251.69"><defs><style>.cls-1,.cls-2{fill:#1a1c51;}.cls-2,.cls-3{fill-rule:evenodd;}.cls-3,.cls-4{fill:none;stroke:#1a1c51;stroke-linecap:round;stroke-linejoin:round;stroke-width:8.22px;}</style></defs><g id="Layer_2" data-name="Layer 2"><g id="Layer_1-2" data-name="Layer 1"><rect class="cls-1" x="67.41" y="125.59" width="65.75" height="10.27"></rect><rect class="cls-1" x="67.41" y="153.84" width="65.75" height="10.27"></rect><rect class="cls-1" x="67.41" y="182.09" width="65.75" height="10.27"></rect><path class="cls-2" d="M46.9,136.57a5.85,5.85,0,1,0-5.85-5.85A5.86,5.86,0,0,0,46.9,136.57Z"></path><path class="cls-2" d="M46.9,164.82A5.85,5.85,0,1,0,41.05,159,5.86,5.86,0,0,0,46.9,164.82Z"></path><path class="cls-2" d="M46.9,193.07a5.85,5.85,0,1,0-5.85-5.85A5.86,5.86,0,0,0,46.9,193.07Z"></path><polygon class="cls-3" points="113 4.11 4.11 4.11 4.11 247.58 174.64 247.58 174.64 72.94 113 72.94 113 4.11"></polygon><line class="cls-4" x1="113" y1="4.11" x2="174.64" y2="72.94"></line></g></g></svg> 