<?xml version="1.0" encoding="UTF-8"?> <svg xmlns="http://www.w3.org/2000/svg" viewBox="0 0 288.95 261.35"><defs><style>.cls-1,.cls-100,.cls-101,.cls-102,.cls-103,.cls-104,.cls-105,.cls-106,.cls-43,.cls-67,.cls-68,.cls-69,.cls-70,.cls-71,.cls-72,.cls-73,.cls-74,.cls-75,.cls-76,.cls-77,.cls-78,.cls-79,.cls-80,.cls-81,.cls-82,.cls-83,.cls-84,.cls-85,.cls-86,.cls-87,.cls-88,.cls-89,.cls-90,.cls-91,.cls-92,.cls-93,.cls-94,.cls-95,.cls-96,.cls-97,.cls-98,.cls-99{fill:#adc5e5;}.cls-1{fill-opacity:0;}.cls-2{fill:#abc4e4;}.cls-2,.cls-67{opacity:0.02;}.cls-10,.cls-100,.cls-101,.cls-102,.cls-103,.cls-104,.cls-105,.cls-106,.cls-11,.cls-110,.cls-112,.cls-12,.cls-13,.cls-14,.cls-15,.cls-16,.cls-17,.cls-18,.cls-19,.cls-2,.cls-20,.cls-21,.cls-22,.cls-23,.cls-24,.cls-25,.cls-26,.cls-27,.cls-28,.cls-29,.cls-3,.cls-30,.cls-31,.cls-32,.cls-33,.cls-34,.cls-35,.cls-36,.cls-37,.cls-38,.cls-39,.cls-4,.cls-40,.cls-41,.cls-5,.cls-53,.cls-56,.cls-57,.cls-6,.cls-62,.cls-67,.cls-68,.cls-69,.cls-7,.cls-70,.cls-71,.cls-72,.cls-73,.cls-74,.cls-75,.cls-76,.cls-77,.cls-78,.cls-79,.cls-8,.cls-80,.cls-81,.cls-82,.cls-83,.cls-84,.cls-85,.cls-86,.cls-87,.cls-88,.cls-89,.cls-9,.cls-90,.cls-91,.cls-92,.cls-93,.cls-94,.cls-95,.cls-96,.cls-97,.cls-98,.cls-99{isolation:isolate;}.cls-3{fill:#a9c2e3;}.cls-3,.cls-68{opacity:0.05;}.cls-4{fill:#a7c1e3;}.cls-4,.cls-69{opacity:0.07;}.cls-5{fill:#a5bfe2;}.cls-5,.cls-70{opacity:0.1;}.cls-6{fill:#a3bee1;}.cls-6,.cls-71{opacity:0.12;}.cls-7{fill:#a1bde1;}.cls-7,.cls-72{opacity:0.15;}.cls-8{fill:#9fbbe0;}.cls-73,.cls-8{opacity:0.17;}.cls-9{fill:#9dbadf;}.cls-74,.cls-9{opacity:0.2;}.cls-10{fill:#9bb8df;}.cls-10,.cls-75{opacity:0.22;}.cls-11{fill:#99b7de;}.cls-11,.cls-76{opacity:0.24;}.cls-12{fill:#97b5de;}.cls-12,.cls-77{opacity:0.27;}.cls-13{fill:#95b4dd;}.cls-13,.cls-78{opacity:0.29;}.cls-14{fill:#93b3dc;}.cls-14,.cls-79{opacity:0.32;}.cls-15{fill:#91b1dc;}.cls-15,.cls-80{opacity:0.34;}.cls-16{fill:#8fb0db;}.cls-16,.cls-81{opacity:0.37;}.cls-17{fill:#8daeda;}.cls-17,.cls-82{opacity:0.39;}.cls-18{fill:#8badda;}.cls-18,.cls-83{opacity:0.41;}.cls-19{fill:#89acd9;}.cls-19,.cls-84{opacity:0.44;}.cls-20{fill:#87aad8;}.cls-20,.cls-85{opacity:0.46;}.cls-21{fill:#85a9d8;}.cls-21,.cls-86{opacity:0.49;}.cls-22{fill:#83a7d7;}.cls-22,.cls-87{opacity:0.51;}.cls-23{fill:#81a6d6;}.cls-23,.cls-88{opacity:0.54;}.cls-24{fill:#7fa4d6;}.cls-24,.cls-89{opacity:0.56;}.cls-25{fill:#7da3d5;}.cls-25,.cls-90{opacity:0.59;}.cls-26{fill:#7ba2d4;}.cls-26,.cls-91{opacity:0.61;}.cls-27{fill:#79a0d4;}.cls-27,.cls-92{opacity:0.63;}.cls-28{fill:#779fd3;}.cls-28,.cls-93{opacity:0.66;}.cls-29{fill:#759dd3;}.cls-29,.cls-94{opacity:0.68;}.cls-30{fill:#739cd2;}.cls-30,.cls-95{opacity:0.71;}.cls-31{fill:#719bd1;}.cls-31,.cls-96{opacity:0.73;}.cls-32{fill:#6f99d1;}.cls-32,.cls-97{opacity:0.76;}.cls-33{fill:#6d98d0;}.cls-33,.cls-98{opacity:0.78;}.cls-34{fill:#6b96cf;}.cls-34,.cls-99{opacity:0.8;}.cls-35{fill:#6995cf;}.cls-100,.cls-35{opacity:0.83;}.cls-36{fill:#6793ce;}.cls-101,.cls-36{opacity:0.85;}.cls-37{fill:#6592cd;}.cls-102,.cls-37{opacity:0.88;}.cls-38{fill:#6391cd;}.cls-103,.cls-38{opacity:0.9;}.cls-39{fill:#618fcc;}.cls-104,.cls-39{opacity:0.93;}.cls-40{fill:#5f8ecb;}.cls-105,.cls-40{opacity:0.95;}.cls-41{fill:#5d8ccb;}.cls-106,.cls-41{opacity:0.98;}.cls-42{fill:#5b8bca;}.cls-44{fill:#f0f4fc;}.cls-45{fill:#191c3c;}.cls-46{fill:#326ebd;}.cls-47,.cls-53{opacity:0.4;}.cls-48,.cls-53{fill:#26538e;}.cls-49{fill:#e7ad99;}.cls-110,.cls-112,.cls-50{fill:#fff;}.cls-51{fill:#feb423;}.cls-52{fill:#fc7318;}.cls-54{fill:#48486a;}.cls-55{fill:#363650;}.cls-56{fill:#02187c;}.cls-112,.cls-56,.cls-57{opacity:0.3;}.cls-57{fill:#231f20;}.cls-58{opacity:0.6;}.cls-59{fill:#fc812f;}.cls-60{opacity:0.43;}.cls-61{fill:#f6f8fd;}.cls-62{fill:#7e390c;opacity:0.2;}.cls-63{fill:#bf871a;}.cls-64{fill:#ffc107;}.cls-65{fill:#e5e9f4;}.cls-110,.cls-66{opacity:0.5;}.cls-107{fill:#f8f9fe;}.cls-108{fill:#bd5612;}.cls-109{opacity:0.9;}.cls-111{fill:#fd8f46;}</style></defs><g id="Layer_2" data-name="Layer 2"><g id="Layer_1-2" data-name="Layer 1"><path class="cls-1" d="M131.77,95.89,8.06,167.31a12.12,12.12,0,0,0,.12,21.06L132,258.09a25.44,25.44,0,0,0,24.93,0l123.84-69.72a12.12,12.12,0,0,0,.11-21.06L157.18,95.89A25.41,25.41,0,0,0,131.77,95.89Z"></path><path class="cls-2" d="M131.92,95.85,9.7,166.42a12,12,0,0,0,.11,20.8L132.16,256.1a25.07,25.07,0,0,0,24.63,0l122.35-68.88a12,12,0,0,0,.12-20.8L157,95.85A25.09,25.09,0,0,0,131.92,95.85Z"></path><path class="cls-3" d="M132.08,95.81,11.33,165.52a11.83,11.83,0,0,0,.11,20.55l120.87,68.05a24.76,24.76,0,0,0,24.33,0l120.87-68.05a11.83,11.83,0,0,0,.12-20.55L156.88,95.81A24.8,24.8,0,0,0,132.08,95.81Z"></path><path class="cls-4" d="M132.23,95.77,13,164.62a11.69,11.69,0,0,0,.11,20.31l119.39,67.21a24.51,24.51,0,0,0,24,0l119.38-67.21a11.69,11.69,0,0,0,.11-20.31L156.73,95.77A24.48,24.48,0,0,0,132.23,95.77Z"></path><path class="cls-5" d="M132.38,95.73l-117.79,68a11.54,11.54,0,0,0,.11,20.05l117.91,66.38a24.17,24.17,0,0,0,23.73,0l117.91-66.38a11.54,11.54,0,0,0,.11-20.05l-117.79-68A24.15,24.15,0,0,0,132.38,95.73Z"></path><path class="cls-6" d="M132.53,95.69,16.23,162.83a11.4,11.4,0,0,0,.1,19.8l116.43,65.55a23.92,23.92,0,0,0,23.44,0l116.42-65.55a11.4,11.4,0,0,0,.11-19.8L156.42,95.69A23.88,23.88,0,0,0,132.53,95.69Z"></path><path class="cls-7" d="M132.68,95.64,17.86,161.94a11.25,11.25,0,0,0,.1,19.54L132.9,246.2a23.62,23.62,0,0,0,23.15,0L271,181.48a11.25,11.25,0,0,0,.11-19.54L156.27,95.64A23.61,23.61,0,0,0,132.68,95.64Z"></path><path class="cls-8" d="M132.84,95.6,19.49,161a11.11,11.11,0,0,0,.1,19.3l113.46,63.87a23.26,23.26,0,0,0,22.85,0l113.46-63.87a11.11,11.11,0,0,0,.1-19.3L156.12,95.6A23.32,23.32,0,0,0,132.84,95.6Z"></path><path class="cls-9" d="M133,95.56,21.12,160.15a11,11,0,0,0,.11,19l112,63a23,23,0,0,0,22.55,0l112-63a11,11,0,0,0,.1-19L156,95.56A23,23,0,0,0,133,95.56Z"></path><path class="cls-10" d="M133.14,95.52,22.76,159.25a10.81,10.81,0,0,0,.1,18.79l110.49,62.21a22.67,22.67,0,0,0,22.25,0L266.1,178a10.82,10.82,0,0,0,.1-18.79L155.81,95.52A22.67,22.67,0,0,0,133.14,95.52Z"></path><path class="cls-11" d="M133.29,95.48,24.39,158.36a10.66,10.66,0,0,0,.1,18.53l109,61.38a22.4,22.4,0,0,0,21.95,0l109-61.38a10.67,10.67,0,0,0,.1-18.53L155.66,95.48A22.4,22.4,0,0,0,133.29,95.48Z"></path><path class="cls-12" d="M133.44,95.44,26,157.46a10.53,10.53,0,0,0,.1,18.29l107.53,60.54a22.08,22.08,0,0,0,21.65,0l107.54-60.54a10.53,10.53,0,0,0,.09-18.29l-107.42-62A22.08,22.08,0,0,0,133.44,95.44Z"></path><path class="cls-13" d="M133.59,95.4,27.65,156.57a10.38,10.38,0,0,0,.1,18L133.8,234.3a21.72,21.72,0,0,0,21.35,0l106-59.7a10.38,10.38,0,0,0,.1-18L155.36,95.4A21.76,21.76,0,0,0,133.59,95.4Z"></path><path class="cls-14" d="M133.75,95.36,29.28,155.67a10.23,10.23,0,0,0,.1,17.78L134,232.32a21.45,21.45,0,0,0,21.05,0l104.57-58.87a10.23,10.23,0,0,0,.1-17.78L155.21,95.36A21.48,21.48,0,0,0,133.75,95.36Z"></path><path class="cls-15" d="M133.9,95.32l-103,59.46A10.08,10.08,0,0,0,31,172.3l103.09,58a21.13,21.13,0,0,0,20.75,0l103.09-58a10.08,10.08,0,0,0,.09-17.52l-103-59.46A21.14,21.14,0,0,0,133.9,95.32Z"></path><path class="cls-16" d="M134.05,95.28l-101.5,58.6a10,10,0,0,0,.09,17.28l101.61,57.2a20.81,20.81,0,0,0,20.45,0l101.61-57.2a10,10,0,0,0,.09-17.28L154.9,95.28A20.82,20.82,0,0,0,134.05,95.28Z"></path><path class="cls-17" d="M134.2,95.24,34.18,153a9.81,9.81,0,0,0,.09,17L134.4,226.38a20.56,20.56,0,0,0,20.16,0L254.68,170a9.8,9.8,0,0,0,.09-17l-100-57.74A20.55,20.55,0,0,0,134.2,95.24Z"></path><path class="cls-18" d="M134.35,95.2,35.81,152.09a9.66,9.66,0,0,0,.09,16.77l98.64,55.54a20.26,20.26,0,0,0,19.87,0l98.64-55.54a9.66,9.66,0,0,0,.09-16.77L154.6,95.2A20.24,20.24,0,0,0,134.35,95.2Z"></path><path class="cls-19" d="M134.51,95.16l-97.06,56a9.51,9.51,0,0,0,.09,16.52l97.16,54.71a20,20,0,0,0,19.56,0l97.16-54.71a9.51,9.51,0,0,0,.09-16.52l-97.07-56A19.88,19.88,0,0,0,134.51,95.16Z"></path><path class="cls-20" d="M134.66,95.12,39.08,150.3a9.37,9.37,0,0,0,.09,16.27l95.67,53.86a19.63,19.63,0,0,0,19.27,0l95.68-53.86a9.36,9.36,0,0,0,.08-16.27L154.29,95.12A19.61,19.61,0,0,0,134.66,95.12Z"></path><path class="cls-21" d="M134.81,95.07,40.71,149.4a9.22,9.22,0,0,0,.09,16l94.19,53a19.31,19.31,0,0,0,19,0l94.2-53a9.22,9.22,0,0,0,.08-16l-94.1-54.33A19.34,19.34,0,0,0,134.81,95.07Z"></path><path class="cls-22" d="M135,95,42.34,148.51a9.07,9.07,0,0,0,.09,15.76l92.71,52.2a19,19,0,0,0,18.67,0l92.71-52.2a9.07,9.07,0,0,0,.09-15.76L154,95A19,19,0,0,0,135,95Z"></path><path class="cls-23" d="M135.12,95,44,147.61a8.93,8.93,0,0,0,.08,15.52l91.23,51.36a18.72,18.72,0,0,0,18.37,0l91.23-51.36a8.93,8.93,0,0,0,.09-15.52L153.84,95A18.74,18.74,0,0,0,135.12,95Z"></path><path class="cls-24" d="M135.27,95,45.61,146.72A8.78,8.78,0,0,0,45.69,162l89.75,50.53a18.41,18.41,0,0,0,18.07,0L243.26,162a8.78,8.78,0,0,0,.09-15.26L153.69,95A18.42,18.42,0,0,0,135.27,95Z"></path><path class="cls-25" d="M135.42,94.91,47.24,145.82a8.64,8.64,0,0,0,.08,15l88.27,49.7a18.14,18.14,0,0,0,17.77,0l88.27-49.7a8.64,8.64,0,0,0,.08-15L153.53,94.91A18.13,18.13,0,0,0,135.42,94.91Z"></path><path class="cls-26" d="M135.57,94.87l-86.7,50.06A8.49,8.49,0,0,0,49,159.68l86.79,48.86a17.77,17.77,0,0,0,17.47,0L240,159.68a8.49,8.49,0,0,0,.08-14.75l-86.7-50.06A17.82,17.82,0,0,0,135.57,94.87Z"></path><path class="cls-27" d="M135.72,94.83,50.51,144a8.34,8.34,0,0,0,.07,14.5l85.31,48a17.5,17.5,0,0,0,17.17,0l85.31-48a8.35,8.35,0,0,0,.08-14.5l-85.22-49.2A17.5,17.5,0,0,0,135.72,94.83Z"></path><path class="cls-28" d="M135.88,94.79,52.14,143.13a8.21,8.21,0,0,0,.08,14.26L136,204.58a17.19,17.19,0,0,0,16.87,0l83.83-47.19a8.21,8.21,0,0,0,.08-14.26L153.08,94.79A17.21,17.21,0,0,0,135.88,94.79Z"></path><path class="cls-29" d="M136,94.75,53.77,142.24a8.06,8.06,0,0,0,.08,14l82.34,46.36a16.94,16.94,0,0,0,16.58,0l82.34-46.36a8.06,8.06,0,0,0,.07-14L152.93,94.75A16.89,16.89,0,0,0,136,94.75Z"></path><path class="cls-30" d="M136.18,94.71,55.4,141.34a7.91,7.91,0,0,0,.08,13.75l80.86,45.53a16.62,16.62,0,0,0,16.28,0l80.86-45.53a7.91,7.91,0,0,0,.07-13.75L152.77,94.71A16.56,16.56,0,0,0,136.18,94.71Z"></path><path class="cls-31" d="M136.33,94.67,57,140.45a7.77,7.77,0,0,0,.08,13.5l79.37,44.68a16.27,16.27,0,0,0,16,0L231.84,154a7.77,7.77,0,0,0,.08-13.5l-79.3-45.78A16.29,16.29,0,0,0,136.33,94.67Z"></path><path class="cls-32" d="M136.48,94.63,58.67,139.55a7.62,7.62,0,0,0,.07,13.25l77.9,43.85a16,16,0,0,0,15.68,0l77.89-43.85a7.63,7.63,0,0,0,.08-13.25L152.47,94.63A16,16,0,0,0,136.48,94.63Z"></path><path class="cls-33" d="M136.64,94.59,60.3,138.66a7.47,7.47,0,0,0,.07,13l76.41,43a15.68,15.68,0,0,0,15.39,0l76.41-43a7.47,7.47,0,0,0,.07-13L152.32,94.59A15.64,15.64,0,0,0,136.64,94.59Z"></path><path class="cls-34" d="M136.79,94.54,61.93,137.76A7.33,7.33,0,0,0,62,150.5l74.93,42.19a15.37,15.37,0,0,0,15.09,0L227,150.5a7.33,7.33,0,0,0,.07-12.74L152.16,94.54A15.4,15.4,0,0,0,136.79,94.54Z"></path><path class="cls-35" d="M136.94,94.5,63.56,136.87a7.19,7.19,0,0,0,.07,12.49l73.45,41.35a15.1,15.1,0,0,0,14.79,0l73.45-41.35a7.19,7.19,0,0,0,.07-12.49L152,94.5A15.08,15.08,0,0,0,136.94,94.5Z"></path><path class="cls-36" d="M137.09,94.46,65.2,136a7,7,0,0,0,.06,12.24l72,40.52a14.78,14.78,0,0,0,14.49,0l72-40.52a7,7,0,0,0,.06-12.24L151.86,94.46A14.76,14.76,0,0,0,137.09,94.46Z"></path><path class="cls-37" d="M137.24,94.42,66.83,135.08a6.9,6.9,0,0,0,.06,12l70.49,39.69a14.46,14.46,0,0,0,14.19,0l70.49-39.69a6.89,6.89,0,0,0,.06-12L151.71,94.42A14.49,14.49,0,0,0,137.24,94.42Z"></path><path class="cls-38" d="M137.4,94.38l-68.94,39.8a6.75,6.75,0,0,0,.06,11.73l69,38.85a14.14,14.14,0,0,0,13.89,0l69-38.85a6.75,6.75,0,0,0,.06-11.73l-68.94-39.8A14.14,14.14,0,0,0,137.4,94.38Z"></path><path class="cls-39" d="M137.55,94.34,70.09,133.28a6.61,6.61,0,0,0,.07,11.49l67.52,38a13.83,13.83,0,0,0,13.59,0l67.53-38a6.62,6.62,0,0,0,.06-11.49L151.4,94.34A13.87,13.87,0,0,0,137.55,94.34Z"></path><path class="cls-40" d="M137.7,94.3l-66,38.09a6.46,6.46,0,0,0,.06,11.23l66,37.18a13.51,13.51,0,0,0,13.29,0l66-37.18a6.47,6.47,0,0,0,.06-11.23l-66-38.09A13.55,13.55,0,0,0,137.7,94.3Z"></path><path class="cls-41" d="M137.85,94.26,73.36,131.49a6.32,6.32,0,0,0,.06,11L138,178.82a13.26,13.26,0,0,0,13,0l64.56-36.35a6.33,6.33,0,0,0,.06-11L151.1,94.26A13.23,13.23,0,0,0,137.85,94.26Z"></path><path class="cls-42" d="M138,94.22,75,130.6a6.18,6.18,0,0,0,.06,10.73l63.08,35.51a12.94,12.94,0,0,0,12.7,0l63.07-35.51A6.18,6.18,0,0,0,214,130.6L151,94.22A13,13,0,0,0,138,94.22Z"></path><path class="cls-43" d="M131.59,63.26,0,122.62v12A14.29,14.29,0,0,0,7.22,147L131.83,217.9a25.77,25.77,0,0,0,25.29,0l124.25-70a14.27,14.27,0,0,0,7.27-12.44V125.19L157.36,63.26A25.79,25.79,0,0,0,131.59,63.26Z"></path><path class="cls-44" d="M131.59,39.43,6.14,111.86a12.29,12.29,0,0,0,.12,21.35l125.57,70.7a25.83,25.83,0,0,0,25.29,0l125.57-70.7a12.29,12.29,0,0,0,.12-21.35L157.36,39.43A25.79,25.79,0,0,0,131.59,39.43Z"></path><path class="cls-45" d="M137.36,102.93l.32,1v1.57a1.83,1.83,0,0,1-.94,1.6l-1.49.83a2.08,2.08,0,0,1-1,.26h-.73l-.83.48-.35.5a2.45,2.45,0,0,1-1.2.88,23.39,23.39,0,0,1-6.26,1.28s-1.86-.35-1.7-1.55l6.13-4.57,1.62-2.73Z"></path><path class="cls-46" d="M134.13,103.9h.18c1.78-.09,3.14,0,3-1.78l-.56-22.87,2.31-27.08C139,50.38,132.75,47,131,47.09a3.23,3.23,0,0,0-3,3.4l1.65,28.45,1.33,23.52C131,104.18,132.43,103.9,134.13,103.9Z"></path><g class="cls-47"><path class="cls-48" d="M132.07,47.27c2.46.73,6.94,3.39,7,4.89l-2.31,27.08.56,22.87c.08,1.44-.8,1.65-2.09,1.73-.5-6.19-1-12.39-1-18.6A72.13,72.13,0,0,0,133.8,74c-.35-2.15-1-4.26-1.17-6.43-.33-3.24.19-6.58-.7-9.72-.4-1.42-1.07-2.75-1.52-4.15a6.48,6.48,0,0,1-.11-4.34A4.72,4.72,0,0,1,132.07,47.27Z"></path></g><path class="cls-45" d="M147.57,109.76v1.79L148,115a4.05,4.05,0,0,1-1.88,4,7.54,7.54,0,0,1-1.88.86,3.53,3.53,0,0,1-2.18-.08c-.83-.29-1.87-.77-1.82-1.31l1.94-8.72Z"></path><path class="cls-46" d="M145.09,110.05h.31c1.77-.17,3.06,0,2.89-1.76l-1.1-24.85.38-23.94c-.07-1.78-3.59.67-5.37.73a3.23,3.23,0,0,0-3.1,3.34V84.23l2.77,24.66C142,110.56,143.45,110.05,145.09,110.05Z"></path><path class="cls-49" d="M114.25,47.08a2.58,2.58,0,0,0,1.54-.36l3.49-2.6,14.35-8.2A2.58,2.58,0,0,0,131,31.51l-14.38,9.35-3.46,1.45a2.57,2.57,0,0,0-.87,3.54A2.54,2.54,0,0,0,114.25,47.08Z"></path><path class="cls-46" d="M120,43.74a2.74,2.74,0,0,0,1.63-.39l12.05-7.29a2.74,2.74,0,1,0-2.84-4.69l-12.05,7.29A2.74,2.74,0,0,0,120,43.74Z"></path><polygon class="cls-50" points="127.53 49.49 144.62 59 141.38 17.92 127.53 18.8 127.53 49.49"></polygon><polygon class="cls-45" points="144.62 59 127.53 49.49 127.53 47.56 144.46 56.98 144.62 59"></polygon><polygon class="cls-51" points="135.11 53.75 131.57 51.84 131.57 49.91 134.96 51.73 135.11 53.75"></polygon><polygon class="cls-49" points="133.22 21.59 134.94 21.05 139.51 21.21 141.38 17.92 141.09 11.8 133.22 11.8 133.22 21.59"></polygon><polygon class="cls-52" points="135.37 24.81 136.45 23.2 134.94 21.05 134.68 21.05 133.55 22.48 134.13 24.38 135.37 24.81"></polygon><polygon class="cls-52" points="135.37 24.81 134.87 44.17 132.54 46.98 130.64 43.9 134.13 24.38 135.37 24.81"></polygon><path class="cls-44" d="M141.32,16.6s-2.67,4.13-6.38,4.45l1.87,2.66s5.21-3,4.7-6.43Z"></path><path class="cls-44" d="M134.94,21.05l-2.21,2.29s-3.49-4.52-.15-6.65C133.63,16,133.41,20.81,134.94,21.05Z"></path><path class="cls-53" d="M142.2,60.22a3.22,3.22,0,0,0-3.1,3.34l.16,5.37A16.43,16.43,0,0,0,147.4,70l.17-10.51C147.5,57.71,144,60.16,142.2,60.22Z"></path><path class="cls-46" d="M144.83,19.92l-3.31-2h0a7.17,7.17,0,0,1-1.18,3.71l-1,1.56a41.58,41.58,0,0,0-2.67,12.75l-1,19.42a29,29,0,0,0,0,3l-.18,6.19c1.86,3.08,10.25,4.81,13.38,3l-.48-5.73a50.31,50.31,0,0,0-1.54-11h0a11.87,11.87,0,0,1-.29-4.4l2.31-19.29A8.25,8.25,0,0,0,144.83,19.92Z"></path><path class="cls-46" d="M134.14,16.22h0a5.19,5.19,0,0,0-7.82,4.48v38a1.39,1.39,0,0,0,.69,1.21l3.63,2.35-1.07-23.87a41.85,41.85,0,0,1,2.07-12.7l1.69-5.16Z"></path><path class="cls-42" d="M128.65,25.16l1.58-1.53-1.58-1.13,5.29-5.26-.29,1.55-.32,1.71-1.69,5.16a41.85,41.85,0,0,0-2.07,12.7l0,4.77Z"></path><path class="cls-49" d="M131.15,5.85v9.68a1.46,1.46,0,0,0,.74,1.27h0a3.23,3.23,0,0,0,2.54.3l4-1.21a2.69,2.69,0,0,0,1.81-1.74L142.36,8a2,2,0,0,0-.26-1.77L140.58,4a3.51,3.51,0,0,0-3.5-1.44l-3.82.71A2.58,2.58,0,0,0,131.15,5.85Z"></path><path class="cls-54" d="M141.1,14.77l0,0a.87.87,0,0,0,.07.17Z"></path><path class="cls-54" d="M130.31,3.37a5.1,5.1,0,0,1,2.22-1.44c1.36-.64,2.6-1.63,4.08-1.87a7.06,7.06,0,0,1,2,0,6.7,6.7,0,0,1,4.33,1.74,5.63,5.63,0,0,1,1.14,4.28c-.13,1.51-.59,3-.81,4.48a7.18,7.18,0,0,1-.32,1.53,6,6,0,0,1-.92,1.48c-.31.38-.61.77-.91,1.16a4,4,0,0,1,0-3.13,4.14,4.14,0,0,0,.38-1.07.86.86,0,0,0-.48-.94,1,1,0,0,0-.85.24,2.53,2.53,0,0,0-1,1.7l-.85,0a9.29,9.29,0,0,0,.08-2.88,3.11,3.11,0,0,0-1.58-2.29,5.12,5.12,0,0,0-3.1,0,3.65,3.65,0,0,1-3-.42A2,2,0,0,1,130.31,3.37Z"></path><path class="cls-49" d="M145,59.06l-.48-2.54,9.76-15L148.2,23.63a2.58,2.58,0,1,0-4.88,1.67l5.3,15.55-8.14,13.68h0a1.73,1.73,0,0,0-.63,1.34v3.19C139.85,60.49,145,60.49,145,59.06Z"></path><path class="cls-55" d="M145.73,58.76l0,.19c0,1.84-6.67,1.84-6.67,0v-.41C139.1,60.3,145.22,60.37,145.73,58.76Z"></path><path class="cls-56" d="M146.24,42.23a5.56,5.56,0,0,0,.39-2.93c-.45-3.2-1.59-10.49-3-13.1-.46-.85-.27-3.21,1.16-3.7s1.47-.35,2,1.08l1.93,5.67-2.05,17.08a11.69,11.69,0,0,0,.27,4.37c0,.11.06.22.08.32l-2.77,4.49c-.52.84-.48.52-1.4.52-.49,0-.55-.17-1-.44-1.29-.8-.84-1.66,0-3Z"></path><path class="cls-46" d="M143.49,56.81a2.72,2.72,0,0,0,2.33-1.3l7.93-12.82a2.93,2.93,0,0,0,.27-2.48l-5.66-16.63a2.74,2.74,0,0,0-5.19,1.77l5,14.52a2.15,2.15,0,0,1-.21,1.83L141.2,52.56a2.8,2.8,0,0,0,.59,3.65A2.7,2.7,0,0,0,143.49,56.81Z"></path><path class="cls-42" d="M136.08,48.58l.3-6.08c.19-3.47.44-7.64.68-10.23a41.9,41.9,0,0,1,2.32-9.08l1-1.56a9,9,0,0,0,1.2-4.16l2.09,1.75-.55,7.8h-2.25l1,1.29Z"></path><polygon class="cls-57" points="133.94 17.25 135.7 16.6 133.65 18.8 133.94 17.25"></polygon><path class="cls-49" d="M113.53,43.2l-3.24,1.88a.47.47,0,0,1-.63-.17h0a.46.46,0,0,1,.17-.62l3.25-1.87a.45.45,0,0,1,.62.16h0A.46.46,0,0,1,113.53,43.2Z"></path><g class="cls-58"><path class="cls-59" d="M126.32,20.7c0,5.91-.11,11.81.13,17.71.1,2.49-.13,5.07-.13,7.58V58.67a1.39,1.39,0,0,0,.69,1.21l1.52,1v0a.14.14,0,0,1,0-.06,4.44,4.44,0,0,0-.53-2.7c-.87-2.46-.3-5.14-.15-7.74.34-6-1.61-12.18.26-17.87.52-1.58,1.34-3.16,1.08-4.8a13.36,13.36,0,0,0-.63-2,9.31,9.31,0,0,1,.21-6.35c.52-1.29,1.33-2.46,1.8-3.77A5.19,5.19,0,0,0,126.32,20.7Z"></path></g><g class="cls-58"><path class="cls-59" d="M130.54,83.64a25.48,25.48,0,0,1-.19-3.9c.1-1.86.61-3.69.61-5.56a20,20,0,0,0-.37-3.35q-.85-5.2-1.79-10.41l-.45.33.18.12,1.05,18.07,1.34,23.52-1.62,2.73-1.29,1a1.39,1.39,0,0,0,1.51.14,7.51,7.51,0,0,1,2-3.22,2.78,2.78,0,0,0,.62-.71,2.34,2.34,0,0,0,.12-1.29Z"></path></g><g class="cls-58"><path class="cls-59" d="M141.77,96.39c-.08-1.15-.15-2.29-.31-3.43-.2-1.36-.52-2.7-.71-4.06a45,45,0,0,1-.32-6.25c0-2.66,0-5.33.15-8a9.2,9.2,0,0,0-.23-3.74c-.32-.88-.93-1.63-1.25-2.51V84.24l2.77,24.66a1.56,1.56,0,0,0,.3.83c0-.08.08-.15.11-.22a5.5,5.5,0,0,0,.19-2.36C142.24,103.56,142,100,141.77,96.39Z"></path></g><g class="cls-60"><path class="cls-59" d="M133.82,1.24a13.34,13.34,0,0,1-1.29.69,5.1,5.1,0,0,0-2.22,1.44,2,2,0,0,0,.36,2.53,2,2,0,0,0,.48.3,4.77,4.77,0,0,1,0,1v6.4a6.27,6.27,0,0,0,.18,2.67,1.27,1.27,0,0,0,.3.35,1.81,1.81,0,0,0,.44.22,3.88,3.88,0,0,0,1.83.32.4.4,0,0,0-.06-.35,1.34,1.34,0,0,0-.26-.27l-1.08-.87c-.47-.38-.51-1.37-.49-1.92a6.07,6.07,0,0,1,.7-2.63,4.48,4.48,0,0,0,.9-2.35c-.08-.89-.86-1.56-1.1-2.43a4.17,4.17,0,0,1,.32-2.47C133.13,3,133.44,2.1,133.82,1.24Z"></path></g><g class="cls-58"><path class="cls-59" d="M126.27,40c-.85.09-1.45.86-2.22,1.22a7.14,7.14,0,0,1-1.28.35,9.43,9.43,0,0,0-3.86,1.86,9.87,9.87,0,0,1-2.29,1.7c-1,.41-2.25.41-2.84,1.3a2.08,2.08,0,0,1-.3.43,2.61,2.61,0,0,0,.77.18,2.51,2.51,0,0,0,1.54-.36l3.49-2.6.68-.39H120a2.74,2.74,0,0,0,1.63-.39l4.54-2.75C126.23,40.41,126.25,40.22,126.27,40Z"></path></g><path class="cls-49" d="M160.1,56.18l-15.18-7.33-6.25-1.66a2.42,2.42,0,0,1,1.87-4.47l4.92,2.8,14.25,5.24,13.18-7.89A2.42,2.42,0,0,1,175.38,47Z"></path><path class="cls-49" d="M160.1,56.18l-15.18-7.33-6.25-1.66a2.42,2.42,0,0,1,1.87-4.47l4.92,2.8,14.25,5.24,13.18-7.89A2.42,2.42,0,0,1,175.38,47Z"></path><path class="cls-61" d="M175.58,47.37a2.82,2.82,0,0,0-1.45-5.24,2.85,2.85,0,0,0-1.45.4l-13,7.8L148,46a2.13,2.13,0,0,0-2.83,1.6h0a2.14,2.14,0,0,0,1.16,2.32l13.83,6.69Z"></path><path class="cls-49" d="M144.08,45.74a.72.72,0,0,0,.82.59.73.73,0,0,0,.43-.92l-.72-2.69a.66.66,0,1,0-1.25.34Z"></path><path class="cls-49" d="M140,43.89c.44.28,1,.28,1.15,0s0-.78-.45-1.07l-2.87-1.87c-.44-.29-1-.28-1.15,0s0,.78.45,1.06Z"></path><path class="cls-50" d="M174.51,125.92l.17,2.53a2,2,0,0,1-1.13,1.83L170,132.69a7.44,7.44,0,0,1-4,.73l-1.38-.14a.87.87,0,0,1-.65-.41h0a1.2,1.2,0,0,1,.2-1.51l6.74-5.44Z"></path><path class="cls-49" d="M172.69,127.74h0a1.82,1.82,0,0,1-1.82-1.82v-3.74h3.64v3.74A1.83,1.83,0,0,1,172.69,127.74Z"></path><path class="cls-52" d="M172,125.11c-1.49,0-1.53-.78-1.62-2.29l-3-23.94,1.85-29.52c0-.37.64-3.23,1.52-3.44,1.65-.39,1.48,2.4,2.09,2,2.3-1.42,4.34,1.18,4.06,3.23l.61,4.27a20.71,20.71,0,0,1-.63,8.82l-2.5,15.2.28,6a10.88,10.88,0,0,1,.06,1.14l.38,16.08c.09,1.56-.44,2.24-2,2.34Z"></path><path class="cls-62" d="M177.43,75.45l-.61-4.27c.28-2.05-1.76-4.65-4.06-3.23-.61.37-.44-2.42-2.09-2-.41.1-.94.76-1.41,1.48.16.46.29.8.53.65,2.42-1.49,4.55,1.23,4.27,3.38l.64,4.49c1.73,3.57.22,6.25-.66,9.24l-2.63,16,1,6.88a9.66,9.66,0,0,1,.07,1.2l-.35,15.91L173,125c1.56-.09,2.08-.78,2-2.34l-.38-16.07a10.93,10.93,0,0,0-.06-1.15l-.28-6,2.51-15.2A20.87,20.87,0,0,0,177.43,75.45Z"></path><path class="cls-51" d="M189.92,30a7.12,7.12,0,0,0-.11-2.87,4,4,0,0,0-1.57-2.47,3.62,3.62,0,0,0-3.66.16,9.37,9.37,0,0,0-2.68,2.75l1,4.27c1.24.27,1.62,1.9,1.35,3.14s-.9,2.44-.74,3.69a3.6,3.6,0,0,0,2,2.63,5.88,5.88,0,0,0,3.37.44A4.18,4.18,0,0,1,187.26,38,11,11,0,0,1,188.47,34,16.39,16.39,0,0,0,189.92,30Z"></path><path class="cls-63" d="M187.71,41.18a3.84,3.84,0,0,1-2.64-2.36c-.42-1.28,0-2.68,0-4s-.69-3-2-3l-.33-.71.19.78c1.24.27,1.62,1.9,1.36,3.14s-.91,2.44-.75,3.69a3.62,3.62,0,0,0,2,2.63,5.84,5.84,0,0,0,3.36.44,3,3,0,0,1-.51-.41A5.42,5.42,0,0,1,187.71,41.18Z"></path><path class="cls-50" d="M178.7,129.09l-3,8.11v.4a1.72,1.72,0,0,0,1.73,1.73h1.77a2.44,2.44,0,0,0,1.38-.42L182,138a3,3,0,0,0,1.34-2.51l-1-6.37-3.4.6Z"></path><path class="cls-49" d="M180.51,130.91h0a1.81,1.81,0,0,1-1.81-1.82v-3.73h3.63v3.73A1.81,1.81,0,0,1,180.51,130.91Z"></path><path class="cls-52" d="M179.62,126.93c-1.48,0-1.52-.79-1.61-2.29l-2.57-27.31-.73-25.45c.14-1.08,4.8-1.54,5.72-2.11,2.31-1.42,4.34,1.17,4.07,3.22l.61,4.28a20.87,20.87,0,0,1-.63,8.82l-2.9,11.68,1.08,9.53a10.93,10.93,0,0,1,.06,1.15l0,16.07c.09,1.56-.44,2.25-2,2.34Z"></path><path class="cls-61" d="M174.48,40.94l7.3,4.27a5.19,5.19,0,0,1,2.56,4.46l.77,27.6c-10.4,2.86-16.71-5.64-16.71-5.64l.79-14a4.54,4.54,0,0,0-.84-2.62l-.18-.26a3.59,3.59,0,0,1-.45-4l2-3.78a13.18,13.18,0,0,0,.48-3.56h0A2.85,2.85,0,0,1,174.48,40.94Z"></path><path class="cls-49" d="M173.4,38.9l-.16,5.92a1.82,1.82,0,0,0,2.95,1.48l3.18-2.5-.24-.53a7,7,0,0,1-.63-3.34l.1-1.68Z"></path><path class="cls-49" d="M178.56,41.21h-4.67a3.28,3.28,0,0,1-3.29-3.28V32.32a2.23,2.23,0,0,1,2.23-2.23h5.73V41.21Z"></path><path class="cls-51" d="M177.16,25.92c1.68.14,3.79-1.6,4.89.46a9.72,9.72,0,0,1,.16,8.76,18.65,18.65,0,0,1-1.51,2.44A3.91,3.91,0,0,1,179.36,39a1.33,1.33,0,0,1-1.72-.37,1.73,1.73,0,0,1,.14-1.54,3.39,3.39,0,0,0,.53-1.5c0-.54-.53-1.1-1-.91s-.52.6-.7,1-.65.71-1,.45.07-.92.3-1.39a1.77,1.77,0,0,0-.75-2.12,4.18,4.18,0,0,0-2.37-.52,7.31,7.31,0,0,1-1.81-.08c-2.22-.54-2.66-3.75-1.35-5.33a5.62,5.62,0,0,1,2.84-1.66,3.92,3.92,0,0,1,2.17-.13c.84.25,1.51,1,2.38,1.09Z"></path><path class="cls-64" d="M169.63,26.6l.08-.08c-1,1.66-.5,4.49,1.58,5a7.31,7.31,0,0,0,1.81.08,4.1,4.1,0,0,1,2.37.52,1.78,1.78,0,0,1,.75,2.12c-.23.47-.7,1.06-.3,1.39a.53.53,0,0,0,.69-.1l0,.06c-.19.37-.65.71-1,.45s.07-.92.3-1.39a1.77,1.77,0,0,0-.75-2.12,4.1,4.1,0,0,0-2.37-.52,7.31,7.31,0,0,1-1.81-.08C168.76,31.39,168.32,28.18,169.63,26.6Z"></path><polygon class="cls-57" points="173.31 41.15 174.5 40.66 173.29 42.92 173.31 41.15"></polygon><polygon class="cls-44" points="170.71 59.8 183.36 52.91 182.49 74.26 169.84 80.94 170.71 59.8"></polygon><polygon class="cls-65" points="171.16 59.77 183.27 51.97 183.99 73.32 171.87 80.92 171.16 59.77"></polygon><polygon class="cls-44" points="171.69 60.02 184.14 52.75 183.91 74.12 171.47 81.18 171.69 60.02"></polygon><path class="cls-49" d="M170.77,73.54a2.42,2.42,0,0,1-2.37-1.91,2.52,2.52,0,0,1,1.82-2.89l3.37-.16,10.84-3.92-5.05-15A2.43,2.43,0,0,1,181,46.55a2.52,2.52,0,0,1,3,1.7l5.88,17.46a2.24,2.24,0,0,1-1.5,2.86l-13.5,3.07-3.46,1.8A2.27,2.27,0,0,1,170.77,73.54Z"></path><path class="cls-61" d="M174.35,70.28a2.18,2.18,0,0,0,2.51,1.32L188.49,69a2.62,2.62,0,0,0,1.8-1.75,2.65,2.65,0,0,0,0-1.67l-5.86-17.41a3,3,0,0,0-2.75-2A2.81,2.81,0,0,0,179,49.79l4.93,14.63-8.3,3a2.17,2.17,0,0,0-1.28,2.85Z"></path><path class="cls-49" d="M172.92,69.82a.66.66,0,1,0,1-.87L172,66.89a.66.66,0,1,0-1,.87Z"></path><g class="cls-58"><path class="cls-59" d="M174.65,55.45c-.19-.92-1.74-1.74-2.09-2.67-.56-1.48-.14-3.82.1-5.31a7.64,7.64,0,0,0,.1-3.88,1.45,1.45,0,0,0-2.81.16,4.22,4.22,0,0,0,0,.94,3.07,3.07,0,0,1-.43,2.34,8.43,8.43,0,0,1-2.47,1.5c-1.27.65-2.54,1.32-3.83,1.94-.32.15-3.23.94-3.29.52.06.46.13.93.2,1.39-.34.2-.76-.07-1-.37s-.5-.68-.88-.73l0,.87c0,.15,0,.34-.18.38a.34.34,0,0,1-.27-.07,14.87,14.87,0,0,1-1.57-1.17c-2.09-1.61-4.57-2.1-7-3.08-.57-.23-3.48-2-3.93-1.79a2.73,2.73,0,0,0-.25.23,1,1,0,0,1-1.26-.1c-.48-.44-.54-1.07-1-1.49a13.57,13.57,0,0,0-2.12-1.25q-2-1.23-3.93-2.61c.14.11.4.76.68,1s.67.43,1,.65a2.36,2.36,0,0,0-1,1.17,2.43,2.43,0,0,0,1.29,3.18l6.26,1.66.45.21a2.12,2.12,0,0,0,.92.88l13.83,6.69,7.18-4.3a3.59,3.59,0,0,0,.87,2.46l.18.26a4.54,4.54,0,0,1,.84,2.62l-.72,12.74a2.19,2.19,0,0,0-.07,1.22,2.4,2.4,0,0,0,.54,1.08L167.3,98.88l3,23.94a5.45,5.45,0,0,0,.22,1.55l.2,0c.88-4.25.2-8.65-.27-13a110.33,110.33,0,0,1-.54-19c.19-3.15.92-6.29,1.09-9.43.16-2.89-.69-5.87-1.23-8.69a18.52,18.52,0,0,1-.07-8.6,36.68,36.68,0,0,0,1.42-4.8c.18-1.21.3-2.61,1.35-3.42.5-.39,1.12-.58,1.6-1A1.12,1.12,0,0,0,174.65,55.45Z"></path></g><g class="cls-58"><path class="cls-59" d="M173.24,24.76a6.63,6.63,0,0,0-.77.18,5.75,5.75,0,0,0-2.77,1.58h0l-.07.08a3.63,3.63,0,0,0-.71,2.65,3.55,3.55,0,0,0,.31,1.17,2.91,2.91,0,0,0,.42.67,2.37,2.37,0,0,0,.27.28,2.41,2.41,0,0,0,.74.45,2.73,2.73,0,0,0-.06.5v5.61a3.28,3.28,0,0,0,1.55,2.78,2.91,2.91,0,0,0-1.17.75,12,12,0,0,0,1.8.2.59.59,0,0,0,.43-.09c.27-.24,0-.66-.3-.92-1.34-1.33-1.33-3.51-.78-5.31a3.06,3.06,0,0,0,.19-2.21,6.09,6.09,0,0,0-.62-.82c-.79-1.1-.51-2.61-.12-3.91A12.15,12.15,0,0,1,173.24,24.76Z"></path></g><g class="cls-66"><path class="cls-1" d="M71.33,101.93l115.79,67.38a3.28,3.28,0,0,1,0,5.67l-35.19,20.31a9,9,0,0,1-9,0L27.55,127.66a3.27,3.27,0,0,1,0-5.66l34.77-20.07A9,9,0,0,1,71.33,101.93Z"></path><path class="cls-67" d="M71.53,102.33l114.9,66.87a3.23,3.23,0,0,1,0,5.6l-34.79,20.09a8.88,8.88,0,0,1-8.93,0L28.24,127.77a3.23,3.23,0,0,1,0-5.59l34.38-19.85A8.88,8.88,0,0,1,71.53,102.33Z"></path><path class="cls-68" d="M71.72,102.73l114,66.36a3.2,3.2,0,0,1,0,5.54l-34.4,19.86a8.77,8.77,0,0,1-8.82,0L28.93,127.88a3.2,3.2,0,0,1,0-5.53l34-19.62A8.79,8.79,0,0,1,71.72,102.73Z"></path><path class="cls-69" d="M71.92,103.13,185.05,169a3.16,3.16,0,0,1,0,5.48l-34,19.63a8.68,8.68,0,0,1-8.72,0L29.62,128a3.16,3.16,0,0,1,0-5.47l33.6-19.4A8.7,8.7,0,0,1,71.92,103.13Z"></path><path class="cls-70" d="M72.12,103.53l112.25,65.34a3.13,3.13,0,0,1,0,5.41l-33.61,19.41a8.61,8.61,0,0,1-8.63,0L30.3,128.11a3.13,3.13,0,0,1,0-5.41l33.21-19.17A8.61,8.61,0,0,1,72.12,103.53Z"></path><path class="cls-71" d="M72.32,103.93l111.36,64.83a3.09,3.09,0,0,1,0,5.35l-33.22,19.18a8.51,8.51,0,0,1-8.52,0L31,128.22a3.09,3.09,0,0,1,0-5.34l32.82-18.95A8.52,8.52,0,0,1,72.32,103.93Z"></path><path class="cls-72" d="M72.51,104.33,183,168.65a3.05,3.05,0,0,1,0,5.28l-32.82,18.95a8.37,8.37,0,0,1-8.42,0L31.68,128.33a3,3,0,0,1,0-5.27l32.43-18.73A8.38,8.38,0,0,1,72.51,104.33Z"></path><path class="cls-73" d="M72.71,104.73,182.3,168.54a3,3,0,0,1,0,5.22l-32.42,18.73a8.33,8.33,0,0,1-8.32,0l-109.19-64a3,3,0,0,1,0-5.22l32-18.5A8.29,8.29,0,0,1,72.71,104.73Z"></path><path class="cls-74" d="M72.91,105.13l108.71,63.3a3,3,0,0,1,0,5.16l-32,18.49a8.17,8.17,0,0,1-8.21,0L33.06,128.56a3,3,0,0,1,0-5.15l31.65-18.27A8.18,8.18,0,0,1,72.91,105.13Z"></path><path class="cls-75" d="M73.1,105.54l107.83,62.78a3,3,0,0,1,0,5.1l-31.64,18.26a8.07,8.07,0,0,1-8.12,0L48.72,137.25c-1.95-1.14-16.92-12.54-15-13.66l31.26-18A8,8,0,0,1,73.1,105.54Z"></path><path class="cls-76" d="M73.3,105.94l106.94,62.27a2.9,2.9,0,0,1,0,5l-31.24,18a8,8,0,0,1-8,0l-91.57-53.9c-1.92-1.13-16.9-12.48-15-13.6l30.87-17.82A8,8,0,0,1,73.3,105.94Z"></path><path class="cls-77" d="M73.5,106.34,179.55,168.1a2.87,2.87,0,0,1,0,5L148.7,190.88a7.85,7.85,0,0,1-7.91,0L50.1,137.47c-1.9-1.11-16.87-12.43-15-13.53l30.48-17.6A7.89,7.89,0,0,1,73.5,106.34Z"></path><path class="cls-78" d="M73.69,106.74,178.86,168a2.83,2.83,0,0,1,0,4.91l-30.45,17.58a7.79,7.79,0,0,1-7.81,0L50.78,137.58c-1.87-1.09-16.84-12.38-15-13.47l30.09-17.37A7.78,7.78,0,0,1,73.69,106.74Z"></path><path class="cls-79" d="M73.89,107.14l104.29,60.74a2.8,2.8,0,0,1,0,4.84l-30.06,17.36a7.67,7.67,0,0,1-7.71,0L51.47,137.69c-1.85-1.08-16.82-12.33-15-13.4l29.7-17.15A7.69,7.69,0,0,1,73.89,107.14Z"></path><path class="cls-80" d="M74.09,107.54l103.4,60.23a2.76,2.76,0,0,1,0,4.78l-29.66,17.13a7.58,7.58,0,0,1-7.61,0L52.16,137.81c-1.83-1.07-16.8-12.29-15-13.35l29.31-16.92A7.6,7.6,0,0,1,74.09,107.54Z"></path><path class="cls-81" d="M74.28,107.94,176.8,167.67a2.72,2.72,0,0,1,0,4.71l-29.27,16.9a7.49,7.49,0,0,1-7.51,0L52.85,137.92c-1.8-1-16.77-12.23-15-13.28l28.93-16.7A7.49,7.49,0,0,1,74.28,107.94Z"></path><path class="cls-82" d="M74.48,108.34l101.63,59.21a2.68,2.68,0,0,1,0,4.65l-28.87,16.67a7.38,7.38,0,0,1-7.41,0L53.54,138c-1.78-1-16.75-12.18-15-13.21L67.1,108.34A7.42,7.42,0,0,1,74.48,108.34Z"></path><path class="cls-83" d="M74.68,108.74l100.75,58.71a2.65,2.65,0,0,1,0,4.58L147,188.47a7.29,7.29,0,0,1-7.31,0L54.23,138.14c-1.76-1-16.73-12.13-15-13.15L67.4,108.74A7.33,7.33,0,0,1,74.68,108.74Z"></path><path class="cls-84" d="M74.88,109.15l99.86,58.19a2.61,2.61,0,0,1,0,4.52l-28.09,16.21a7.16,7.16,0,0,1-7.2,0L54.91,138.26c-1.73-1-16.7-12.09-15-13.09l27.75-16A7.14,7.14,0,0,1,74.88,109.15Z"></path><path class="cls-85" d="M75.07,109.55l99,57.68a2.56,2.56,0,0,1,0,4.45l-27.69,16a7.07,7.07,0,0,1-7.1,0L55.6,138.37c-1.7-1-16.68-12-15-13L68,109.55A7,7,0,0,1,75.07,109.55Z"></path><path class="cls-86" d="M75.27,110l98.09,57.17a2.53,2.53,0,0,1,0,4.39l-27.29,15.76a7,7,0,0,1-7,0L56.29,138.48c-1.68-1-16.65-12-15-13L68.3,110A7,7,0,0,1,75.27,110Z"></path><path class="cls-87" d="M75.47,110.35,172.67,167a2.5,2.5,0,0,1,0,4.33l-26.9,15.53a6.86,6.86,0,0,1-6.9,0L57,138.59c-1.66-1-16.63-11.93-15-12.89l26.58-15.35A6.88,6.88,0,0,1,75.47,110.35Z"></path><path class="cls-88" d="M75.66,110.75,172,166.9a2.46,2.46,0,0,1,0,4.26l-26.51,15.31a6.77,6.77,0,0,1-6.8,0l-81-47.74c-1.64-1-16.61-11.89-15-12.84l26.19-15.12A6.77,6.77,0,0,1,75.66,110.75Z"></path><path class="cls-89" d="M75.86,111.15l95.44,55.64a2.42,2.42,0,0,1,0,4.2l-26.11,15.08a6.68,6.68,0,0,1-6.7,0L58.35,138.82c-1.61-.94-16.58-11.84-15-12.77l25.8-14.9A6.68,6.68,0,0,1,75.86,111.15Z"></path><path class="cls-90" d="M76.06,111.55l94.55,55.13a2.39,2.39,0,0,1,0,4.14l-25.72,14.85a6.55,6.55,0,0,1-6.59,0L59,138.93c-1.58-.92-16.56-11.79-15-12.71l25.42-14.67A6.59,6.59,0,0,1,76.06,111.55Z"></path><path class="cls-91" d="M76.25,112l93.67,54.62a2.35,2.35,0,0,1,0,4.07L144.6,185.26a6.46,6.46,0,0,1-6.5,0L59.73,139c-1.56-.91-16.53-11.74-15-12.64l25-14.45A6.5,6.5,0,0,1,76.25,112Z"></path><path class="cls-92" d="M76.45,112.35l92.79,54.11a2.32,2.32,0,0,1,0,4l-24.93,14.39a6.37,6.37,0,0,1-6.4,0L60.42,139.16c-1.54-.9-16.51-11.69-15-12.58l24.63-14.22A6.38,6.38,0,0,1,76.45,112.35Z"></path><path class="cls-93" d="M76.65,112.76l91.9,53.59a2.28,2.28,0,0,1,0,4L144,184.46a6.26,6.26,0,0,1-6.29,0L61.1,139.27c-1.51-.88-16.48-11.64-15-12.52l24.24-14A6.29,6.29,0,0,1,76.65,112.76Z"></path><path class="cls-94" d="M76.85,113.16l91,53.08a2.24,2.24,0,0,1,0,3.89l-24.14,13.93a6.17,6.17,0,0,1-6.19,0L61.79,139.38c-1.48-.86-16.46-11.59-15-12.45l23.85-13.77A6.13,6.13,0,0,1,76.85,113.16Z"></path><path class="cls-95" d="M77,113.56l90.13,52.57a2.21,2.21,0,0,1,0,3.82l-23.74,13.71a6.08,6.08,0,0,1-6.09,0L62.48,139.5C61,138.64,46,128,47.51,127.1L71,113.56A6,6,0,0,1,77,113.56Z"></path><path class="cls-96" d="M77.24,114,166.48,166a2.17,2.17,0,0,1,0,3.76l-23.35,13.48a6,6,0,0,1-6,0l-74-43.64c-1.44-.84-16.41-11.5-15-12.33L71.27,114A6,6,0,0,1,77.24,114Z"></path><path class="cls-97" d="M77.44,114.36l88.36,51.55a2.14,2.14,0,0,1,0,3.7l-23,13.25a5.85,5.85,0,0,1-5.89,0L63.86,139.72c-1.42-.83-16.39-11.44-15-12.26l22.68-13.1A5.86,5.86,0,0,1,77.44,114.36Z"></path><path class="cls-98" d="M77.63,114.76l87.48,51a2.09,2.09,0,0,1,0,3.63l-22.56,13a5.76,5.76,0,0,1-5.79,0L64.55,139.83c-1.4-.81-16.37-11.39-15-12.2l22.29-12.87A5.75,5.75,0,0,1,77.63,114.76Z"></path><path class="cls-99" d="M77.83,115.16l86.59,50.53a2.06,2.06,0,0,1,0,3.57l-22.16,12.8a5.67,5.67,0,0,1-5.69,0l-71.34-42.1c-1.36-.79-16.34-11.34-15-12.13l21.91-12.65A5.67,5.67,0,0,1,77.83,115.16Z"></path><path class="cls-100" d="M78,115.56l85.7,50a2,2,0,0,1,0,3.51L142,181.65a5.54,5.54,0,0,1-5.58,0L65.92,140.06c-1.34-.78-16.31-11.3-15-12.08l21.51-12.42A5.59,5.59,0,0,1,78,115.56Z"></path><path class="cls-101" d="M78.22,116l84.83,49.51a2,2,0,0,1,0,3.44l-21.38,12.34a5.47,5.47,0,0,1-5.49,0L66.61,140.17c-1.32-.77-16.29-11.25-15-12L72.76,116A5.49,5.49,0,0,1,78.22,116Z"></path><path class="cls-102" d="M78.42,116.37l83.94,49a2,2,0,0,1,0,3.38l-21,12.11a5.38,5.38,0,0,1-5.39,0L67.3,140.28c-1.3-.75-16.27-11.2-15-11.94l20.73-12A5.37,5.37,0,0,1,78.42,116.37Z"></path><path class="cls-103" d="M78.62,116.77l83,48.48a1.91,1.91,0,0,1,0,3.31l-20.59,11.89a5.27,5.27,0,0,1-5.28,0L68,140.39c-1.26-.74-16.24-11.14-15-11.88l20.35-11.74A5.26,5.26,0,0,1,78.62,116.77Z"></path><path class="cls-104" d="M78.82,117.17l82.16,48a1.88,1.88,0,0,1,0,3.25l-20.19,11.66a5.16,5.16,0,0,1-5.18,0L68.67,140.51a1.88,1.88,0,0,1,0-3.25l5-20.09A5.17,5.17,0,0,1,78.82,117.17Z"></path><path class="cls-105" d="M79,117.57,160.29,165a1.84,1.84,0,0,1,0,3.19L140.5,179.65a5.07,5.07,0,0,1-5.08,0l-66.06-39a1.84,1.84,0,0,1,0-3.18L74,117.57A5,5,0,0,1,79,117.57Z"></path><path class="cls-106" d="M79.21,118l80.4,46.95a1.8,1.8,0,0,1,0,3.12L140.2,179.25a5,5,0,0,1-5,0L70.05,140.73a1.8,1.8,0,0,1,0-3.12L74.25,118A4.94,4.94,0,0,1,79.21,118Z"></path><path class="cls-43" d="M79.41,118.37l79.51,46.44a1.77,1.77,0,0,1,0,3.06l-19,11a4.89,4.89,0,0,1-4.88,0l-64.29-38a1.77,1.77,0,0,1,0-3.06l3.81-19.42A4.85,4.85,0,0,1,79.41,118.37Z"></path></g><path class="cls-43" d="M23.61,101.61l0-2.6.56,1a3.18,3.18,0,0,1,1.08-1L60,78.9a9,9,0,0,1,9,0l115.79,67.39a3.21,3.21,0,0,1,1.18,1.16l.46-.87v2.89l0,0a3.22,3.22,0,0,1-1.62,2.46l-35.19,20.32a9,9,0,0,1-9,0L25.22,104.64a3.22,3.22,0,0,1-1.6-2.52h0v-.06A3.38,3.38,0,0,1,23.61,101.61Z"></path><path class="cls-107" d="M69,76.05l115.79,67.39a3.27,3.27,0,0,1,0,5.66l-35.19,20.32a9,9,0,0,1-9,0L25.22,101.79a3.27,3.27,0,0,1,0-5.66L60,76.06A9,9,0,0,1,69,76.05Z"></path><path class="cls-52" d="M57.21,88.19l99.29,58.45a.44.44,0,0,1,0,.76l-3.16,1.88a1.24,1.24,0,0,1-1.21,0L52.89,90.79a.44.44,0,0,1,0-.76L56,88.19A1.24,1.24,0,0,1,57.21,88.19Z"></path><path class="cls-108" d="M52.9,90.79l.21.13L56,89.2a1.22,1.22,0,0,1,1.2,0l99.08,58.33.21-.13a.43.43,0,0,0,0-.76L57.21,88.19a1.22,1.22,0,0,0-1.2,0L52.9,90A.43.43,0,0,0,52.9,90.79Z"></path><g class="cls-109"><path class="cls-59" d="M154.47,56,62.39,2.89a1.73,1.73,0,0,0-2.6,1.49V80a5.11,5.11,0,0,0,2.55,4.42l92.08,53.48a1.73,1.73,0,0,0,2.6-1.5v-76A5.09,5.09,0,0,0,154.47,56Z"></path><path class="cls-52" d="M155,99.15c-1.3-4.22-3.13-9-7.28-10.47-8.23-3-14.8,7-22.44,6.44A8.64,8.64,0,0,1,120,92.38c-4.84-4.87-5.21-12.19-7.19-18.4-2.12-6.66-3-13.74-7.78-19.24-1.87-2.14-4.94-3.5-7.61-2.54a8.59,8.59,0,0,0-3.28,2.43,33.1,33.1,0,0,0-5.86,10.08,17.24,17.24,0,0,1-2.38,4.66,5.18,5.18,0,0,1-4.58,2.09c-1.71-.27-3-1.66-4-3.07-4.38-6.14-4.84-13.69-6.24-20.87-.77-4-1.36-8.38-3-12a26.5,26.5,0,0,0-3.41-5.57c-.5-.6-4.82-3.89-4.82-4.15V80a5.11,5.11,0,0,0,2.55,4.42l92.08,53.48a1.73,1.73,0,0,0,2.6-1.5V105.85C156.39,103.6,155.72,101.36,155,99.15Z"></path><path class="cls-110" d="M155.45,94.65A24.2,24.2,0,0,0,152,87.07a9.16,9.16,0,0,0-6.61-3.72c-5.06-.44-9.37,3.15-13.63,5.29-2.11,1.07-4.58,2-7,1.6-3.08-.53-5.42-3.19-7-5.7-3-4.78-3.74-10.54-4.39-16s-1.27-11.24-4-16.17S101.15,43,95.22,43.81c-4.86.65-7.85,4.65-11.24,7.73a11.84,11.84,0,0,1-5.41,3.1,9.44,9.44,0,0,1-7.44-1.76C65.49,48.66,65.26,40.94,64,34.65c-.66-3.35-1.77-7.2-4.22-9.72v1.29a16.76,16.76,0,0,1,2.83,6.15C64.29,38.56,64,45.55,68,50.9a11.33,11.33,0,0,0,6.84,4.54,9.65,9.65,0,0,0,6.42-.89c3.87-2,6.23-6,9.89-8.34a10,10,0,0,1,7.77-1.37,14.86,14.86,0,0,1,7.47,4.76c3.81,4.32,5,10.15,5.74,15.7s1,11.08,3.12,16.22a20.49,20.49,0,0,0,4.6,6.94,9.78,9.78,0,0,0,3.89,2.4,8.36,8.36,0,0,0,3.82.16c4.91-.82,8.71-4.54,13.32-6.17a9.66,9.66,0,0,1,7.17,0c2.56,1.14,4.12,3.64,5.18,6.12a37.44,37.44,0,0,1,1.39,3.89C154.79,95.39,155.61,95.17,155.45,94.65Z"></path><path class="cls-111" d="M154.47,56,62.39,2.89a1.73,1.73,0,0,0-2.6,1.49V5l92,53a5.11,5.11,0,0,1,2.55,4.42v75.43l.1.06a1.73,1.73,0,0,0,2.6-1.5v-76A5.09,5.09,0,0,0,154.47,56Z"></path></g><polygon class="cls-112" points="90.37 31.49 68.13 18.65 68.13 22.89 90.37 35.74 90.37 31.49"></polygon></g></g></svg> 