<svg xmlns="http://www.w3.org/2000/svg" width="79" height="32" viewBox="0 -7 79 35" fill="none">
                  <g clip-path="url(#clip0)">
                  <path d="M48.1167 5.29496C44.8469 5.29496 42.1863 8.04173 42.1863 11.5165C42.1863 14.9914 44.8469 17.7381 48.1167 17.7381C51.3865 17.7381 54.0472 14.9914 54.0472 11.5165C54.0472 8.04173 51.3865 5.29496 48.1167 5.29496ZM48.1167 15.1899C46.1933 15.1899 44.6225 13.5683 44.6225 11.5827C44.6225 9.59712 46.1933 7.97554 48.1167 7.97554C50.0401 7.97554 51.6109 9.59712 51.6109 11.5827C51.6109 13.5022 49.976 15.1899 48.1167 15.1899ZM61.356 8.27338C59.657 8.27338 58.3107 9.7295 58.3107 11.4835V17.3741H55.7141V5.65899H58.3107V7.51223C58.3107 7.51223 59.4327 5.65899 61.6446 5.65899H62.3819V8.27338H61.356ZM35.4223 5.65899L37.3457 13.7007L39.4294 5.65899H42.026L38.7562 17.3741H36.2237L34.2042 9.16691L32.1846 17.3741H29.6522L26.3503 5.65899H28.8828L31.1268 13.7007L32.986 5.65899H35.4223ZM69.9472 11.0532C71.7423 9.99424 72.9925 7.97554 72.9925 5.69209H70.396C70.396 7.6777 68.8252 9.29928 66.9659 9.29928H66.5813V0H63.9847V17.4072H66.5813V11.8806H66.8698C67.1583 11.8806 67.4788 12.046 67.5429 12.2777L71.1974 17.4072H74.2428L69.9472 11.0532Z" fill="white"/>
                  <path class="green-up" d="M20.3559 5.29508C17.5349 5.29508 15.3871 7.21451 14.5537 10.2591C13.2073 8.10803 12.1815 5.65911 11.5724 3.57422H8.59114V11.7152C8.59114 13.3368 7.34094 14.6275 5.77017 14.6275C4.1994 14.6275 2.9492 13.3368 2.9492 11.7152V3.60731H0V11.7483C0 15.1239 2.59658 17.8044 5.80223 17.8044C9.00788 17.8044 11.6045 15.1239 11.6045 11.7483V10.3584C12.2135 11.5829 12.9508 12.8735 13.7522 14.0318L11.893 23.0001H14.9383L16.2847 16.4807C17.4708 17.2418 18.8172 17.7052 20.3559 17.7052C23.6256 17.7052 26.2863 14.9584 26.2863 11.4174C26.2863 8.04184 23.6256 5.29508 20.3559 5.29508ZM20.3559 14.5613C19.1698 14.5613 17.9837 14.0318 17.022 13.1713L17.3105 11.9469V11.8807C17.5349 10.59 18.2081 8.33969 20.42 8.33969C22.0549 8.33969 23.4012 9.72961 23.4012 11.4174C23.3051 13.1713 21.8946 14.5613 20.3559 14.5613Z" fill="#6FDA44"/>
                  <path d="M74.6275 6.05614H73.826V5.7583H75.8456V6.05614H75.0121V8.43888H74.7236V6.05614H74.6275ZM76.3585 5.7583H76.647L77.5446 7.21442L78.4422 5.7583H78.7307V8.37269H78.4422V6.22161L77.5446 7.61154L76.647 6.22161V8.37269H76.3585V5.7583Z" fill="white"/>
                  </g>
                  <defs>
                  <clipPath id="clip0">
                  <rect width="78.7308" height="23" fill="white"/>
                  </clipPath>
                  </defs>
                  </svg>