<?xml version="1.0" encoding="UTF-8"?> <svg xmlns="http://www.w3.org/2000/svg" xmlns:xlink="http://www.w3.org/1999/xlink" viewBox="0 0 180.8 406.8"><defs><style> .a9237de8-9dee-4d8e-8c1b-d2cb41971110 { fill: url(#a168008e-f504-4aac-82a3-19ade6032e93); } .a25b85f8-c878-4059-89ba-5a51447750e4 { fill: #fff; } .ba942d01-9d61-4eab-84f2-62c5eaac4cbd, .ea7e7d7e-8127-4195-a5d5-01fd970cc42f { opacity: 0.3; } .b26df0e7-d119-4f5b-8cab-876b1f90d60b, .ea7e7d7e-8127-4195-a5d5-01fd970cc42f { fill: #d3daed; } .a22b4511-0f55-40e1-a570-b9ce88f9cbde, .b835085d-62bb-4c84-a635-f27a959170bb, .ea478e03-fe45-45a3-bd85-40a44a2a53c2, .ea7e7d7e-8127-4195-a5d5-01fd970cc42f, .eea7af1b-9cdc-45c3-869a-0d604e837aa5 { isolation: isolate; } .a22b4511-0f55-40e1-a570-b9ce88f9cbde, .b835085d-62bb-4c84-a635-f27a959170bb, .ea478e03-fe45-45a3-bd85-40a44a2a53c2, .eea7af1b-9cdc-45c3-869a-0d604e837aa5 { opacity: 0.1; } .a22b4511-0f55-40e1-a570-b9ce88f9cbde { fill: url(#b41c81ed-63b9-4efd-97b0-412331dd4f2e); } .ea478e03-fe45-45a3-bd85-40a44a2a53c2 { fill: url(#fc76312a-6fb9-4d3c-a413-b81d2d749a0e); } .b835085d-62bb-4c84-a635-f27a959170bb { fill: url(#a0856586-e361-4640-ae3e-d43d25b11c6e); } .eea7af1b-9cdc-45c3-869a-0d604e837aa5 { fill: url(#f8b046f4-07d2-409c-8657-14e2e8f33a4b); } .b6283a37-11df-4988-9c4d-5c5b856175a9 { fill: #f6f8fb; } .bb46b85f-2980-4d0e-b1c7-7fdba0eb11dc { fill: #5b8bca; } .ba6bf8db-e422-4910-9072-92bb5907c158 { fill: #326ebd; } .e28b4b5e-c9a5-426b-aa9a-bf0cf22bde6f { fill: #fc7318; } .a6cb0a8d-4d96-437a-8c1a-fc6061ff2d85 { fill: #84a8d7; } .ef7f3cff-fcfd-4c09-a8b9-c73c6c149fd6 { fill: #adc5e5; } .a1eece89-1277-44fe-851b-087ec9a19387 { fill: #26538e; } </style><linearGradient id="a168008e-f504-4aac-82a3-19ade6032e93" x1="91.97" y1="390.66" x2="89.01" y2="270.25" gradientTransform="matrix(1, 0, 0, -1, 0, 672)" gradientUnits="userSpaceOnUse"><stop offset="0" stop-color="#d3daed"></stop><stop offset="0.19" stop-color="#eaeef7"></stop><stop offset="0.39" stop-color="#fff"></stop></linearGradient><linearGradient id="b41c81ed-63b9-4efd-97b0-412331dd4f2e" x1="30.49" y1="631.02" x2="29.87" y2="384.82" gradientTransform="matrix(1, 0, 0, -1, 0, 672)" gradientUnits="userSpaceOnUse"><stop offset="0.06" stop-color="#fff"></stop><stop offset="0.1" stop-color="#fffcf7"></stop><stop offset="0.17" stop-color="#fff5e1"></stop><stop offset="0.24" stop-color="#ffe9bd"></stop><stop offset="0.33" stop-color="#fed88b"></stop><stop offset="0.43" stop-color="#fec24d"></stop><stop offset="0.48" stop-color="#feb423"></stop><stop offset="0.53" stop-color="#fec657"></stop><stop offset="0.59" stop-color="#fed78a"></stop><stop offset="0.64" stop-color="#ffe5b4"></stop><stop offset="0.7" stop-color="#fff1d5"></stop><stop offset="0.75" stop-color="#fff9ec"></stop><stop offset="0.79" stop-color="#fffdfa"></stop><stop offset="0.83" stop-color="#fff"></stop></linearGradient><linearGradient id="fc76312a-6fb9-4d3c-a413-b81d2d749a0e" x1="49.25" y1="672.45" x2="48.63" y2="426.22" xlink:href="#b41c81ed-63b9-4efd-97b0-412331dd4f2e"></linearGradient><linearGradient id="a0856586-e361-4640-ae3e-d43d25b11c6e" x1="121.03" y1="654.02" x2="120.41" y2="407.8" xlink:href="#b41c81ed-63b9-4efd-97b0-412331dd4f2e"></linearGradient><linearGradient id="f8b046f4-07d2-409c-8657-14e2e8f33a4b" x1="139.8" y1="636.47" x2="139.18" y2="390.27" xlink:href="#b41c81ed-63b9-4efd-97b0-412331dd4f2e"></linearGradient></defs><g id="b300c7fd-cdc5-4a60-ba74-8e0ceda82d8e" data-name="Layer 2"><g id="b1ae0601-7c72-47f6-b35c-f5e3edca68e5" data-name="Layer 1"><g><g><path class="a9237de8-9dee-4d8e-8c1b-d2cb41971110" d="M180.8,346a17,17,0,0,0-13.1-16.3,21.2,21.2,0,0,0,2.4-9.8c0-11.8-9.8-21.3-22-21.3a22.8,22.8,0,0,0-10.4,2.5,13.2,13.2,0,0,0-12.4-8.2h0c0-12.4-10.3-22.5-23.1-22.5a23.4,23.4,0,0,0-17.7,8.1,17.5,17.5,0,0,0-32.4,1.6,18.4,18.4,0,0,0-5.3-.8,17.1,17.1,0,0,0-16.9,13.6H28.7c-12.5,0-22.6,9.8-22.6,22a21.2,21.2,0,0,0,4.7,13.4,16.7,16.7,0,0,0,3.7,32.1,16.8,16.8,0,0,0-2.2,8.2,17,17,0,0,0,17.3,16.8,17.8,17.8,0,0,0,6.1-1.1c0,.4-.1.7-.1,1.1,0,11.8,9.9,21.4,22,21.4a22.2,22.2,0,0,0,17.2-8.1,17.6,17.6,0,0,0,28.6-1.2,24.5,24.5,0,0,0,18.3,8c13.6,0,24.6-10.7,24.6-23.9v-1.3a17.7,17.7,0,0,0,7.3,1.6,17,17,0,0,0,17.2-16.8,13.7,13.7,0,0,0-.4-3.6A17,17,0,0,0,180.8,346Z"></path><path class="a25b85f8-c878-4059-89ba-5a51447750e4" d="M136.7,319.8h-4.5A31.8,31.8,0,0,1,100.4,288V245.3H73.6V288a31.8,31.8,0,0,1-31.8,31.8H37.3l30.4,19.1a40.1,40.1,0,0,0,44.4-1.4Z"></path><g class="ba942d01-9d61-4eab-84f2-62c5eaac4cbd"><path class="b26df0e7-d119-4f5b-8cab-876b1f90d60b" d="M81.7,278.9a6.2,6.2,0,0,0,.1.9c.1.6.2,1.4.3,2.5v.9a2.8,2.8,0,0,1,.1.9c0,.7.1,1.4.1,2.1a19.3,19.3,0,0,0,.1,2.4,5.3,5.3,0,0,1-.1,1.3v2.8a2.2,2.2,0,0,1-.1.8v.7c0,.5-.1,1-.1,1.6s-.1,1-.2,1.5a1.9,1.9,0,0,1-.1.8,1.9,1.9,0,0,1-.1.8,9.9,9.9,0,0,1-.2,1.7,9.9,9.9,0,0,0-.2,1.7L81,304c-.5,2.3-1,4.6-1.7,7-.1.3-.1.6-.2.9l-.2.4v.5l-.6,1.8-.6,1.7v.5h-.1v.2l-.3.9-.3.9-.2.4-.2.4c-.2.6-.5,1.2-.7,1.7s-.5,1.2-.8,1.7l-.3.9a3,3,0,0,0-.4.8,13,13,0,0,0-.8,1.7l-.9,1.6-.8,1.6-.8,1.5-3.4,5.8-.9,1.3a5.7,5.7,0,0,1-.8,1.3c-.5.9-1.1,1.7-1.6,2.5l-1.5,2.2-1.3,2L59,349.6l-1.5,2-.5.7.5-.8,1.3-2.1,2-3.4c.7-1.3,1.6-2.7,2.6-4.3l3-5.2c.5-.9,1-1.9,1.6-2.8a3,3,0,0,1,.4-.8,2.5,2.5,0,0,1,.4-.7,10.9,10.9,0,0,1,.8-1.5c1-2.1,2.1-4.2,3.1-6.4a5.9,5.9,0,0,1,.4-.8,3.6,3.6,0,0,1,.4-.9c.2-.5.4-1.1.7-1.7a11.1,11.1,0,0,1,.7-1.6l.2-.5v-.4l.3-.9.4-.8v-.5l.2-.4.6-1.7.6-1.8v-.8l.3-.9a2.9,2.9,0,0,0,.2-.9l.3-.8c.1-.6.3-1.2.4-1.8a8.5,8.5,0,0,0,.4-1.7c.1-.1.1-.3.2-.4v-.4a2.9,2.9,0,0,0,.2-.9c.3-1.1.5-2.2.7-3.3a10,10,0,0,0,.2-1.6c.1-.3.1-.6.2-.8a1.9,1.9,0,0,1,.1-.8c.1-.5.1-1.1.2-1.6s.1-1,.2-1.5v-.7a2,2,0,0,0,.1-.7,7.1,7.1,0,0,0,.1-1.4,26.5,26.5,0,0,0,.2-2.7,19.3,19.3,0,0,0,.1-2.4,14.8,14.8,0,0,1,.1-2.1v-1.8c0-1.1-.1-1.9-.1-2.5Z"></path><path class="b26df0e7-d119-4f5b-8cab-876b1f90d60b" d="M86.4,283.1v.8a17.8,17.8,0,0,1,.3,2,7.6,7.6,0,0,0,.1,1.5c.1.6.1,1.2.2,1.8a12.3,12.3,0,0,1,.2,2l.3,2.2q.1,1.1.3,2.4c.1.8.3,1.7.4,2.5a6.8,6.8,0,0,0,.2,1.4,5.9,5.9,0,0,0,.2,1.3c.1.9.3,1.9.4,2.8a29.3,29.3,0,0,1,.5,2.9l.6,3c.3,2,.8,4,1.2,6s.9,4,1.3,6a8.3,8.3,0,0,1,.4,1.5,7.4,7.4,0,0,0,.4,1.4c.2,1,.4,1.9.7,2.9s.5,1.8.7,2.7.3.9.4,1.3a5,5,0,0,0,.4,1.3,18.2,18.2,0,0,0,.7,2.5,15.5,15.5,0,0,0,.7,2.3l.6,2.2.6,1.9a14.2,14.2,0,0,1,.5,1.6,13.1,13.1,0,0,1,.5,1.5l.7,2,.2.7-.3-.7-.9-1.9-.6-1.4-.6-1.6c-.3-.6-.5-1.2-.8-1.9l-.8-2.1c-.2-.7-.5-1.5-.8-2.3a22.5,22.5,0,0,1-.8-2.4c-.2-.4-.3-.9-.5-1.3l-.4-1.3c-.1-.5-.3-.9-.4-1.4a5.7,5.7,0,0,1-.4-1.4c-.6-1.8-1.1-3.8-1.6-5.7s-1-4-1.4-6.1-.9-4-1.2-6-.6-4-.9-6-.3-1.9-.4-2.8-.1-.9-.1-1.4-.1-.9-.2-1.3a21.1,21.1,0,0,0-.2-2.6c-.1-.9-.1-1.7-.2-2.4s-.1-1.6-.1-2.3-.1-1.3-.1-2v-1.7c-.1-.6,0-1.1-.1-1.5v-2.1A2.8,2.8,0,0,1,86.4,283.1Z"></path><path class="b26df0e7-d119-4f5b-8cab-876b1f90d60b" d="M83.6,315.5v.2a4.2,4.2,0,0,1,.2.6c.1.5.2,1.2.3,2s.3,1.9.4,2.9v.8c0,.3.1.6.1.8a9.1,9.1,0,0,0,.1,1.7v3.4c0,1-.1,2-.1,2.9s-.2,1.5-.3,2v.6a.3.3,0,0,0-.1.2v-.2c-.1-.1-.1-.3-.2-.6s-.2-1.2-.3-2a22.6,22.6,0,0,1-.4-2.9v-.8a2.2,2.2,0,0,1-.1-.8c0-.6-.1-1.1-.1-1.7v-3.3c0-1.1.1-2.1.1-2.9s.2-1.6.2-2.1a1.3,1.3,0,0,0,.1-.6A.3.3,0,0,0,83.6,315.5Z"></path><path class="b26df0e7-d119-4f5b-8cab-876b1f90d60b" d="M100.8,306.9l.3.3c.2.2.4.6.8,1l.6.7.7.8.8.9.9,1,.9,1.1,1.1,1.2.5.6.6.6,1.1,1.3,1.2,1.3,1.3,1.3,2.5,2.7,2.7,2.7,1.2,1.3,1.3,1.2,1.3,1.2.6.6.6.6,1.1,1a5.2,5.2,0,0,0,1.1,1l.9,1,.9.8,1.5,1.3.9.9.3.3-.3-.2-1.1-.7-.8-.5-.8-.7-1-.7-1.1-.8-1.2-.9-1.2-1-1.3-1-1.3-1.2-2.7-2.4-2.7-2.7-2.5-2.7-2.4-2.8-1.1-1.4a14.7,14.7,0,0,1-1-1.3l-1-1.2-.8-1.2-.8-1.1-.7-1.1-.6-.9-.4-.7-.7-1.1C100.8,307,100.8,306.9,100.8,306.9Z"></path><path class="b26df0e7-d119-4f5b-8cab-876b1f90d60b" d="M93.7,275.7v.3c0,.2.1.5.1.9v1.4a10.9,10.9,0,0,1,.1,1.8c0,.7.1,1.4.1,2.2a20.9,20.9,0,0,0,.1,2.4v2.5c0,.9.1,1.7.1,2.6a24.4,24.4,0,0,0,.1,2.7V295a19.3,19.3,0,0,1,.1,2.4v2.1c0,.7.1,1.3.1,1.8v2.3a1,1,0,0,0-.1.4v-.4a1.9,1.9,0,0,1-.2-.8l-.3-1.4c-.1-.3-.1-.6-.2-.9s-.1-.6-.2-.9-.1-.7-.1-1-.1-.8-.2-1.1a19.4,19.4,0,0,1-.2-2.4,5.7,5.7,0,0,1-.1-1.3,5.3,5.3,0,0,1-.1-1.3c-.1-.9-.1-1.7-.2-2.6v-4a5.3,5.3,0,0,0,.1-1.3c0-.8.1-1.6.1-2.4a3.7,3.7,0,0,0,.1-1.1,3.4,3.4,0,0,0,.1-1,2.8,2.8,0,0,0,.1-.9,3.1,3.1,0,0,0,.1-.9l.3-1.4c0-.4.1-.7.1-.9A.8.8,0,0,0,93.7,275.7Z"></path></g></g><path class="ea7e7d7e-8127-4195-a5d5-01fd970cc42f" d="M41.4,372.4a11.9,11.9,0,0,1,16.8-1.5,13.7,13.7,0,0,1,1.6,1.8,13.3,13.3,0,0,0-2.9-3.8,11.9,11.9,0,0,0-17.1,16.5A12,12,0,0,1,41.4,372.4Z"></path><path class="ea7e7d7e-8127-4195-a5d5-01fd970cc42f" d="M21.9,329a8,8,0,0,1,7.8,7.9,7.7,7.7,0,0,1-.2,1.5,7.3,7.3,0,0,0,.6-3,7.7,7.7,0,0,0-7.7-7.9,7.9,7.9,0,0,0-7.7,6.2A7.8,7.8,0,0,1,21.9,329Z"></path><path class="ea7e7d7e-8127-4195-a5d5-01fd970cc42f" d="M123,348.7a7.7,7.7,0,0,1,7.7,7.8,8.1,8.1,0,0,1-.1,1.6,7.8,7.8,0,1,0-14.8-4.7A7.8,7.8,0,0,1,123,348.7Z"></path><path class="ea7e7d7e-8127-4195-a5d5-01fd970cc42f" d="M48.1,345.5a6.2,6.2,0,0,1,8.6-.9l.9.9a5.8,5.8,0,0,0-1.6-1.9,6.1,6.1,0,0,0-8.6,8.6A6.3,6.3,0,0,1,48.1,345.5Z"></path><path class="ea7e7d7e-8127-4195-a5d5-01fd970cc42f" d="M160.5,343.5a11.7,11.7,0,0,1,6.6,15.3,10.6,10.6,0,0,1-1.1,2.1,12,12,0,0,0,2.6-4,11.7,11.7,0,0,0-20.7-10.8A11.7,11.7,0,0,1,160.5,343.5Z"></path><path class="ea7e7d7e-8127-4195-a5d5-01fd970cc42f" d="M104.4,373.1a15.3,15.3,0,0,1-.3,23.5,15.8,15.8,0,0,0,4.8-3.8,15.2,15.2,0,0,0-21.1-21.6A15.3,15.3,0,0,1,104.4,373.1Z"></path><rect class="a22b4511-0f55-40e1-a570-b9ce88f9cbde" x="25.6" y="50.1" width="9.2" height="196.11"></rect><rect class="ea478e03-fe45-45a3-bd85-40a44a2a53c2" x="39.9" y="8.7" width="18.1" height="196.11"></rect><rect class="b835085d-62bb-4c84-a635-f27a959170bb" x="113.3" y="27.1" width="15" height="196.11"></rect><rect class="eea7af1b-9cdc-45c3-869a-0d604e837aa5" x="134.9" y="44.6" width="9.2" height="196.11"></rect><g><path class="b6283a37-11df-4988-9c4d-5c5b856175a9" d="M100.9,233.4H71.6v14.3c0,2.2,1.4,4.3,4.2,6,5.7,3.2,15,3.2,20.7,0,2.9-1.7,4.3-3.8,4.3-6h.1Z"></path><path class="b6283a37-11df-4988-9c4d-5c5b856175a9" d="M101.3,245.9l9-35.9a378.8,378.8,0,0,0,10.8-72.6c.1-1.6.2-3.2.2-4.8A235.9,235.9,0,0,0,96.2,18.3L87,0H85.6L76.4,18.3A237.2,237.2,0,0,0,51.2,132.6l.3,4.8A371.1,371.1,0,0,0,62.3,210l8.9,35.9Z"></path><path class="b26df0e7-d119-4f5b-8cab-876b1f90d60b" d="M71.7,245.9v1.8c0,2.2,1.4,4.3,4.2,6a21.8,21.8,0,0,0,9.8,2.4L74.5,210a379,379,0,0,1-10.9-72.6c-.1-1.6-.1-3.2-.2-4.8A236,236,0,0,1,88.6,18.3l3.8-7.6L87,0H85.6L76.4,18.3A237.2,237.2,0,0,0,51.2,132.6l.3,4.8A371.1,371.1,0,0,0,62.3,210l8.9,35.9Z"></path><polygon class="bb46b85f-2980-4d0e-b1c7-7fdba0eb11dc" points="55.4 160.3 25.2 186.4 10.4 279.3 69.2 230.5 57.5 162.3 55.4 160.3"></polygon><polygon class="ba6bf8db-e422-4910-9072-92bb5907c158" points="57.5 162.3 27.2 188.5 10.4 279.3 71.2 232.6 57.5 162.3"></polygon><polygon class="bb46b85f-2980-4d0e-b1c7-7fdba0eb11dc" points="116.5 160.3 146.8 186.4 161.5 279.3 102.7 230.5 114.4 162.3 116.5 160.3"></polygon><polygon class="ba6bf8db-e422-4910-9072-92bb5907c158" points="114.4 162.3 144.7 188.5 161.5 279.3 100.7 232.6 114.4 162.3"></polygon><path class="ba6bf8db-e422-4910-9072-92bb5907c158" d="M107.8,45.7A252.7,252.7,0,0,0,96.2,18.3L87,0H85.6L76.4,18.3A234.9,234.9,0,0,0,64.7,45.7,80.8,80.8,0,0,0,107.8,45.7Z"></path><path class="e28b4b5e-c9a5-426b-aa9a-bf0cf22bde6f" d="M53.4,148.6l-1.3-.8c.1,1.7.3,3.3.5,5,9.4,5.1,21.5,7.7,33.6,7.7s24.3-2.6,33.8-7.7c.2-1.7.3-3.4.5-5l-1.4.8C100.9,159.1,71.5,159.1,53.4,148.6Z"></path><path class="e28b4b5e-c9a5-426b-aa9a-bf0cf22bde6f" d="M104.9,102.1c-1.3,9.2-9.6,15.8-18.6,15.8S69,111.3,67.7,102.1s6.7-20.7,18.6-20.7S106.4,91.4,104.9,102.1Z"></path><path class="a6cb0a8d-4d96-437a-8c1a-fc6061ff2d85" d="M101.8,101.7a15.7,15.7,0,0,1-31,0,15.6,15.6,0,1,1,31,0Z"></path><g><path class="ef7f3cff-fcfd-4c09-a8b9-c73c6c149fd6" d="M86.4,84.4,70.6,100.2c.1.5.1,1,.2,1.5a15,15,0,0,0,4.2,8.4L96.8,88.3A16,16,0,0,0,86.4,84.4Z"></path><path class="ef7f3cff-fcfd-4c09-a8b9-c73c6c149fd6" d="M100.5,93.3a20.7,20.7,0,0,0-1.9-3.2L76.9,111.8a21.1,21.1,0,0,0,3.3,1.8Z"></path></g><path class="e28b4b5e-c9a5-426b-aa9a-bf0cf22bde6f" d="M104.1,234.8a12.8,12.8,0,0,1-4.1,3.4c-8.1,4.7-21.3,4.7-29.4,0a7.8,7.8,0,0,1-1.5-1l.7,2.9a32.6,32.6,0,0,0,15.5,3.7A32,32,0,0,0,101,240a16.4,16.4,0,0,0,2.2-1.4Z"></path><path class="a1eece89-1277-44fe-851b-087ec9a19387" d="M72.8,25.8c-3,6.5-5.7,13.2-8.1,19.9A62.3,62.3,0,0,0,76.1,48C79.6,37.9,87,0,87,0H85.6L76.4,18.3c-1.1,2.2-2.2,4.5-3.2,6.7Z"></path></g><g><circle class="e28b4b5e-c9a5-426b-aa9a-bf0cf22bde6f" cx="149.8" cy="174.8" r="0.8"></circle><circle class="e28b4b5e-c9a5-426b-aa9a-bf0cf22bde6f" cx="35.7" cy="115.9" r="0.8"></circle><circle class="e28b4b5e-c9a5-426b-aa9a-bf0cf22bde6f" cx="49.8" cy="198.6" r="0.8"></circle><circle class="e28b4b5e-c9a5-426b-aa9a-bf0cf22bde6f" cx="39.1" cy="252.6" r="0.8"></circle><circle class="e28b4b5e-c9a5-426b-aa9a-bf0cf22bde6f" cx="129.6" cy="145.9" r="0.8"></circle><circle class="e28b4b5e-c9a5-426b-aa9a-bf0cf22bde6f" cx="87.4" cy="208.1" r="0.8"></circle><circle class="e28b4b5e-c9a5-426b-aa9a-bf0cf22bde6f" cx="85.2" cy="185" r="0.8"></circle><circle class="e28b4b5e-c9a5-426b-aa9a-bf0cf22bde6f" cx="94.5" cy="95" r="0.8"></circle><circle class="e28b4b5e-c9a5-426b-aa9a-bf0cf22bde6f" cx="105" cy="145.9" r="0.8"></circle><circle class="e28b4b5e-c9a5-426b-aa9a-bf0cf22bde6f" cx="146.5" cy="127.6" r="0.8"></circle><circle class="e28b4b5e-c9a5-426b-aa9a-bf0cf22bde6f" cx="120.8" cy="242.3" r="0.8"></circle><circle class="e28b4b5e-c9a5-426b-aa9a-bf0cf22bde6f" cx="128.8" cy="105.5" r="0.8"></circle><circle class="e28b4b5e-c9a5-426b-aa9a-bf0cf22bde6f" cx="87.4" cy="233" r="0.8"></circle><circle class="e28b4b5e-c9a5-426b-aa9a-bf0cf22bde6f" cx="54.2" cy="165" r="0.8"></circle><circle class="e28b4b5e-c9a5-426b-aa9a-bf0cf22bde6f" cx="34.9" cy="222.2" r="0.8"></circle><circle class="e28b4b5e-c9a5-426b-aa9a-bf0cf22bde6f" cx="125.7" cy="225.7" r="0.8"></circle><circle class="e28b4b5e-c9a5-426b-aa9a-bf0cf22bde6f" cx="19" cy="163.5" r="0.8"></circle><circle class="e28b4b5e-c9a5-426b-aa9a-bf0cf22bde6f" cx="47" cy="134.8" r="0.8"></circle><circle class="e28b4b5e-c9a5-426b-aa9a-bf0cf22bde6f" cx="126.6" cy="201.8" r="0.4"></circle><circle class="e28b4b5e-c9a5-426b-aa9a-bf0cf22bde6f" cx="106.6" cy="239.2" r="0.4"></circle><circle class="e28b4b5e-c9a5-426b-aa9a-bf0cf22bde6f" cx="62.5" cy="208.5" r="0.4"></circle><circle class="e28b4b5e-c9a5-426b-aa9a-bf0cf22bde6f" cx="112.3" cy="180.2" r="0.4"></circle><circle class="e28b4b5e-c9a5-426b-aa9a-bf0cf22bde6f" cx="43.1" cy="188.8" r="0.4"></circle><circle class="e28b4b5e-c9a5-426b-aa9a-bf0cf22bde6f" cx="126.2" cy="116.3" r="0.4"></circle><circle class="e28b4b5e-c9a5-426b-aa9a-bf0cf22bde6f" cx="128.1" cy="181" r="0.4"></circle><circle class="e28b4b5e-c9a5-426b-aa9a-bf0cf22bde6f" cx="31.9" cy="205" r="0.4"></circle><circle class="e28b4b5e-c9a5-426b-aa9a-bf0cf22bde6f" cx="47" cy="106.3" r="0.4"></circle><circle class="e28b4b5e-c9a5-426b-aa9a-bf0cf22bde6f" cx="25.5" cy="132.4" r="0.4"></circle><circle class="e28b4b5e-c9a5-426b-aa9a-bf0cf22bde6f" cx="132.2" cy="132.8" r="0.4"></circle><circle class="e28b4b5e-c9a5-426b-aa9a-bf0cf22bde6f" cx="34.1" cy="151.6" r="0.4"></circle><circle class="e28b4b5e-c9a5-426b-aa9a-bf0cf22bde6f" cx="57.5" cy="238.8" r="0.4"></circle><circle class="e28b4b5e-c9a5-426b-aa9a-bf0cf22bde6f" cx="150.6" cy="199.8" r="0.4"></circle><circle class="e28b4b5e-c9a5-426b-aa9a-bf0cf22bde6f" cx="70.3" cy="235.5" r="0.4"></circle></g></g></g></g></svg> 